<!DOCTYPE svg PUBLIC "-//W3C//DTD SVG 1.1//EN" "http://www.w3.org/Graphics/SVG/1.1/DTD/svg11.dtd">
<!-- Uploaded to: SVG Repo, www.svgrepo.com, Transformed by: SVG Repo Mixer Tools -->
<svg width="256px" height="256px" viewBox="-6 -6 72.00 72.00" xmlns="http://www.w3.org/2000/svg" fill="#1f2937" stroke="#1f2937" stroke-width="0.0006000000000000001">
<g id="SVGRepo_bgCarrier" stroke-width="0">
<path transform="translate(-6, -6), scale(2.25)" d="M16,29.07454061488572C19.712527016380044,29.600743486485374,23.888197287661427,29.190720141165734,26.513267079644848,26.51326707964485C29.124344535358222,23.850085571474086,29.290272281747235,19.699719040948327,28.818742597377614,16C28.40747724611381,12.773127331342561,26.421305621606884,10.178995133842337,24.136368537167936,7.863631462832066C21.830426665407202,5.526983301402621,19.2736397064808,2.764439836338777,16,3.0105609821253694C12.816646592071997,3.249894158177646,11.367826305020738,6.8587157990104135,9.001511239874159,9.001511239874157C6.395422398928577,11.361431678667524,1.868619716996063,12.490648485785176,1.655604520322461,15.999999999999998C1.4415491578165143,19.526487885683977,5.485908117442694,21.52305565619096,8.09700131367331,23.902998686326683C10.515802211288385,26.107672324891286,12.759592616917738,28.615254618418223,16,29.07454061488572" fill="#b7d5f0" strokewidth="0"/>
</g>
<g id="SVGRepo_tracerCarrier" stroke-linecap="round" stroke-linejoin="round" stroke="#CCCCCC" stroke-width="1.6800000000000002"/>
<g id="SVGRepo_iconCarrier"> <defs> <style>.cls-1{fill:none;}.cls-2{fill:#1f2937;}</style> </defs> <title/> <g data-name="Layer 2" id="Layer_2"> <g id="Icons"> <g id="Folder"> <rect class="cls-1" height="60" width="60"/> <path class="cls-2" d="M46.27,32.49h-.05l1.92-21.88A2.34,2.34,0,0,0,46,8.08L18.55,5.68A2.35,2.35,0,0,0,16,7.8l-.25,2.91H13.55A2.33,2.33,0,0,0,11.22,13V50.43a2.33,2.33,0,0,0,2.33,2.33h4a2.53,2.53,0,0,0,2.33,1.57H46.27a2.52,2.52,0,0,0,2.51-2.51V35A2.52,2.52,0,0,0,46.27,32.49ZM18,8a.33.33,0,0,1,.36-.3l27.46,2.4a.33.33,0,0,1,.3.36L44.21,32.49h-.76V13a2.33,2.33,0,0,0-2.33-2.33H17.78Zm-.68,31.57V50.76H13.55a.33.33,0,0,1-.33-.33V13a.33.33,0,0,1,.33-.33H41.12a.33.33,0,0,1,.33.33V32.49H36.74a4,4,0,0,0-2.5.88l-4.05,3.22a2,2,0,0,1-1.26.44H19.85A2.51,2.51,0,0,0,17.34,39.54ZM46.78,51.82a.51.51,0,0,1-.51.51H19.85a.51.51,0,0,1-.51-.51V39.54a.51.51,0,0,1,.51-.51h9.08a4,4,0,0,0,2.51-.88l4-3.22a2.07,2.07,0,0,1,1.26-.44h9.53a.51.51,0,0,1,.51.51Z"/> <path class="cls-2" d="M43.64,48.27H39.87a1,1,0,0,0,0,2h3.77a1,1,0,0,0,0-2Z"/> <path class="cls-2" d="M24.7,18.12H30a1,1,0,0,0,0-2H24.7a1,1,0,0,0,0,2Z"/> <path class="cls-2" d="M19,23.79H35.64a1,1,0,0,0,0-2H19a1,1,0,0,0,0,2Z"/> <path class="cls-2" d="M36.64,27.83a1,1,0,0,0-1-1H19a1,1,0,0,0,0,2H35.64A1,1,0,0,0,36.64,27.83Z"/> </g> </g> </g> </g>
</svg>