<svg version="1.1" id="Layer_1" xmlns="http://www.w3.org/2000/svg" xmlns:xlink="http://www.w3.org/1999/xlink" x="0px" y="0px"
	 width="100%" viewBox="0 0 1080 669" enable-background="new 0 0 1080 669" xml:space="preserve">
<path fill="#F9FAFB" opacity="1.000000" stroke="none" 
	d="
M429.000000,670.000000 
	C286.352173,670.000000 143.704315,670.000000 1.028240,670.000000 
	C1.028240,447.048248 1.028240,224.096512 1.028240,1.072383 
	C360.904236,1.072383 720.808533,1.072383 1080.856445,1.072383 
	C1080.856445,223.999939 1080.856445,446.999969 1080.856445,670.000000 
	C967.890198,670.000000 854.904846,670.000000 741.499817,669.532837 
	C741.080200,651.119202 741.080200,633.172791 741.080200,614.635986 
	C707.236633,614.635986 673.866211,614.635986 640.530151,614.635986 
	C640.530151,589.790955 640.530151,565.541931 640.530151,541.180237 
	C641.650757,541.110168 642.467102,541.014526 643.283447,541.014465 
	C745.444397,541.007446 847.605347,540.991577 949.766113,541.130310 
	C951.653748,541.132812 954.154968,542.507080 955.328247,544.039062 
	C965.248108,556.992249 974.902710,570.148193 984.682678,583.208984 
	C992.567688,593.739197 1002.516846,595.169434 1013.198730,587.269409 
	C1022.837341,580.140930 1032.100586,572.458374 1042.077393,565.847046 
	C1052.194458,559.142761 1055.812378,546.758911 1046.359009,534.533264 
	C1023.242615,504.637482 1000.961853,474.093384 978.548035,443.660522 
	C976.658264,441.094696 975.359497,437.408234 975.353943,434.239624 
	C975.186951,338.911926 975.217468,243.583878 975.216980,148.255890 
	C975.216980,146.306671 975.216919,144.357452 975.216919,141.992874 
	C955.309509,141.992874 935.850586,141.992859 916.391602,141.992859 
	C896.995178,141.992859 877.598755,141.992874 857.950928,141.992874 
	C861.074219,130.270218 860.281189,119.385895 852.276733,110.899910 
	C844.448303,102.600655 838.377563,91.715225 825.480103,89.451942 
	C845.106995,89.719276 858.025085,74.852348 859.851685,58.267406 
	C861.637085,42.056660 835.532593,14.553946 820.652527,14.923602 
	C798.501648,15.473880 776.316772,14.648973 754.165466,15.189619 
	C740.233276,15.529663 730.138489,22.974791 725.209900,36.042709 
	C720.493286,48.548641 723.236694,60.102982 732.662415,69.585175 
	C739.841309,76.807167 745.544617,85.978912 756.585022,88.510765 
	C731.832886,88.732300 712.456177,114.967209 729.799866,141.715912 
	C605.159729,141.715912 480.633392,141.715912 355.817627,141.715912 
	C355.817627,139.638184 355.817627,137.829422 355.817627,136.020645 
	C355.817841,101.189262 355.871002,66.357765 355.795837,31.526543 
	C355.758392,14.176846 344.894012,3.026312 327.985931,3.014245 
	C257.489899,2.963934 186.993088,2.851415 116.498894,3.211913 
	C109.429970,3.248062 101.805801,5.149742 95.429924,8.233664 
	C80.200226,15.600051 74.271416,29.151579 74.245888,45.518253 
	C74.178055,89.015717 74.204117,132.513367 74.227562,176.010910 
	C74.237503,194.452255 84.912498,204.993668 103.513580,205.003723 
	C128.845490,205.017410 154.177414,205.007126 179.509323,205.007126 
	C181.288605,205.007126 183.067886,205.007126 184.826385,205.007126 
	C184.826385,234.452011 184.826385,263.359344 184.826385,292.482117 
	C177.339508,292.482117 170.120148,291.904022 163.037582,292.640839 
	C155.602905,293.414246 150.869278,291.151978 147.692596,284.296814 
	C144.871552,278.208984 139.489456,275.199860 132.761719,275.186249 
	C103.596802,275.127258 74.431320,275.080719 45.266914,275.216156 
	C36.315289,275.257721 31.207909,279.995483 29.689375,288.933960 
	C29.301014,291.219971 29.038540,293.562653 29.055313,295.876892 
	C29.347599,336.202332 29.683823,376.527466 30.032234,416.852478 
	C30.114264,426.346497 32.806171,429.005463 42.192501,429.005981 
	C88.023270,429.008484 133.854034,429.007111 179.684799,429.007111 
	C181.451019,429.007111 183.217224,429.007080 185.274017,429.007080 
	C185.274017,466.598877 185.274017,503.545197 185.274017,541.153564 
	C300.243927,541.153564 414.917664,541.153564 529.392212,541.153564 
	C529.392212,566.060791 529.392212,590.302368 529.392212,615.052917 
	C495.786194,615.052917 462.558533,615.052917 429.000000,615.052917 
	C429.000000,633.711121 429.000000,651.855530 429.000000,670.000000 
z"/>
<path fill="#222C3A" opacity="1.000000" stroke="none" 
	d="
M429.468658,670.000000 
	C429.000000,651.855530 429.000000,633.711121 429.000000,615.052917 
	C462.558533,615.052917 495.786194,615.052917 529.392212,615.052917 
	C529.392212,590.302368 529.392212,566.060791 529.392212,541.153564 
	C414.917664,541.153564 300.243927,541.153564 185.274017,541.153564 
	C185.274017,503.545197 185.274017,466.598877 185.274017,429.007080 
	C183.217224,429.007080 181.451019,429.007111 179.684799,429.007111 
	C133.854034,429.007111 88.023270,429.008484 42.192501,429.005981 
	C32.806171,429.005463 30.114264,426.346497 30.032234,416.852478 
	C29.683823,376.527466 29.347599,336.202332 29.055313,295.876892 
	C29.038540,293.562653 29.301014,291.219971 29.689375,288.933960 
	C31.207909,279.995483 36.315289,275.257721 45.266914,275.216156 
	C74.431320,275.080719 103.596802,275.127258 132.761719,275.186249 
	C139.489456,275.199860 144.871552,278.208984 147.692596,284.296814 
	C150.869278,291.151978 155.602905,293.414246 163.037582,292.640839 
	C170.120148,291.904022 177.339508,292.482117 184.826385,292.482117 
	C184.826385,263.359344 184.826385,234.452011 184.826385,205.007126 
	C183.067886,205.007126 181.288605,205.007126 179.509323,205.007126 
	C154.177414,205.007126 128.845490,205.017410 103.513580,205.003723 
	C84.912498,204.993668 74.237503,194.452255 74.227562,176.010910 
	C74.204117,132.513367 74.178055,89.015717 74.245888,45.518253 
	C74.271416,29.151579 80.200226,15.600051 95.429924,8.233664 
	C101.805801,5.149742 109.429970,3.248062 116.498894,3.211913 
	C186.993088,2.851415 257.489899,2.963934 327.985931,3.014245 
	C344.894012,3.026312 355.758392,14.176846 355.795837,31.526543 
	C355.871002,66.357765 355.817841,101.189262 355.817627,136.020645 
	C355.817627,137.829422 355.817627,139.638184 355.817627,141.715912 
	C480.633392,141.715912 605.159729,141.715912 729.799866,141.715912 
	C712.456177,114.967209 731.832886,88.732300 756.585022,88.510765 
	C745.544617,85.978912 739.841309,76.807167 732.662415,69.585175 
	C723.236694,60.102982 720.493286,48.548641 725.209900,36.042709 
	C730.138489,22.974791 740.233276,15.529663 754.165466,15.189619 
	C776.316772,14.648973 798.501648,15.473880 820.652527,14.923602 
	C835.532593,14.553946 861.637085,42.056660 859.851685,58.267406 
	C858.025085,74.852348 845.106995,89.719276 825.480103,89.451942 
	C838.377563,91.715225 844.448303,102.600655 852.276733,110.899910 
	C860.281189,119.385895 861.074219,130.270218 857.950928,141.992874 
	C877.598755,141.992874 896.995178,141.992859 916.391602,141.992859 
	C935.850586,141.992859 955.309509,141.992874 975.216919,141.992874 
	C975.216919,144.357452 975.216980,146.306671 975.216980,148.255890 
	C975.217468,243.583878 975.186951,338.911926 975.353943,434.239624 
	C975.359497,437.408234 976.658264,441.094696 978.548035,443.660522 
	C1000.961853,474.093384 1023.242615,504.637482 1046.359009,534.533264 
	C1055.812378,546.758911 1052.194458,559.142761 1042.077393,565.847046 
	C1032.100586,572.458374 1022.837341,580.140930 1013.198730,587.269409 
	C1002.516846,595.169434 992.567688,593.739197 984.682678,583.208984 
	C974.902710,570.148193 965.248108,556.992249 955.328247,544.039062 
	C954.154968,542.507080 951.653748,541.132812 949.766113,541.130310 
	C847.605347,540.991577 745.444397,541.007446 643.283447,541.014465 
	C642.467102,541.014526 641.650757,541.110168 640.530151,541.180237 
	C640.530151,565.541931 640.530151,589.790955 640.530151,614.635986 
	C673.866211,614.635986 707.236633,614.635986 741.080200,614.635986 
	C741.080200,633.172791 741.080200,651.119202 741.040100,669.532837 
	C637.312439,670.000000 533.624878,670.000000 429.468658,670.000000 
M191.747635,472.116516 
	C191.747635,472.116516 191.724213,472.210388 191.854874,473.038574 
	C193.760101,473.315063 195.665283,473.833160 197.570587,473.833649 
	C340.478333,473.871246 483.386108,473.869995 626.293884,473.847931 
	C628.266296,473.847626 630.238708,473.545258 633.092896,473.492035 
	C636.664612,473.458557 640.236328,473.425079 644.703857,473.759979 
	C645.369019,473.794830 646.034180,473.860138 646.699341,473.860199 
	C732.009399,473.865936 817.319519,473.866913 902.629578,473.866669 
	C903.462402,473.866669 904.408386,474.088989 905.096130,473.767822 
	C905.777344,473.449646 906.198181,472.573975 906.968018,471.183960 
	C908.563599,466.818298 910.159241,462.452606 911.966553,457.507782 
	C910.479980,455.386536 908.115234,452.541321 906.355835,449.361176 
	C904.365417,445.763702 902.356506,445.652557 898.819336,447.448120 
	C882.299500,455.833954 864.597046,459.887390 846.143188,459.848602 
	C839.256104,459.834137 832.217651,458.583405 825.526672,456.832336 
	C816.918335,454.579437 808.384460,451.742523 800.190308,448.277924 
	C788.506165,443.337616 779.124329,434.965790 769.850891,425.490509 
	C767.583008,423.137604 765.315125,420.784698 763.067200,417.783386 
	C758.735779,411.554932 754.404358,405.326477 749.901367,398.396667 
	C748.629456,396.079987 747.357544,393.763306 746.156921,390.740234 
	C738.260925,371.629089 736.678040,351.805298 739.837891,330.839722 
	C740.164978,328.879395 740.492126,326.919098 741.088013,324.218384 
	C742.430481,319.189850 743.772888,314.161285 745.626892,308.648193 
	C746.402771,306.448151 747.178650,304.248077 748.494690,301.576752 
	C759.391968,279.637939 772.178894,259.143372 792.941345,244.031647 
	C796.023438,242.033463 799.105591,240.035294 802.879700,237.989197 
	C839.268127,219.025940 875.649048,218.538803 911.479675,239.045242 
	C966.493469,270.530609 983.756409,342.377441 949.499023,395.659607 
	C944.663696,403.180237 939.853210,410.716797 934.981323,418.323883 
	C936.811218,420.928009 938.666565,423.483704 940.429504,426.101685 
	C942.150635,428.657440 943.777283,431.276825 945.421692,433.831482 
	C954.619324,428.461823 957.256409,428.205566 968.015259,431.440948 
	C968.015259,350.379211 968.015259,269.335022 968.015259,187.807190 
	C965.732361,187.807190 963.772095,187.807190 961.811890,187.807190 
	C857.690247,187.807190 753.568665,187.805893 649.447021,187.817825 
	C647.622437,187.818039 645.797852,187.977615 643.072083,187.882065 
	C639.417786,187.948380 635.763489,188.014679 631.180115,187.859314 
	C535.213257,187.841995 439.246429,187.824661 343.279572,187.807449 
	C342.779755,187.807358 342.199432,187.644241 341.795166,187.841293 
	C340.579041,188.434097 338.873230,188.875824 338.342743,189.890900 
	C332.480835,201.107697 322.988434,205.136871 310.765015,205.076950 
	C273.112122,204.892334 235.457718,205.009628 197.803909,205.009628 
	C195.849808,205.009628 193.895706,205.009628 191.959351,205.009628 
	C191.959351,234.475845 191.959351,263.358887 191.959351,292.790771 
	C205.627274,292.790771 218.872940,292.790771 232.478333,292.790771 
	C232.478333,295.643646 232.478729,297.954407 232.478256,300.265198 
	C232.476181,310.621948 232.476089,310.621948 242.573700,310.650818 
	C256.343292,310.690186 258.431854,313.608978 254.625198,326.926849 
	C245.895950,357.467041 237.262238,388.034515 228.164352,419.062042 
	C227.405151,420.332581 226.645966,421.603119 225.295609,423.200928 
	C221.075928,428.049194 215.575256,429.789215 209.344803,429.869934 
	C203.565399,429.944794 197.787292,430.117981 191.425415,430.778137 
	C191.371155,436.606384 191.216736,442.435822 191.287048,448.262543 
	C191.383041,456.217926 191.650192,464.171234 191.747635,472.116516 
M355.206940,163.714691 
	C355.213013,164.502029 355.219055,165.289352 355.059723,166.877747 
	C353.357056,171.873047 351.654358,176.868332 350.062805,181.537598 
	C555.806335,181.537598 762.068298,181.537598 968.515503,181.537598 
	C968.515503,170.495438 968.515503,159.756577 968.515503,148.811813 
	C967.483398,148.682312 966.682007,148.494125 965.880554,148.493774 
	C929.715027,148.478073 893.549377,148.445358 857.384399,148.587082 
	C855.759033,148.593430 853.697144,149.821381 852.590332,151.120697 
	C845.705872,159.202454 837.029236,163.661636 826.485413,163.768768 
	C805.821533,163.978775 785.152344,163.982712 764.488708,163.763031 
	C754.716919,163.659134 746.286560,159.803345 740.026550,152.189224 
	C737.796265,149.476456 735.642090,148.394592 732.117004,148.397324 
	C608.454285,148.492981 484.791504,148.477234 361.128723,148.477234 
	C359.352692,148.477234 357.576660,148.477234 355.498718,148.477234 
	C355.498718,153.739456 355.498718,158.360397 355.206940,163.714691 
M203.500000,182.990463 
	C205.666214,182.990463 207.832443,182.990463 209.998657,182.990463 
	C248.990875,182.990433 287.983124,183.011932 326.975311,182.978622 
	C340.433411,182.967133 349.013184,175.129333 349.036926,162.536667 
	C349.120209,118.378990 349.127472,74.220917 349.029846,30.063290 
	C349.001770,17.357573 340.591492,9.138052 327.961670,9.133131 
	C257.808990,9.105801 187.656326,9.105674 117.503654,9.132614 
	C103.404099,9.138028 95.058495,17.479385 95.054192,31.437691 
	C95.040939,74.429108 95.043114,117.420532 95.052879,160.411957 
	C95.056229,175.143524 102.844955,182.976196 117.516960,182.985275 
	C145.844620,183.002792 174.172318,182.990433 203.500000,182.990463 
M456.499756,513.507202 
	C614.894226,513.507202 773.288696,513.507202 932.807373,513.507202 
	C924.893677,502.630310 917.538147,493.023376 910.816101,482.991943 
	C908.644043,479.750610 906.580872,478.765289 902.889343,478.766571 
	C667.734131,478.848877 432.578857,478.840698 197.423630,478.840698 
	C195.631287,478.840698 193.838943,478.840698 191.842117,478.840698 
	C191.842117,490.551331 191.842117,501.792419 191.842117,513.507080 
	C279.902161,513.507080 367.700928,513.507080 456.499756,513.507202 
M228.937424,394.399170 
	C236.174850,369.091553 243.412277,343.783966 250.750183,318.125031 
	C248.620087,317.831757 247.492493,317.541077 246.364807,317.540649 
	C189.711258,317.518921 133.057678,317.490662 76.404205,317.558075 
	C68.392151,317.567627 65.034172,320.361023 62.820908,328.088440 
	C54.449360,357.317047 46.101715,386.552429 37.750076,415.786713 
	C35.796196,422.626129 35.945763,422.826263 43.041359,422.826782 
	C89.030708,422.830109 135.020187,422.771912 181.009308,422.873810 
	C190.790100,422.895477 200.567764,423.667419 210.350281,423.770935 
	C217.764648,423.849457 221.217239,421.033112 223.363998,413.866638 
	C225.223541,407.659058 226.963699,401.415680 228.937424,394.399170 
M539.625610,519.845703 
	C535.597351,519.033569 535.983948,521.709473 535.986694,524.295349 
	C536.017517,553.092468 536.003174,581.889587 536.016174,610.686707 
	C536.016724,611.960510 536.163391,613.234192 536.243042,614.524902 
	C568.964600,614.524902 601.326233,614.524902 633.705078,614.524902 
	C633.705078,582.848450 633.705078,551.472961 633.705078,519.845520 
	C602.478210,519.845520 571.539551,519.845520 539.625610,519.845703 
M1031.222900,523.276245 
	C1029.143555,520.467590 1027.074707,517.651062 1024.983276,514.851440 
	C1006.854431,490.585052 988.810791,466.254028 970.536926,442.097290 
	C964.820984,434.541290 959.364807,433.953064 951.637390,439.404266 
	C945.793152,443.526978 940.171509,447.964050 934.359985,452.134766 
	C927.283142,457.213501 926.052246,464.056335 931.175537,470.991699 
	C955.695984,504.184814 980.224915,537.371643 1004.758972,570.554688 
	C1009.836914,577.422729 1015.375488,578.296326 1022.329773,573.153870 
	C1028.351440,568.701111 1034.302490,564.146484 1040.164307,559.485535 
	C1047.612427,553.563477 1048.423584,546.381592 1042.699585,538.657532 
	C1039.032959,533.709778 1035.353149,528.771790 1031.222900,523.276245 
M647.499756,644.520264 
	C676.567993,644.520264 705.636230,644.520264 734.675537,644.520264 
	C734.675537,636.288269 734.675537,628.850586 734.675537,621.251221 
	C634.903809,621.251221 535.370667,621.251221 435.781067,621.251221 
	C435.781067,629.061279 435.781067,636.611633 435.781067,644.520081 
	C506.267731,644.520081 576.383728,644.520081 647.499756,644.520264 
M880.051575,438.645203 
	C888.119690,435.637543 896.346497,432.989014 904.209229,429.516388 
	C911.389587,426.345184 913.545288,426.538269 917.972778,432.848999 
	C921.311035,437.607422 924.765137,442.284607 928.324585,447.215210 
	C932.704895,443.893188 936.845459,440.753021 941.105225,437.522430 
	C937.474060,432.510498 934.161255,427.923248 930.832886,423.347321 
	C925.419739,415.905182 925.436768,415.171875 931.592163,408.575745 
	C955.715149,382.726074 964.935059,352.271057 958.967712,317.510468 
	C950.818237,270.038452 911.742737,232.941360 859.442322,231.307755 
	C825.417542,230.244980 797.251282,243.376480 775.608276,269.916931 
	C761.702087,286.969818 754.347717,306.883057 752.325256,328.433075 
	C749.683228,356.584412 757.909790,381.705261 776.601746,403.200348 
	C790.887573,419.628632 807.658386,432.276031 829.162903,437.583466 
	C845.730103,441.672333 862.453064,441.787872 880.051575,438.645203 
M729.106018,119.733437 
	C728.704346,136.044464 741.242432,147.826019 757.030090,147.319321 
	C777.640625,146.657822 798.289001,147.074951 818.920044,147.201340 
	C826.249878,147.246231 832.281738,144.503632 837.041748,139.254929 
	C844.254517,131.301544 846.293701,122.024330 842.071106,111.991592 
	C837.813171,101.874649 829.876953,96.158989 818.896484,95.981407 
	C798.270081,95.647827 777.634705,95.803749 757.003357,95.860855 
	C741.569885,95.903572 732.412781,103.549278 729.106018,119.733437 
M812.487854,73.478592 
	C814.819031,73.477486 817.152832,73.549355 819.480896,73.463257 
	C833.185547,72.956398 844.138245,61.980953 844.433594,48.500515 
	C844.731689,34.895382 833.944519,22.509912 820.287659,22.214451 
	C798.153748,21.735588 775.993958,21.739952 753.860840,22.239677 
	C742.938354,22.486290 735.009216,28.618502 731.107849,38.885178 
	C724.553223,56.134033 736.806885,73.126259 756.045898,73.413834 
	C774.524109,73.690041 793.009644,73.476860 812.487854,73.478592 
M223.362839,310.207397 
	C224.295303,309.391235 225.923401,308.657532 226.031754,307.743622 
	C226.377960,304.823944 226.160217,301.837372 226.160217,298.640686 
	C167.460022,298.640686 109.251480,298.640686 50.760445,298.640686 
	C50.760445,313.522736 50.760445,328.064728 50.760445,342.606720 
	C52.709976,337.770935 54.128899,332.760498 55.574501,327.757782 
	C59.474552,314.261078 64.852364,310.215942 78.901466,310.215057 
	C126.728424,310.211975 174.555374,310.213409 223.362839,310.207397 
M949.711670,524.798401 
	C955.884033,533.278931 962.009094,541.794495 968.241089,550.230957 
	C975.761230,560.411438 983.241760,570.625854 990.989014,580.632263 
	C996.274475,587.458984 1003.528992,587.924805 1007.325806,583.625061 
	C1004.369141,579.958252 1001.360229,576.480408 998.627441,572.797729 
	C975.520325,541.658264 952.434692,510.502747 929.418945,479.295685 
	C925.358643,473.790253 920.553528,468.585419 920.642761,460.836884 
	C913.121643,465.779755 911.702820,472.736511 916.573608,479.450287 
	C927.427124,494.410370 938.363892,509.309967 949.711670,524.798401 
z"/>
<path fill="#7FADFE" opacity="1.000000" stroke="none" 
	d="
M228.589752,418.590942 
	C237.262238,388.034515 245.895950,357.467041 254.625198,326.926849 
	C258.431854,313.608978 256.343292,310.690186 242.573700,310.650818 
	C232.476089,310.621948 232.476181,310.621948 232.478256,300.265198 
	C232.478729,297.954407 232.478333,295.643646 232.478333,292.790771 
	C218.872940,292.790771 205.627274,292.790771 191.959351,292.790771 
	C191.959351,263.358887 191.959351,234.475845 191.959351,205.009628 
	C193.895706,205.009628 195.849808,205.009628 197.803909,205.009628 
	C235.457718,205.009628 273.112122,204.892334 310.765015,205.076950 
	C322.988434,205.136871 332.480835,201.107697 338.342743,189.890900 
	C338.873230,188.875824 340.579041,188.434097 341.795166,187.841293 
	C342.199432,187.644241 342.779755,187.807358 343.279572,187.807449 
	C439.246429,187.824661 535.213257,187.841995 631.664795,188.433563 
	C632.152283,281.726257 632.156311,374.444672 632.147583,467.163116 
	C632.147461,468.821533 631.993164,470.479950 631.451355,472.110291 
	C485.900330,472.075684 340.808716,472.068726 195.717087,472.068695 
	C194.386124,472.068695 193.055176,472.161102 191.724213,472.210388 
	C191.724213,472.210388 191.747635,472.116516 191.863220,471.646912 
	C191.988739,457.534119 191.998672,443.890991 192.008606,430.247864 
	C197.787292,430.117981 203.565399,429.944794 209.344803,429.869934 
	C215.575256,429.789215 221.075928,428.049194 225.718536,423.441589 
	C227.928558,424.121948 229.714890,424.941864 231.502838,424.945343 
	C269.428864,425.019257 307.355042,425.004517 345.281189,424.991150 
	C347.041290,424.990509 348.801331,424.841675 350.886200,424.747101 
	C350.765228,422.589966 350.676270,421.003601 350.558197,418.898315 
	C348.248749,418.898315 346.294708,418.898346 344.340698,418.898346 
	C307.911621,418.898346 271.482544,418.903534 235.053482,418.885193 
	C232.898865,418.884125 230.744324,418.693390 228.589752,418.590942 
M608.914062,278.217896 
	C608.914062,255.643143 608.914062,233.068375 608.914062,210.475723 
	C563.910828,210.475723 519.705139,210.475723 475.380157,210.475723 
	C475.380157,234.086807 475.380157,257.317108 475.380157,280.528717 
	C476.140198,280.763885 476.600800,281.030884 477.061584,281.031281 
	C519.868652,281.067444 562.675659,281.098236 605.482605,281.018799 
	C606.613953,281.016693 607.743042,279.801880 608.914062,278.217896 
M482.500000,323.833527 
	C493.104523,323.833527 503.709045,323.833527 514.483337,323.833527 
	C514.483337,321.292572 514.483337,319.414215 514.483337,317.376648 
	C439.597351,317.376648 365.085297,317.376648 290.399475,317.376648 
	C290.399475,319.584381 290.399475,321.459106 290.399475,323.833160 
	C354.344696,323.833160 417.922363,323.833160 482.500000,323.833527 
M242.501862,237.975235 
	C237.212982,237.975235 231.924103,237.975235 226.358612,237.975235 
	C226.358612,240.433746 226.358612,242.322769 226.358612,244.508484 
	C292.226044,244.508484 357.789978,244.508484 423.647095,244.508484 
	C423.647095,242.314697 423.647095,240.425110 423.647095,237.975189 
	C363.398834,237.975189 303.450104,237.975189 242.501862,237.975235 
M261.500000,446.945984 
	C315.415558,446.945984 369.331116,446.945984 423.130402,446.945984 
	C424.293304,440.427979 424.094177,440.170898 417.968628,440.170288 
	C355.834656,440.163879 293.700684,440.164154 231.566727,440.177826 
	C229.822525,440.178192 228.078339,440.348785 226.352692,440.439056 
	C226.352692,442.854767 226.352692,444.611053 226.352692,446.945892 
	C237.936417,446.945892 249.218216,446.945892 261.500000,446.945984 
M365.500000,338.188324 
	C341.099548,338.188324 316.699097,338.188324 292.285248,338.188324 
	C292.285248,340.870300 292.285248,342.755859 292.285248,344.667725 
	C349.682251,344.667725 406.679993,344.667725 463.671295,344.667725 
	C463.671295,342.419312 463.671295,340.532776 463.671295,338.188660 
	C431.016785,338.188660 398.758392,338.188660 365.500000,338.188324 
M305.500000,216.068390 
	C279.225677,216.068390 252.951340,216.068390 226.368011,216.068390 
	C226.368011,218.530960 226.368011,220.421631 226.368011,222.622437 
	C267.840118,222.622437 309.052032,222.622437 350.422363,222.622437 
	C350.422363,220.349731 350.422363,218.350494 350.422363,216.068542 
	C335.463531,216.068542 320.981750,216.068542 305.500000,216.068390 
M355.500000,291.998627 
	C323.895447,291.998627 292.290894,291.998627 260.490234,291.998627 
	C260.490234,294.265045 260.490234,295.965912 260.490234,297.717346 
	C301.744934,297.717346 342.621033,297.717346 383.895966,297.717346 
	C383.782745,295.607513 383.691437,293.905792 383.589081,291.998627 
	C374.144165,291.998627 365.322083,291.998627 355.500000,291.998627 
M341.453918,387.974335 
	C314.524323,387.974335 287.594727,387.974335 260.372803,387.974335 
	C260.372803,390.433807 260.372803,392.321442 260.372803,394.507812 
	C290.550507,394.507812 320.425079,394.507812 350.592133,394.507812 
	C350.592133,392.314056 350.592133,390.426880 350.592133,387.974304 
	C347.673798,387.974304 345.055054,387.974304 341.453918,387.974335 
M288.500000,276.833527 
	C309.088348,276.833527 329.676697,276.833527 350.587585,276.833527 
	C350.587585,274.384094 350.587585,272.508850 350.587585,270.343628 
	C320.420258,270.343628 290.564209,270.343628 260.382080,270.343628 
	C260.382080,272.489227 260.382080,274.365479 260.382080,276.833160 
	C269.616547,276.833160 278.558258,276.833160 288.500000,276.833527 
M341.412781,366.068390 
	C314.511047,366.068390 287.609314,366.068390 260.536377,366.068390 
	C260.536377,368.634766 260.536377,370.632172 260.536377,372.713287 
	C261.980499,372.805267 262.965973,372.922546 263.951508,372.922913 
	C291.231445,372.933044 318.511383,372.931305 345.791321,372.930756 
	C346.456635,372.930725 347.390198,373.200134 347.737762,372.865326 
	C348.848816,371.795258 350.360901,370.571625 350.513031,369.266785 
	C350.623199,368.321716 348.997894,366.595520 347.824829,366.218506 
	C346.164856,365.685059 344.208435,366.073883 341.412781,366.068390 
z"/>
<path fill="#7FADFE" opacity="1.000000" stroke="none" 
	d="
M739.468140,331.487854 
	C736.678040,351.805298 738.260925,371.629089 745.945801,391.509155 
	C743.952637,392.485260 742.171021,392.868317 740.388489,392.872528 
	C721.784912,392.916504 703.181213,392.893463 684.577515,392.909790 
	C682.811096,392.911346 681.044861,393.054321 679.188538,393.135590 
	C679.188538,395.246002 679.188538,396.834320 679.188538,399.098022 
	C702.993896,399.098022 726.533386,399.098022 750.072937,399.098022 
	C754.404358,405.326477 758.735779,411.554932 762.900452,418.531067 
	C760.966980,419.519135 759.200562,419.965515 757.433411,419.968903 
	C733.302307,420.015076 709.171204,419.999969 685.040039,420.000000 
	C683.107910,420.000000 681.175781,420.000000 678.901917,420.000000 
	C679.005859,422.351654 679.076233,423.945251 679.170593,426.080566 
	C709.753052,426.080566 739.994446,426.080566 770.235840,426.080566 
	C779.124329,434.965790 788.506165,443.337616 800.190308,448.277924 
	C808.384460,451.742523 816.918335,454.579437 825.526672,456.832336 
	C832.217651,458.583405 839.256104,459.834137 846.143188,459.848602 
	C864.597046,459.887390 882.299500,455.833954 898.819336,447.448120 
	C902.356506,445.652557 904.365417,445.763702 906.355835,449.361176 
	C908.115234,452.541321 910.479980,455.386536 911.966553,457.507782 
	C910.159241,462.452606 908.563599,466.818298 906.400513,471.593445 
	C903.003723,472.022797 900.174500,472.059326 897.345276,472.060089 
	C812.956177,472.082855 728.567017,472.102051 644.090759,471.652527 
	C643.993469,376.809723 643.983398,282.436279 643.973267,188.062820 
	C645.797852,187.977615 647.622437,187.818039 649.447021,187.817825 
	C753.568665,187.805893 857.690247,187.807190 961.811890,187.807190 
	C963.772095,187.807190 965.732361,187.807190 968.015259,187.807190 
	C968.015259,269.335022 968.015259,350.379211 968.015259,431.440948 
	C957.256409,428.205566 954.619324,428.461823 945.421692,433.831482 
	C943.777283,431.276825 942.150635,428.657440 940.429504,426.101685 
	C938.666565,423.483704 936.811218,420.928009 934.981323,418.323883 
	C939.853210,410.716797 944.663696,403.180237 949.499023,395.659607 
	C983.756409,342.377441 966.493469,270.530609 911.479675,239.045242 
	C875.649048,218.538803 839.268127,219.025940 802.052856,237.995667 
	C760.552124,238.002151 719.878235,238.002151 678.857056,238.002151 
	C679.007385,240.396362 679.106750,241.978973 679.233643,244.000000 
	C681.396240,244.000000 683.193237,244.000000 684.990295,244.000000 
	C709.618347,244.000000 734.246399,243.974213 758.874390,244.011642 
	C770.017456,244.028580 781.160339,244.171143 792.303345,244.256714 
	C772.178894,259.143372 759.391968,279.637939 747.759216,301.821106 
	C724.459473,302.065430 701.895203,302.065430 679.401245,302.065430 
	C679.401245,304.760468 679.401245,306.651459 679.401245,309.132751 
	C701.572449,309.132751 723.343872,309.132751 745.115295,309.132751 
	C743.772888,314.161285 742.430481,319.189850 740.497192,324.578247 
	C719.812073,324.938110 699.717773,324.938110 679.373657,324.938110 
	C679.373657,327.160217 679.373657,328.861237 679.373657,331.000854 
	C693.159973,331.000854 706.610046,330.950134 720.059570,331.022797 
	C726.529724,331.057739 732.998657,331.325500 739.468140,331.487854 
M683.704529,216.070679 
	C682.260620,216.175827 680.816650,216.280991 679.373047,216.386124 
	C679.373047,218.698334 679.373047,220.593628 679.373047,222.636383 
	C766.961182,222.636383 854.175903,222.636383 941.687500,222.636383 
	C941.687500,220.450974 941.687500,218.558701 941.687500,216.070541 
	C855.822083,216.070541 770.241394,216.070541 683.704529,216.070679 
z"/>
<path fill="#7FADFE" opacity="1.000000" stroke="none" 
	d="
M203.000000,182.990463 
	C174.172318,182.990433 145.844620,183.002792 117.516960,182.985275 
	C102.844955,182.976196 95.056229,175.143524 95.052879,160.411957 
	C95.043114,117.420532 95.040939,74.429108 95.054192,31.437691 
	C95.058495,17.479385 103.404099,9.138028 117.503654,9.132614 
	C187.656326,9.105674 257.808990,9.105801 327.961670,9.133131 
	C340.591492,9.138052 349.001770,17.357573 349.029846,30.063290 
	C349.127472,74.220917 349.120209,118.378990 349.036926,162.536667 
	C349.013184,175.129333 340.433411,182.967133 326.975311,182.978622 
	C287.983124,183.011932 248.990875,182.990433 209.998657,182.990463 
	C207.832443,182.990463 205.666214,182.990463 203.000000,182.990463 
M262.941010,82.344986 
	C262.693054,74.793259 266.104309,69.648064 273.110474,66.854218 
	C278.418610,64.737488 285.936493,66.120682 289.727905,70.462120 
	C296.884918,78.657471 294.796722,86.804077 288.615143,94.390343 
	C292.668884,94.933258 296.458557,94.858719 299.832764,96.006027 
	C308.610260,98.990562 313.867065,107.213768 314.012939,117.435844 
	C314.118927,124.863213 314.033661,132.293304 314.033661,139.593872 
	C316.737427,139.593872 318.635803,139.593872 320.584259,139.593872 
	C320.584259,112.614288 320.584259,86.041771 320.584259,59.182934 
	C292.374695,59.182934 264.487549,59.182934 236.327515,59.182934 
	C236.327515,86.171181 236.327515,112.876228 236.327515,139.647400 
	C238.559128,139.647400 240.453705,139.647400 242.836243,139.647400 
	C242.836243,131.506165 242.751709,123.709412 242.855713,115.915184 
	C243.018555,103.711449 251.897339,95.001358 264.104645,94.896042 
	C265.487488,94.884109 266.869232,94.746750 267.647095,94.702187 
	C266.019257,90.700508 264.492706,86.947830 262.941010,82.344986 
M217.056030,79.134995 
	C216.230545,79.057915 215.405106,78.913795 214.579590,78.913460 
	C184.625031,78.901215 154.670456,78.898201 124.715904,78.917831 
	C123.596313,78.918564 122.476883,79.157478 121.278992,79.294365 
	C121.278992,81.251167 121.278992,82.942566 121.278992,84.594154 
	C153.707230,84.594154 185.718430,84.594154 218.028030,84.594154 
	C217.910080,82.697937 217.818359,81.223434 217.056030,79.134995 
M167.500000,59.945583 
	C177.755615,59.945583 188.011230,59.945583 198.140594,59.945583 
	C199.256943,53.520477 199.025925,53.179550 193.462097,53.174843 
	C170.847351,53.155704 148.232559,53.156609 125.617813,53.173969 
	C119.945511,53.178326 119.388016,54.025467 121.254562,59.945480 
	C136.267334,59.945480 151.383667,59.945480 167.500000,59.945583 
M162.500000,101.000595 
	C148.737427,101.000595 134.974869,101.000595 121.163513,101.000595 
	C121.163513,103.324478 121.163513,104.916649 121.163513,106.789490 
	C146.844467,106.789490 172.225449,106.789490 197.792282,106.789490 
	C197.792282,104.780373 197.792282,103.092354 197.792282,101.000595 
	C186.097275,101.000595 174.798645,101.000595 162.500000,101.000595 
z"/>
<path fill="#FDFDFD" opacity="1.000000" stroke="none" 
	d="
M455.999725,513.507141 
	C367.700928,513.507080 279.902161,513.507080 191.842117,513.507080 
	C191.842117,501.792419 191.842117,490.551331 191.842117,478.840698 
	C193.838943,478.840698 195.631287,478.840698 197.423630,478.840698 
	C432.578857,478.840698 667.734131,478.848877 902.889343,478.766571 
	C906.580872,478.765289 908.644043,479.750610 910.816101,482.991943 
	C917.538147,493.023376 924.893677,502.630310 932.807373,513.507202 
	C773.288696,513.507202 614.894226,513.507202 455.999725,513.507141 
M246.500000,486.007019 
	C233.431488,486.007019 220.362991,486.007019 207.337128,486.007019 
	C207.337128,492.760071 207.337128,498.676178 207.337128,504.657654 
	C232.005127,504.657654 256.340515,504.657654 280.669434,504.657654 
	C280.669434,498.305115 280.669434,492.393921 280.669434,486.007050 
	C269.398102,486.007050 258.449036,486.007050 246.500000,486.007019 
z"/>
<path fill="#FDFDFD" opacity="1.000000" stroke="none" 
	d="
M228.847031,394.793640 
	C226.963699,401.415680 225.223541,407.659058 223.363998,413.866638 
	C221.217239,421.033112 217.764648,423.849457 210.350281,423.770935 
	C200.567764,423.667419 190.790100,422.895477 181.009308,422.873810 
	C135.020187,422.771912 89.030708,422.830109 43.041359,422.826782 
	C35.945763,422.826263 35.796196,422.626129 37.750076,415.786713 
	C46.101715,386.552429 54.449360,357.317047 62.820908,328.088440 
	C65.034172,320.361023 68.392151,317.567627 76.404205,317.558075 
	C133.057678,317.490662 189.711258,317.518921 246.364807,317.540649 
	C247.492493,317.541077 248.620087,317.831757 250.750183,318.125031 
	C243.412277,343.783966 236.174850,369.091553 228.847031,394.793640 
z"/>
<path fill="#F9FAFA" opacity="1.000000" stroke="none" 
	d="
M355.498718,162.981323 
	C355.498718,158.360397 355.498718,153.739456 355.498718,148.477234 
	C357.576660,148.477234 359.352692,148.477234 361.128723,148.477234 
	C484.791504,148.477234 608.454285,148.492981 732.117004,148.397324 
	C735.642090,148.394592 737.796265,149.476456 740.026550,152.189224 
	C746.286560,159.803345 754.716919,163.659134 764.488708,163.763031 
	C785.152344,163.982712 805.821533,163.978775 826.485413,163.768768 
	C837.029236,163.661636 845.705872,159.202454 852.590332,151.120697 
	C853.697144,149.821381 855.759033,148.593430 857.384399,148.587082 
	C893.549377,148.445358 929.715027,148.478073 965.880554,148.493774 
	C966.682007,148.494125 967.483398,148.682312 968.515503,148.811813 
	C968.515503,159.756577 968.515503,170.495438 968.515503,181.537598 
	C762.068298,181.537598 555.806335,181.537598 350.062805,181.537598 
	C351.654358,176.868332 353.357056,171.873047 355.596130,166.487122 
	C373.272064,166.091782 390.411682,166.112946 407.550842,166.037262 
	C409.057159,166.030624 410.560638,165.389816 412.065430,165.043549 
	C411.943207,164.356140 411.820984,163.668732 411.698792,162.981323 
	C392.965424,162.981323 374.232086,162.981323 355.498718,162.981323 
M904.957153,155.341476 
	C904.484131,161.627762 904.011108,167.914032 903.517334,174.475464 
	C912.241333,174.475464 919.818787,174.475464 927.628418,174.475464 
	C927.628418,167.965881 927.628418,161.762161 927.628418,155.151016 
	C920.134216,155.151016 913.000732,155.151016 904.957153,155.341476 
M894.691101,173.982697 
	C894.691101,167.797501 894.691101,161.612289 894.691101,155.422272 
	C886.625732,155.422272 879.080261,155.422272 871.367065,155.422272 
	C871.367065,161.926712 871.367065,168.103348 871.367065,174.537018 
	C879.139282,174.537018 886.554138,174.537018 894.691101,173.982697 
M959.940186,171.121994 
	C959.940186,165.884018 959.940186,160.646042 959.940186,155.451324 
	C951.497253,155.451324 943.929932,155.451324 936.285889,155.451324 
	C936.285889,161.991455 936.285889,168.169571 936.285889,174.765411 
	C943.350281,174.765411 949.977356,174.893753 956.590088,174.642899 
	C957.731873,174.599564 958.812622,172.947098 959.940186,171.121994 
M484.270996,166.079193 
	C485.845398,165.842316 487.419800,165.605423 488.994232,165.368530 
	C488.938965,164.825104 488.883698,164.281677 488.828430,163.738251 
	C468.272461,163.738251 447.716522,163.738251 426.916962,163.738251 
	C427.186798,164.621475 427.317505,165.454025 427.459259,165.455902 
	C446.079437,165.703339 464.700439,165.889893 484.270996,166.079193 
z"/>
<path fill="#FEFEFE" opacity="1.000000" stroke="none" 
	d="
M540.113281,519.845581 
	C571.539551,519.845520 602.478210,519.845520 633.705078,519.845520 
	C633.705078,551.472961 633.705078,582.848450 633.705078,614.524902 
	C601.326233,614.524902 568.964600,614.524902 536.243042,614.524902 
	C536.163391,613.234192 536.016724,611.960510 536.016174,610.686707 
	C536.003174,581.889587 536.017517,553.092468 535.986694,524.295349 
	C535.983948,521.709473 535.597351,519.033569 540.113281,519.845581 
z"/>
<path fill="#FEFEFE" opacity="1.000000" stroke="none" 
	d="
M1031.451050,523.552795 
	C1035.353149,528.771790 1039.032959,533.709778 1042.699585,538.657532 
	C1048.423584,546.381592 1047.612427,553.563477 1040.164307,559.485535 
	C1034.302490,564.146484 1028.351440,568.701111 1022.329773,573.153870 
	C1015.375488,578.296326 1009.836914,577.422729 1004.758972,570.554688 
	C980.224915,537.371643 955.695984,504.184814 931.175537,470.991699 
	C926.052246,464.056335 927.283142,457.213501 934.359985,452.134766 
	C940.171509,447.964050 945.793152,443.526978 951.637390,439.404266 
	C959.364807,433.953064 964.820984,434.541290 970.536926,442.097290 
	C988.810791,466.254028 1006.854431,490.585052 1024.983276,514.851440 
	C1027.074707,517.651062 1029.143555,520.467590 1031.451050,523.552795 
z"/>
<path fill="#FAFAFA" opacity="1.000000" stroke="none" 
	d="
M646.999756,644.520142 
	C576.383728,644.520081 506.267731,644.520081 435.781067,644.520081 
	C435.781067,636.611633 435.781067,629.061279 435.781067,621.251221 
	C535.370667,621.251221 634.903809,621.251221 734.675537,621.251221 
	C734.675537,628.850586 734.675537,636.288269 734.675537,644.520264 
	C705.636230,644.520264 676.567993,644.520264 646.999756,644.520142 
z"/>
<path fill="#F9FAFA" opacity="1.000000" stroke="none" 
	d="
M879.637695,438.734070 
	C862.453064,441.787872 845.730103,441.672333 829.162903,437.583466 
	C807.658386,432.276031 790.887573,419.628632 776.601746,403.200348 
	C757.909790,381.705261 749.683228,356.584412 752.325256,328.433075 
	C754.347717,306.883057 761.702087,286.969818 775.608276,269.916931 
	C797.251282,243.376480 825.417542,230.244980 859.442322,231.307755 
	C911.742737,232.941360 950.818237,270.038452 958.967712,317.510468 
	C964.935059,352.271057 955.715149,382.726074 931.592163,408.575745 
	C925.436768,415.171875 925.419739,415.905182 930.832886,423.347321 
	C934.161255,427.923248 937.474060,432.510498 941.105225,437.522430 
	C936.845459,440.753021 932.704895,443.893188 928.324585,447.215210 
	C924.765137,442.284607 921.311035,437.607422 917.972778,432.848999 
	C913.545288,426.538269 911.389587,426.345184 904.209229,429.516388 
	C896.346497,432.989014 888.119690,435.637543 879.637695,438.734070 
M945.900269,306.754395 
	C945.719543,306.289764 945.521667,305.830994 945.360535,305.359650 
	C928.857849,257.092285 879.175476,231.038055 830.298584,245.021805 
	C784.587708,258.099762 755.179626,304.156067 762.927124,350.916626 
	C774.414734,420.251129 851.472595,451.966858 908.015625,414.970093 
	C942.614380,392.331757 958.912354,346.923523 945.900269,306.754395 
z"/>
<path fill="#FDFDFE" opacity="1.000000" stroke="none" 
	d="
M729.125366,119.306824 
	C732.412781,103.549278 741.569885,95.903572 757.003357,95.860855 
	C777.634705,95.803749 798.270081,95.647827 818.896484,95.981407 
	C829.876953,96.158989 837.813171,101.874649 842.071106,111.991592 
	C846.293701,122.024330 844.254517,131.301544 837.041748,139.254929 
	C832.281738,144.503632 826.249878,147.246231 818.920044,147.201340 
	C798.289001,147.074951 777.640625,146.657822 757.030090,147.319321 
	C741.242432,147.826019 728.704346,136.044464 729.125366,119.306824 
M800.035034,133.398636 
	C807.742371,140.971054 818.978455,140.967667 825.640686,133.390976 
	C832.542969,125.541100 831.581299,114.141342 823.477722,107.752525 
	C815.253540,101.268578 805.011475,102.965706 798.710510,111.856476 
	C794.460205,117.853767 794.785828,125.464272 800.035034,133.398636 
z"/>
<path fill="#FEFEFE" opacity="1.000000" stroke="none" 
	d="
M811.989929,73.478653 
	C793.009644,73.476860 774.524109,73.690041 756.045898,73.413834 
	C736.806885,73.126259 724.553223,56.134033 731.107849,38.885178 
	C735.009216,28.618502 742.938354,22.486290 753.860840,22.239677 
	C775.993958,21.739952 798.153748,21.735588 820.287659,22.214451 
	C833.944519,22.509912 844.731689,34.895382 844.433594,48.500515 
	C844.138245,61.980953 833.185547,72.956398 819.480896,73.463257 
	C817.152832,73.549355 814.819031,73.477486 811.989929,73.478653 
M776.011230,48.996010 
	C776.056458,48.165855 776.117676,47.336212 776.144287,46.505466 
	C776.385803,38.970428 773.452332,33.133820 766.437073,30.058189 
	C759.673279,27.092724 753.090332,27.744034 747.456177,32.878300 
	C741.637634,38.180595 740.671875,44.858326 742.900024,52.059277 
	C745.056458,59.028286 751.276978,63.187683 758.908813,63.174118 
	C767.380188,63.159061 772.860840,58.857227 776.011230,48.996010 
z"/>
<path fill="#F8FBFF" opacity="1.000000" stroke="none" 
	d="
M643.522705,187.972443 
	C643.983398,282.436279 643.993469,376.809723 644.004944,471.859192 
	C643.804932,472.789307 643.738892,473.074768 643.808044,473.391602 
	C640.236328,473.425079 636.664612,473.458557 632.667542,473.218781 
	C632.111206,472.684875 632.000732,472.415833 631.910767,472.138367 
	C631.993164,470.479950 632.147461,468.821533 632.147583,467.163116 
	C632.156311,374.444672 632.152283,281.726257 632.129272,188.544403 
	C635.763489,188.014679 639.417786,187.948380 643.522705,187.972443 
z"/>
<path fill="#7EA9F6" opacity="1.000000" stroke="none" 
	d="
M222.872589,310.210266 
	C174.555374,310.213409 126.728424,310.211975 78.901466,310.215057 
	C64.852364,310.215942 59.474552,314.261078 55.574501,327.757782 
	C54.128899,332.760498 52.709976,337.770935 50.760445,342.606720 
	C50.760445,328.064728 50.760445,313.522736 50.760445,298.640686 
	C109.251480,298.640686 167.460022,298.640686 226.160217,298.640686 
	C226.160217,301.837372 226.377960,304.823944 226.031754,307.743622 
	C225.923401,308.657532 224.295303,309.391235 222.872589,310.210266 
z"/>
<path fill="#80ACF8" opacity="1.000000" stroke="none" 
	d="
M949.489258,524.516296 
	C938.363892,509.309967 927.427124,494.410370 916.573608,479.450287 
	C911.702820,472.736511 913.121643,465.779755 920.642761,460.836884 
	C920.553528,468.585419 925.358643,473.790253 929.418945,479.295685 
	C952.434692,510.502747 975.520325,541.658264 998.627441,572.797729 
	C1001.360229,576.480408 1004.369141,579.958252 1007.325806,583.625061 
	C1003.528992,587.924805 996.274475,587.458984 990.989014,580.632263 
	C983.241760,570.625854 975.761230,560.411438 968.241089,550.230957 
	C962.009094,541.794495 955.884033,533.278931 949.489258,524.516296 
z"/>
<path fill="#97AACC" opacity="1.000000" stroke="none" 
	d="
M631.451355,472.110291 
	C632.000732,472.415833 632.111206,472.684875 632.226685,473.164703 
	C630.238708,473.545258 628.266296,473.847626 626.293884,473.847931 
	C483.386108,473.869995 340.478333,473.871246 197.570587,473.833649 
	C195.665283,473.833160 193.760101,473.315063 191.789551,472.624451 
	C193.055176,472.161102 194.386124,472.068695 195.717087,472.068695 
	C340.808716,472.068726 485.900330,472.075684 631.451355,472.110291 
z"/>
<path fill="#FEFFFF" opacity="1.000000" stroke="none" 
	d="
M228.377045,418.826477 
	C230.744324,418.693390 232.898865,418.884125 235.053482,418.885193 
	C271.482544,418.903534 307.911621,418.898346 344.340698,418.898346 
	C346.294708,418.898346 348.248749,418.898315 350.558197,418.898315 
	C350.676270,421.003601 350.765228,422.589966 350.886200,424.747101 
	C348.801331,424.841675 347.041290,424.990509 345.281189,424.991150 
	C307.355042,425.004517 269.428864,425.019257 231.502838,424.945343 
	C229.714890,424.941864 227.928558,424.121948 226.014130,423.277954 
	C226.645966,421.603119 227.405151,420.332581 228.377045,418.826477 
z"/>
<path fill="#FFFFFF" opacity="1.000000" stroke="none" 
	d="
M792.622314,244.144180 
	C781.160339,244.171143 770.017456,244.028580 758.874390,244.011642 
	C734.246399,243.974213 709.618347,244.000000 684.990295,244.000000 
	C683.193237,244.000000 681.396240,244.000000 679.233643,244.000000 
	C679.106750,241.978973 679.007385,240.396362 678.857056,238.002151 
	C719.878235,238.002151 760.552124,238.002151 801.706848,238.019638 
	C799.105591,240.035294 796.023438,242.033463 792.622314,244.144180 
z"/>
<path fill="#FFFFFF" opacity="1.000000" stroke="none" 
	d="
M770.043335,425.785522 
	C739.994446,426.080566 709.753052,426.080566 679.170593,426.080566 
	C679.076233,423.945251 679.005859,422.351654 678.901917,420.000000 
	C681.175781,420.000000 683.107910,420.000000 685.040039,420.000000 
	C709.171204,419.999969 733.302307,420.015076 757.433411,419.968903 
	C759.200562,419.965515 760.966980,419.519135 762.890503,418.855255 
	C765.315125,420.784698 767.583008,423.137604 770.043335,425.785522 
z"/>
<path fill="#97AACC" opacity="1.000000" stroke="none" 
	d="
M644.255981,473.575806 
	C643.738892,473.074768 643.804932,472.789307 644.092102,472.328522 
	C728.567017,472.102051 812.956177,472.082855 897.345276,472.060089 
	C900.174500,472.059326 903.003723,472.022797 906.283081,471.972900 
	C906.198181,472.573975 905.777344,473.449646 905.096130,473.767822 
	C904.408386,474.088989 903.462402,473.866669 902.629578,473.866669 
	C817.319519,473.866913 732.009399,473.865936 646.699341,473.860199 
	C646.034180,473.860138 645.369019,473.794830 644.255981,473.575806 
z"/>
<path fill="#F5F9FF" opacity="1.000000" stroke="none" 
	d="
M745.371094,308.890472 
	C723.343872,309.132751 701.572449,309.132751 679.401245,309.132751 
	C679.401245,306.651459 679.401245,304.760468 679.401245,302.065430 
	C701.895203,302.065430 724.459473,302.065430 747.489136,302.056702 
	C747.178650,304.248077 746.402771,306.448151 745.371094,308.890472 
z"/>
<path fill="#FFFFFF" opacity="1.000000" stroke="none" 
	d="
M749.987183,398.747345 
	C726.533386,399.098022 702.993896,399.098022 679.188538,399.098022 
	C679.188538,396.834320 679.188538,395.246002 679.188538,393.135590 
	C681.044861,393.054321 682.811096,392.911346 684.577515,392.909790 
	C703.181213,392.893463 721.784912,392.916504 740.388489,392.872528 
	C742.171021,392.868317 743.952637,392.485260 745.910156,391.862366 
	C747.357544,393.763306 748.629456,396.079987 749.987183,398.747345 
z"/>
<path fill="#FEFEFE" opacity="1.000000" stroke="none" 
	d="
M739.653015,331.163757 
	C732.998657,331.325500 726.529724,331.057739 720.059570,331.022797 
	C706.610046,330.950134 693.159973,331.000854 679.373657,331.000854 
	C679.373657,328.861237 679.373657,327.160217 679.373657,324.938110 
	C699.717773,324.938110 719.812073,324.938110 740.362793,324.948425 
	C740.492126,326.919098 740.164978,328.879395 739.653015,331.163757 
z"/>
<path fill="#82ACF7" opacity="1.000000" stroke="none" 
	d="
M355.352844,163.348007 
	C374.232086,162.981323 392.965424,162.981323 411.698792,162.981323 
	C411.820984,163.668732 411.943207,164.356140 412.065430,165.043549 
	C410.560638,165.389816 409.057159,166.030624 407.550842,166.037262 
	C390.411682,166.112946 373.272064,166.091782 355.678833,166.086609 
	C355.219055,165.289352 355.213013,164.502029 355.352844,163.348007 
z"/>
<path fill="#97AACC" opacity="1.000000" stroke="none" 
	d="
M191.717010,430.513000 
	C191.998672,443.890991 191.988739,457.534119 191.911377,471.651367 
	C191.650192,464.171234 191.383041,456.217926 191.287048,448.262543 
	C191.216736,442.435822 191.371155,436.606384 191.717010,430.513000 
z"/>
<path fill="#FDFEFF" opacity="1.000000" stroke="none" 
	d="
M608.893616,278.685242 
	C607.743042,279.801880 606.613953,281.016693 605.482605,281.018799 
	C562.675659,281.098236 519.868652,281.067444 477.061584,281.031281 
	C476.600800,281.030884 476.140198,280.763885 475.380157,280.528717 
	C475.380157,257.317108 475.380157,234.086807 475.380157,210.475723 
	C519.705139,210.475723 563.910828,210.475723 608.914062,210.475723 
	C608.914062,233.068375 608.914062,255.643143 608.893616,278.685242 
M503.013245,254.482605 
	C505.203094,253.298859 507.366608,252.063110 509.587036,250.939774 
	C523.972473,243.661972 539.377380,242.376389 555.202209,242.681778 
	C567.706970,242.923080 579.710266,240.340118 590.117493,232.852524 
	C595.774048,228.782806 600.271851,223.735123 602.260193,216.458221 
	C600.773254,216.270615 600.121704,216.116714 599.470154,216.116470 
	C561.522949,216.101715 523.575623,216.140900 485.628723,216.030472 
	C481.970551,216.019836 481.135376,217.476120 481.159943,220.773834 
	C481.272827,235.918594 481.197662,251.064697 481.231903,266.210205 
	C481.234680,267.439850 481.553467,268.668762 481.775360,270.254852 
	C488.964111,264.883179 495.674072,259.869324 503.013245,254.482605 
z"/>
<path fill="#F1F6FF" opacity="1.000000" stroke="none" 
	d="
M482.000000,323.833344 
	C417.922363,323.833160 354.344696,323.833160 290.399475,323.833160 
	C290.399475,321.459106 290.399475,319.584381 290.399475,317.376648 
	C365.085297,317.376648 439.597351,317.376648 514.483337,317.376648 
	C514.483337,319.414215 514.483337,321.292572 514.483337,323.833527 
	C503.709045,323.833527 493.104523,323.833527 482.000000,323.833344 
z"/>
<path fill="#F6F9FF" opacity="1.000000" stroke="none" 
	d="
M243.001617,237.975220 
	C303.450104,237.975189 363.398834,237.975189 423.647095,237.975189 
	C423.647095,240.425110 423.647095,242.314697 423.647095,244.508484 
	C357.789978,244.508484 292.226044,244.508484 226.358612,244.508484 
	C226.358612,242.322769 226.358612,240.433746 226.358612,237.975235 
	C231.924103,237.975235 237.212982,237.975235 243.001617,237.975220 
z"/>
<path fill="#F1F6FF" opacity="1.000000" stroke="none" 
	d="
M261.000000,446.945923 
	C249.218216,446.945892 237.936417,446.945892 226.352692,446.945892 
	C226.352692,444.611053 226.352692,442.854767 226.352692,440.439056 
	C228.078339,440.348785 229.822525,440.178192 231.566727,440.177826 
	C293.700684,440.164154 355.834656,440.163879 417.968628,440.170288 
	C424.094177,440.170898 424.293304,440.427979 423.130402,446.945984 
	C369.331116,446.945984 315.415558,446.945984 261.000000,446.945923 
z"/>
<path fill="#F6F9FF" opacity="1.000000" stroke="none" 
	d="
M366.000000,338.188477 
	C398.758392,338.188660 431.016785,338.188660 463.671295,338.188660 
	C463.671295,340.532776 463.671295,342.419312 463.671295,344.667725 
	C406.679993,344.667725 349.682251,344.667725 292.285248,344.667725 
	C292.285248,342.755859 292.285248,340.870300 292.285248,338.188324 
	C316.699097,338.188324 341.099548,338.188324 366.000000,338.188477 
z"/>
<path fill="#F5F9FF" opacity="1.000000" stroke="none" 
	d="
M306.000000,216.068466 
	C320.981750,216.068542 335.463531,216.068542 350.422363,216.068542 
	C350.422363,218.350494 350.422363,220.349731 350.422363,222.622437 
	C309.052032,222.622437 267.840118,222.622437 226.368011,222.622437 
	C226.368011,220.421631 226.368011,218.530960 226.368011,216.068390 
	C252.951340,216.068390 279.225677,216.068390 306.000000,216.068466 
z"/>
<path fill="#FEFFFF" opacity="1.000000" stroke="none" 
	d="
M356.000000,291.998627 
	C365.322083,291.998627 374.144165,291.998627 383.589081,291.998627 
	C383.691437,293.905792 383.782745,295.607513 383.895966,297.717346 
	C342.621033,297.717346 301.744934,297.717346 260.490234,297.717346 
	C260.490234,295.965912 260.490234,294.265045 260.490234,291.998627 
	C292.290894,291.998627 323.895447,291.998627 356.000000,291.998627 
z"/>
<path fill="#F5F9FF" opacity="1.000000" stroke="none" 
	d="
M341.945129,387.974304 
	C345.055054,387.974304 347.673798,387.974304 350.592133,387.974304 
	C350.592133,390.426880 350.592133,392.314056 350.592133,394.507812 
	C320.425079,394.507812 290.550507,394.507812 260.372803,394.507812 
	C260.372803,392.321442 260.372803,390.433807 260.372803,387.974335 
	C287.594727,387.974335 314.524323,387.974335 341.945129,387.974304 
z"/>
<path fill="#F1F6FF" opacity="1.000000" stroke="none" 
	d="
M288.000000,276.833344 
	C278.558258,276.833160 269.616547,276.833160 260.382080,276.833160 
	C260.382080,274.365479 260.382080,272.489227 260.382080,270.343628 
	C290.564209,270.343628 320.420258,270.343628 350.587585,270.343628 
	C350.587585,272.508850 350.587585,274.384094 350.587585,276.833527 
	C329.676697,276.833527 309.088348,276.833527 288.000000,276.833344 
z"/>
<path fill="#F5F9FF" opacity="1.000000" stroke="none" 
	d="
M341.895752,366.068451 
	C344.208435,366.073883 346.164856,365.685059 347.824829,366.218506 
	C348.997894,366.595520 350.623199,368.321716 350.513031,369.266785 
	C350.360901,370.571625 348.848816,371.795258 347.737762,372.865326 
	C347.390198,373.200134 346.456635,372.930725 345.791321,372.930756 
	C318.511383,372.931305 291.231445,372.933044 263.951508,372.922913 
	C262.965973,372.922546 261.980499,372.805267 260.536377,372.713287 
	C260.536377,370.632172 260.536377,368.634766 260.536377,366.068390 
	C287.609314,366.068390 314.511047,366.068390 341.895752,366.068451 
z"/>
<path fill="#F6F9FF" opacity="1.000000" stroke="none" 
	d="
M684.182617,216.070618 
	C770.241394,216.070541 855.822083,216.070541 941.687500,216.070541 
	C941.687500,218.558701 941.687500,220.450974 941.687500,222.636383 
	C854.175903,222.636383 766.961182,222.636383 679.373047,222.636383 
	C679.373047,220.593628 679.373047,218.698334 679.373047,216.386124 
	C680.816650,216.280991 682.260620,216.175827 684.182617,216.070618 
z"/>
<path fill="#FDFEFF" opacity="1.000000" stroke="none" 
	d="
M262.953583,82.770065 
	C264.492706,86.947830 266.019257,90.700508 267.647095,94.702187 
	C266.869232,94.746750 265.487488,94.884109 264.104645,94.896042 
	C251.897339,95.001358 243.018555,103.711449 242.855713,115.915184 
	C242.751709,123.709412 242.836243,131.506165 242.836243,139.647400 
	C240.453705,139.647400 238.559128,139.647400 236.327515,139.647400 
	C236.327515,112.876228 236.327515,86.171181 236.327515,59.182934 
	C264.487549,59.182934 292.374695,59.182934 320.584259,59.182934 
	C320.584259,86.041771 320.584259,112.614288 320.584259,139.593872 
	C318.635803,139.593872 316.737427,139.593872 314.033661,139.593872 
	C314.033661,132.293304 314.118927,124.863213 314.012939,117.435844 
	C313.867065,107.213768 308.610260,98.990562 299.832764,96.006027 
	C296.458557,94.858719 292.668884,94.933258 288.615143,94.390343 
	C294.796722,86.804077 296.884918,78.657471 289.727905,70.462120 
	C285.936493,66.120682 278.418610,64.737488 273.110474,66.854218 
	C266.104309,69.648064 262.693054,74.793259 262.953583,82.770065 
z"/>
<path fill="#FFFFFF" opacity="1.000000" stroke="none" 
	d="
M217.391327,79.441963 
	C217.818359,81.223434 217.910080,82.697937 218.028030,84.594154 
	C185.718430,84.594154 153.707230,84.594154 121.278992,84.594154 
	C121.278992,82.942566 121.278992,81.251167 121.278992,79.294365 
	C122.476883,79.157478 123.596313,78.918564 124.715904,78.917831 
	C154.670456,78.898201 184.625031,78.901215 214.579590,78.913460 
	C215.405106,78.913795 216.230545,79.057915 217.391327,79.441963 
z"/>
<path fill="#F1F6FF" opacity="1.000000" stroke="none" 
	d="
M167.000000,59.945534 
	C151.383667,59.945480 136.267334,59.945480 121.254562,59.945480 
	C119.388016,54.025467 119.945511,53.178326 125.617813,53.173969 
	C148.232559,53.156609 170.847351,53.155704 193.462097,53.174843 
	C199.025925,53.179550 199.256943,53.520477 198.140594,59.945583 
	C188.011230,59.945583 177.755615,59.945583 167.000000,59.945534 
z"/>
<path fill="#FFFFFF" opacity="1.000000" stroke="none" 
	d="
M163.000000,101.000595 
	C174.798645,101.000595 186.097275,101.000595 197.792282,101.000595 
	C197.792282,103.092354 197.792282,104.780373 197.792282,106.789490 
	C172.225449,106.789490 146.844467,106.789490 121.163513,106.789490 
	C121.163513,104.916649 121.163513,103.324478 121.163513,101.000595 
	C134.974869,101.000595 148.737427,101.000595 163.000000,101.000595 
z"/>
<path fill="#7FADFE" opacity="1.000000" stroke="none" 
	d="
M247.000000,486.007019 
	C258.449036,486.007050 269.398102,486.007050 280.669434,486.007050 
	C280.669434,492.393921 280.669434,498.305115 280.669434,504.657654 
	C256.340515,504.657654 232.005127,504.657654 207.337128,504.657654 
	C207.337128,498.676178 207.337128,492.760071 207.337128,486.007019 
	C220.362991,486.007019 233.431488,486.007019 247.000000,486.007019 
z"/>
<path fill="#84B0FE" opacity="1.000000" stroke="none" 
	d="
M905.412231,155.246246 
	C913.000732,155.151016 920.134216,155.151016 927.628418,155.151016 
	C927.628418,161.762161 927.628418,167.965881 927.628418,174.475464 
	C919.818787,174.475464 912.241333,174.475464 903.517334,174.475464 
	C904.011108,167.914032 904.484131,161.627762 905.412231,155.246246 
z"/>
<path fill="#84B0FE" opacity="1.000000" stroke="none" 
	d="
M894.330078,174.259857 
	C886.554138,174.537018 879.139282,174.537018 871.367065,174.537018 
	C871.367065,168.103348 871.367065,161.926712 871.367065,155.422272 
	C879.080261,155.422272 886.625732,155.422272 894.691101,155.422272 
	C894.691101,161.612289 894.691101,167.797501 894.330078,174.259857 
z"/>
<path fill="#84B0FE" opacity="1.000000" stroke="none" 
	d="
M959.930908,171.579956 
	C958.812622,172.947098 957.731873,174.599564 956.590088,174.642899 
	C949.977356,174.893753 943.350281,174.765411 936.285889,174.765411 
	C936.285889,168.169571 936.285889,161.991455 936.285889,155.451324 
	C943.929932,155.451324 951.497253,155.451324 959.940186,155.451324 
	C959.940186,160.646042 959.940186,165.884018 959.930908,171.579956 
z"/>
<path fill="#7FADFE" opacity="1.000000" stroke="none" 
	d="
M483.796204,166.079315 
	C464.700439,165.889893 446.079437,165.703339 427.459259,165.455902 
	C427.317505,165.454025 427.186798,164.621475 426.916962,163.738251 
	C447.716522,163.738251 468.272461,163.738251 488.828430,163.738251 
	C488.883698,164.281677 488.938965,164.825104 488.994232,165.368530 
	C487.419800,165.605423 485.845398,165.842316 483.796204,166.079315 
z"/>
<path fill="#232D3B" opacity="1.000000" stroke="none" 
	d="
M945.986938,307.146454 
	C958.912354,346.923523 942.614380,392.331757 908.015625,414.970093 
	C851.472595,451.966858 774.414734,420.251129 762.927124,350.916626 
	C755.179626,304.156067 784.587708,258.099762 830.298584,245.021805 
	C879.175476,231.038055 928.857849,257.092285 945.360535,305.359650 
	C945.521667,305.830994 945.719543,306.289764 945.986938,307.146454 
M768.935181,323.885468 
	C768.733643,325.902985 768.532166,327.920532 768.092346,330.853516 
	C768.408264,337.308624 768.137512,343.858063 769.156799,350.200104 
	C771.616821,365.505798 777.142517,379.576782 788.151489,391.752655 
	C790.139404,393.866425 792.127319,395.980194 794.379456,398.689728 
	C804.094788,407.505249 814.307251,415.515320 827.786804,419.501343 
	C837.481812,420.946503 847.176758,422.391632 857.766235,423.962494 
	C876.485474,423.826355 893.664673,418.456573 908.249695,406.843689 
	C915.949463,400.712952 923.777649,393.633026 928.640625,385.287567 
	C937.933289,369.340332 939.575928,350.988464 936.632385,333.107361 
	C926.227905,269.903534 858.466553,238.867905 803.469604,271.736389 
	C791.622986,278.816437 781.353210,287.721161 775.103516,301.272644 
	C774.396423,303.468903 773.689270,305.665131 772.425720,308.386353 
	C771.346863,313.316772 770.268066,318.247192 768.935181,323.885468 
z"/>
<path fill="#212B39" opacity="1.000000" stroke="none" 
	d="
M799.820679,133.095276 
	C794.785828,125.464272 794.460205,117.853767 798.710510,111.856476 
	C805.011475,102.965706 815.253540,101.268578 823.477722,107.752525 
	C831.581299,114.141342 832.542969,125.541100 825.640686,133.390976 
	C818.978455,140.967667 807.742371,140.971054 799.820679,133.095276 
z"/>
<path fill="#81AEFE" opacity="1.000000" stroke="none" 
	d="
M775.955322,49.416977 
	C772.860840,58.857227 767.380188,63.159061 758.908813,63.174118 
	C751.276978,63.187683 745.056458,59.028286 742.900024,52.059277 
	C740.671875,44.858326 741.637634,38.180595 747.456177,32.878300 
	C753.090332,27.744034 759.673279,27.092724 766.437073,30.058189 
	C773.452332,33.133820 776.385803,38.970428 776.144287,46.505466 
	C776.117676,47.336212 776.056458,48.165855 775.955322,49.416977 
z"/>
<path fill="#82AFFE" opacity="1.000000" stroke="none" 
	d="
M502.698608,254.669037 
	C495.674072,259.869324 488.964111,264.883179 481.775360,270.254852 
	C481.553467,268.668762 481.234680,267.439850 481.231903,266.210205 
	C481.197662,251.064697 481.272827,235.918594 481.159943,220.773834 
	C481.135376,217.476120 481.970551,216.019836 485.628723,216.030472 
	C523.575623,216.140900 561.522949,216.101715 599.470154,216.116470 
	C600.121704,216.116714 600.773254,216.270615 602.260193,216.458221 
	C600.271851,223.735123 595.774048,228.782806 590.117493,232.852524 
	C579.710266,240.340118 567.706970,242.923080 555.202209,242.681778 
	C539.377380,242.376389 523.972473,243.661972 509.587036,250.939774 
	C507.366608,252.063110 505.203094,253.298859 502.698608,254.669037 
z"/>
<path fill="#7FADFD" opacity="1.000000" stroke="none" 
	d="
M787.943970,391.137177 
	C777.142517,379.576782 771.616821,365.505798 769.156799,350.200104 
	C768.137512,343.858063 768.408264,337.308624 768.658081,330.379150 
	C813.961609,329.904816 858.699402,329.904816 903.731689,329.904816 
	C903.731689,327.496704 903.731689,325.618073 903.731689,323.177612 
	C858.669861,323.177612 813.929504,323.177612 769.189209,323.177612 
	C770.268066,318.247192 771.346863,313.316772 773.173584,308.106110 
	C808.025635,307.825867 842.129761,307.825867 876.423584,307.825867 
	C876.423584,305.240509 876.423584,303.240112 876.423584,300.974762 
	C873.801941,300.974762 871.645508,300.978943 869.489136,300.974182 
	C838.176025,300.904785 806.862854,300.834137 775.549744,300.763824 
	C781.353210,287.721161 791.622986,278.816437 803.469604,271.736389 
	C858.466553,238.867905 926.227905,269.903534 936.632385,333.107361 
	C939.575928,350.988464 937.933289,369.340332 928.640625,385.287567 
	C923.777649,393.633026 915.949463,400.712952 908.249695,406.843689 
	C893.664673,418.456573 876.485474,423.826355 857.062988,423.632751 
	C854.957275,422.756378 853.493164,422.326996 852.168884,421.631561 
	C850.722168,420.871796 849.431580,419.141449 848.026672,419.089600 
	C841.127808,418.835022 834.213623,418.998016 827.304810,419.013519 
	C814.307251,415.515320 804.094788,407.505249 794.700317,398.330261 
	C831.125977,397.970795 867.230774,397.970795 903.611084,397.970795 
	C903.611084,395.475281 903.611084,393.597748 903.611084,391.137177 
	C864.831909,391.137177 826.387939,391.137177 787.943970,391.137177 
z"/>
<path fill="#F1F6FF" opacity="1.000000" stroke="none" 
	d="
M769.062195,323.531555 
	C813.929504,323.177612 858.669861,323.177612 903.731689,323.177612 
	C903.731689,325.618073 903.731689,327.496704 903.731689,329.904816 
	C858.699402,329.904816 813.961609,329.904816 768.777222,329.921448 
	C768.532166,327.920532 768.733643,325.902985 769.062195,323.531555 
z"/>
<path fill="#F1F6FF" opacity="1.000000" stroke="none" 
	d="
M788.047729,391.444916 
	C826.387939,391.137177 864.831909,391.137177 903.611084,391.137177 
	C903.611084,393.597748 903.611084,395.475281 903.611084,397.970795 
	C867.230774,397.970795 831.125977,397.970795 794.568237,398.032379 
	C792.127319,395.980194 790.139404,393.866425 788.047729,391.444916 
z"/>
<path fill="#F5F9FF" opacity="1.000000" stroke="none" 
	d="
M775.326660,301.018250 
	C806.862854,300.834137 838.176025,300.904785 869.489136,300.974182 
	C871.645508,300.978943 873.801941,300.974762 876.423584,300.974762 
	C876.423584,303.240112 876.423584,305.240509 876.423584,307.825867 
	C842.129761,307.825867 808.025635,307.825867 773.451843,307.843628 
	C773.689270,305.665131 774.396423,303.468903 775.326660,301.018250 
z"/>
<path fill="#F4F5F7" opacity="1.000000" stroke="none" 
	d="
M827.545776,419.257446 
	C834.213623,418.998016 841.127808,418.835022 848.026672,419.089600 
	C849.431580,419.141449 850.722168,420.871796 852.168884,421.631561 
	C853.493164,422.326996 854.957275,422.756378 856.615723,423.569885 
	C847.176758,422.391632 837.481812,420.946503 827.545776,419.257446 
z"/>
</svg>