<svg version="1.1" id="Layer_1" xmlns="http://www.w3.org/2000/svg" xmlns:xlink="http://www.w3.org/1999/xlink" x="0px" y="0px"
	 width="100%" viewBox="0 0 1080 657" enable-background="new 0 0 1080 657" xml:space="preserve">
<path fill="#F9FAFB" opacity="1.000000" stroke="none" 
	d="
M431.000000,658.000000 
	C287.685699,658.000000 144.371384,658.000000 1.028539,658.000000 
	C1.028539,439.048096 1.028539,220.096191 1.028539,1.072144 
	C360.904114,1.072144 720.808289,1.072144 1080.856201,1.072144 
	C1080.856201,219.999939 1080.856201,438.999969 1080.856201,658.000000 
	C966.889709,658.000000 852.904602,658.000000 738.155334,657.621826 
	C737.391235,639.601685 737.391235,621.959778 737.391235,603.946838 
	C704.154114,603.946838 671.372375,603.946838 638.564575,603.946838 
	C638.564575,579.806030 638.564575,556.039429 638.564575,532.062866 
	C640.085266,531.982056 641.391174,531.851929 642.697144,531.851807 
	C742.358887,531.842407 842.020691,531.858032 941.682373,531.772522 
	C944.722656,531.769958 946.428040,532.821472 948.164612,535.204651 
	C957.478088,547.986694 966.974365,560.635620 976.429993,573.313843 
	C984.047852,583.527893 994.000854,585.024353 1004.124695,577.480774 
	C1013.735779,570.319275 1023.057251,562.729675 1032.997437,556.060730 
	C1042.669434,549.571655 1045.830811,536.991699 1037.607300,526.289429 
	C1014.687622,496.461365 992.474915,466.088196 970.180054,435.785339 
	C968.388550,433.350403 967.251831,429.806427 967.246887,426.775482 
	C967.094910,333.113678 967.122131,239.451599 967.121765,145.789551 
	C967.121765,143.861649 967.121826,141.933746 967.121826,139.661911 
	C928.419495,139.661911 890.355652,139.661911 851.967407,139.661911 
	C855.340027,128.131348 854.015503,117.451378 846.131531,108.898544 
	C838.858093,101.008049 832.874207,91.219521 821.204346,88.363670 
	C822.271301,87.949364 823.098083,87.922592 823.918884,87.837418 
	C836.998535,86.480156 846.420471,79.850044 851.310913,67.670746 
	C856.252014,55.365231 853.491699,44.158825 844.804688,34.359142 
	C841.948120,31.136610 838.762878,28.207754 835.840759,25.040554 
	C829.851257,18.548800 822.355469,15.303911 813.660706,15.237005 
	C792.996399,15.077996 772.327454,14.962443 751.665710,15.235934 
	C737.346497,15.425472 725.795593,23.881416 721.423157,36.503117 
	C717.005798,49.254593 721.046082,62.215607 732.096619,71.883904 
	C738.151428,77.181389 743.864380,82.869743 749.260376,87.939270 
	C739.474792,88.654877 731.286926,92.885597 725.632507,101.051910 
	C716.737610,113.898094 718.400940,126.845764 726.273376,139.528168 
	C603.590759,139.528168 481.496643,139.528168 359.063843,139.528168 
	C359.063843,137.435684 359.063873,135.629349 359.063873,133.822998 
	C359.063721,99.824669 359.078430,65.826332 359.057343,31.828018 
	C359.046204,13.894005 349.141968,3.840456 331.410553,3.834623 
	C262.580597,3.811979 193.750656,3.816037 124.920723,3.854103 
	C121.437386,3.856029 117.872444,3.866081 114.484566,4.555605 
	C95.019623,8.517236 83.024094,23.168026 82.980492,43.187527 
	C82.886131,86.518509 82.934540,129.849823 82.942398,173.181000 
	C82.945747,191.617783 93.215446,201.821991 111.785805,201.837555 
	C136.617889,201.858368 161.450027,201.842911 186.282135,201.843033 
	C188.041306,201.843048 189.800476,201.843033 191.443817,201.843033 
	C191.443817,230.882050 191.443817,259.259552 191.443817,287.824982 
	C184.380737,287.824982 177.662430,287.263763 171.080124,287.970032 
	C163.227966,288.812561 157.913513,286.679993 154.641586,279.118256 
	C152.370514,273.869598 147.694336,270.939178 141.899429,270.919312 
	C112.235390,270.817627 82.570251,270.787750 52.906746,270.954193 
	C45.292934,270.996918 39.852825,276.374664 39.078854,284.066986 
	C38.647472,288.354340 38.681976,292.701141 38.707878,297.019958 
	C38.933708,334.678375 39.144161,372.337036 39.504356,409.994263 
	C39.598454,419.831665 41.926361,421.841339 51.837963,421.841919 
	C96.669090,421.844421 141.500214,421.843018 186.331345,421.843048 
	C188.084641,421.843048 189.837921,421.843048 192.118835,421.843048 
	C192.118835,458.913055 192.118835,495.289032 192.118835,531.975220 
	C304.924835,531.975220 417.191437,531.975220 529.678345,531.975220 
	C529.678345,556.036560 529.678345,579.779968 529.678345,604.057190 
	C496.797546,604.057190 464.082886,604.057190 431.000000,604.057190 
	C431.000000,622.392822 431.000000,640.196411 431.000000,658.000000 
z"/>
<path fill="#050505" opacity="1.000000" stroke="none" 
	d="
M431.468658,658.000000 
	C431.000000,640.196411 431.000000,622.392822 431.000000,604.057190 
	C464.082886,604.057190 496.797546,604.057190 529.678345,604.057190 
	C529.678345,579.779968 529.678345,556.036560 529.678345,531.975220 
	C417.191437,531.975220 304.924835,531.975220 192.118835,531.975220 
	C192.118835,495.289032 192.118835,458.913055 192.118835,421.843048 
	C189.837921,421.843048 188.084641,421.843048 186.331345,421.843048 
	C141.500214,421.843018 96.669090,421.844421 51.837963,421.841919 
	C41.926361,421.841339 39.598454,419.831665 39.504356,409.994263 
	C39.144161,372.337036 38.933708,334.678375 38.707878,297.019958 
	C38.681976,292.701141 38.647472,288.354340 39.078854,284.066986 
	C39.852825,276.374664 45.292934,270.996918 52.906746,270.954193 
	C82.570251,270.787750 112.235390,270.817627 141.899429,270.919312 
	C147.694336,270.939178 152.370514,273.869598 154.641586,279.118256 
	C157.913513,286.679993 163.227966,288.812561 171.080124,287.970032 
	C177.662430,287.263763 184.380737,287.824982 191.443817,287.824982 
	C191.443817,259.259552 191.443817,230.882050 191.443817,201.843033 
	C189.800476,201.843033 188.041306,201.843048 186.282135,201.843033 
	C161.450027,201.842911 136.617889,201.858368 111.785805,201.837555 
	C93.215446,201.821991 82.945747,191.617783 82.942398,173.181000 
	C82.934540,129.849823 82.886131,86.518509 82.980492,43.187527 
	C83.024094,23.168026 95.019623,8.517236 114.484566,4.555605 
	C117.872444,3.866081 121.437386,3.856029 124.920723,3.854103 
	C193.750656,3.816037 262.580597,3.811979 331.410553,3.834623 
	C349.141968,3.840456 359.046204,13.894005 359.057343,31.828018 
	C359.078430,65.826332 359.063721,99.824669 359.063873,133.822998 
	C359.063873,135.629349 359.063843,137.435684 359.063843,139.528168 
	C481.496643,139.528168 603.590759,139.528168 726.273376,139.528168 
	C718.400940,126.845764 716.737610,113.898094 725.632507,101.051910 
	C731.286926,92.885597 739.474792,88.654877 749.260376,87.939270 
	C743.864380,82.869743 738.151428,77.181389 732.096619,71.883904 
	C721.046082,62.215607 717.005798,49.254593 721.423157,36.503117 
	C725.795593,23.881416 737.346497,15.425472 751.665710,15.235934 
	C772.327454,14.962443 792.996399,15.077996 813.660706,15.237005 
	C822.355469,15.303911 829.851257,18.548800 835.840759,25.040554 
	C838.762878,28.207754 841.948120,31.136610 844.804688,34.359142 
	C853.491699,44.158825 856.252014,55.365231 851.310913,67.670746 
	C846.420471,79.850044 836.998535,86.480156 823.918884,87.837418 
	C823.098083,87.922592 822.271301,87.949364 821.204346,88.363670 
	C832.874207,91.219521 838.858093,101.008049 846.131531,108.898544 
	C854.015503,117.451378 855.340027,128.131348 851.967407,139.661911 
	C890.355652,139.661911 928.419495,139.661911 967.121826,139.661911 
	C967.121826,141.933746 967.121765,143.861649 967.121765,145.789551 
	C967.122131,239.451599 967.094910,333.113678 967.246887,426.775482 
	C967.251831,429.806427 968.388550,433.350403 970.180054,435.785339 
	C992.474915,466.088196 1014.687622,496.461365 1037.607300,526.289429 
	C1045.830811,536.991699 1042.669434,549.571655 1032.997437,556.060730 
	C1023.057251,562.729675 1013.735779,570.319275 1004.124695,577.480774 
	C994.000854,585.024353 984.047852,583.527893 976.429993,573.313843 
	C966.974365,560.635620 957.478088,547.986694 948.164612,535.204651 
	C946.428040,532.821472 944.722656,531.769958 941.682373,531.772522 
	C842.020691,531.858032 742.358887,531.842407 642.697144,531.851807 
	C641.391174,531.851929 640.085266,531.982056 638.564575,532.062866 
	C638.564575,556.039429 638.564575,579.806030 638.564575,603.946838 
	C671.372375,603.946838 704.154114,603.946838 737.391235,603.946838 
	C737.391235,621.959778 737.391235,639.601685 737.695618,657.621826 
	C635.979126,658.000000 533.958191,658.000000 431.468658,658.000000 
M959.388611,424.764984 
	C959.916931,423.299133 960.906128,421.833771 960.907532,420.367432 
	C960.982300,343.435150 960.979553,266.502808 960.929382,189.570496 
	C960.928345,188.046204 960.270081,186.522354 959.003723,184.832916 
	C854.482300,184.821503 749.960876,184.809250 645.439453,184.809692 
	C644.283203,184.809692 643.127014,184.975525 641.066284,184.884476 
	C637.617859,184.938324 634.169373,184.992172 629.841614,184.826736 
	C535.548462,184.817520 441.255280,184.808289 346.962097,184.799423 
	C346.295715,184.799362 345.524445,184.589447 344.985168,184.852631 
	C343.914307,185.375229 342.532562,185.931076 342.042389,186.871109 
	C336.389954,197.710663 327.206390,201.873795 315.368073,201.839081 
	C278.217499,201.730103 241.066391,201.799011 203.915497,201.799011 
	C202.010147,201.799011 200.104782,201.799011 198.166321,201.799011 
	C198.166321,230.730682 198.166321,258.866577 198.466171,287.807312 
	C211.635849,287.895386 224.805542,287.983459 238.084793,288.589722 
	C238.134109,288.759247 238.183411,288.928741 238.084976,290.005737 
	C238.084976,295.119232 238.084976,300.232727 238.084976,305.884583 
	C243.354980,305.884583 248.143143,305.884583 253.730515,305.980896 
	C260.502167,306.884857 262.500519,309.430969 261.272034,315.763580 
	C260.831329,318.035431 260.225494,320.280548 259.594940,322.509521 
	C251.250259,352.008057 242.887711,381.501495 234.208847,411.492737 
	C233.398697,412.907196 232.588531,414.321655 231.193192,416.077362 
	C226.998276,421.092255 221.401550,422.624695 215.146744,422.587799 
	C209.554291,422.554810 203.961472,422.580872 198.101837,422.580872 
	C198.101837,436.839233 198.101837,450.459106 198.088120,464.905426 
	C199.935577,465.220856 201.782944,465.811890 203.630508,465.812469 
	C344.255524,465.855347 484.880585,465.853394 625.505615,465.832581 
	C627.303467,465.832306 629.101379,465.544617 631.788757,465.471375 
	C635.149902,465.437744 638.510986,465.404114 642.741699,465.765350 
	C643.239868,465.791565 643.738098,465.840668 644.236267,465.840729 
	C728.085938,465.846649 811.935547,465.849304 895.785217,465.849213 
	C896.782471,465.849213 897.848328,466.015411 898.749268,465.710907 
	C899.232666,465.547546 899.432556,464.545349 899.989563,463.165802 
	C901.671509,459.043579 903.353455,454.921356 905.319153,450.103699 
	C904.209412,448.686981 902.244934,446.491760 900.634338,444.062012 
	C896.537415,437.881165 896.654236,437.951813 889.883972,441.165344 
	C876.078918,447.717865 861.525024,451.877930 846.236450,451.854065 
	C833.187073,451.833710 819.943298,451.704163 807.675354,445.985199 
	C799.382080,442.119141 790.669189,438.907288 782.974854,434.078766 
	C776.552612,430.048523 771.337830,424.094269 765.322144,418.321564 
	C763.226624,416.065216 761.131104,413.808868 758.657104,411.043243 
	C754.425720,404.969879 750.194336,398.896484 745.947693,392.127319 
	C744.708679,389.899750 743.469666,387.672180 742.641785,384.783081 
	C737.153320,371.639160 733.537720,358.128113 734.430786,343.700684 
	C734.747070,338.590546 734.907837,333.470795 735.576538,327.680359 
	C736.053894,324.763397 736.531189,321.846466 737.517456,318.367767 
	C738.753723,313.676270 739.989990,308.984772 741.716919,303.771576 
	C742.457275,301.570007 743.197632,299.368439 744.517273,296.728149 
	C755.184265,275.156830 767.752930,255.032578 788.041199,240.061356 
	C791.051636,238.089630 794.062012,236.117905 797.786926,234.034180 
	C840.794800,211.607422 888.703003,217.145218 923.836609,249.156891 
	C945.773132,269.144165 956.566895,294.720398 959.064514,324.927368 
	C958.203186,334.676758 958.134033,344.576630 956.316467,354.144379 
	C952.474976,374.365814 941.252869,391.191437 929.883179,407.855103 
	C928.965942,409.199463 928.152466,411.734650 928.797058,412.830322 
	C931.554138,417.516785 934.876465,421.870758 938.103394,426.505066 
	C944.813049,422.056519 951.565857,420.185669 959.388611,424.764984 
M358.802338,160.909286 
	C358.797943,161.864075 358.793549,162.818863 358.445740,164.488785 
	C356.774109,169.206192 355.102478,173.923599 353.467133,178.538605 
	C555.317200,178.538605 757.840698,178.538605 960.474243,178.538605 
	C960.474243,167.676163 960.474243,157.110779 960.474243,146.539261 
	C959.706909,146.377426 959.234802,146.190857 958.762573,146.190628 
	C922.930908,146.173386 887.099060,146.142624 851.267883,146.267990 
	C849.800415,146.273117 847.950928,147.424118 846.935730,148.605331 
	C839.917847,156.770416 831.293396,161.236267 820.373718,161.190186 
	C800.708313,161.107193 781.042236,161.131180 761.376587,161.181488 
	C751.085144,161.207825 742.487366,157.449585 736.014648,149.508911 
	C733.851807,146.855576 731.653992,146.106110 728.420959,146.107971 
	C606.926514,146.177765 485.432007,146.166901 363.937500,146.166901 
	C362.333954,146.166901 360.730408,146.166901 359.043610,146.166901 
	C359.043610,151.266190 359.043610,155.748154 358.802338,160.909286 
M103.160126,139.499954 
	C103.160439,145.665405 103.145546,151.830917 103.164131,157.996307 
	C103.207184,172.279327 110.856087,179.987534 124.985199,179.988052 
	C193.473541,179.990616 261.961884,179.990341 330.450226,179.988327 
	C344.959229,179.987900 352.734253,172.322037 352.770660,157.904709 
	C352.807709,143.240631 352.778229,128.576385 352.777649,113.912216 
	C352.776581,86.583534 352.826294,59.254723 352.753754,31.926229 
	C352.714905,17.295797 344.942932,9.439314 330.735779,9.437629 
	C262.580719,9.429543 194.425644,9.424182 126.270576,9.442159 
	C111.051178,9.446174 103.166641,17.352457 103.162842,32.518009 
	C103.153984,67.845329 103.160118,103.172646 103.160126,139.499954 
M480.499939,504.823914 
	C628.453796,504.823914 776.407654,504.823914 925.599792,504.823914 
	C917.640686,493.889282 910.554504,484.475952 903.875488,474.782043 
	C901.863159,471.861237 899.936768,470.750671 896.340515,470.752289 
	C665.243591,470.854584 434.146667,470.844574 203.049713,470.844574 
	C201.453400,470.844574 199.857086,470.844574 198.320892,470.844574 
	C198.320892,482.461823 198.320892,493.520233 198.320892,504.823914 
	C292.270081,504.823914 385.884979,504.823914 480.499939,504.823914 
M60.970657,359.514282 
	C55.762295,377.818451 50.553932,396.122589 45.185024,414.990967 
	C47.816330,415.209442 49.440083,415.452942 51.065342,415.463409 
	C105.677963,415.815765 160.290695,416.154327 214.903534,416.471130 
	C224.137131,416.524719 227.290710,413.956543 229.795761,405.115997 
	C236.632843,380.987366 243.576828,356.889069 250.452026,332.771210 
	C252.298416,326.294098 254.050339,319.790100 256.037750,312.603760 
	C253.239868,312.423889 251.321198,312.193451 249.402420,312.192780 
	C195.412781,312.173431 141.423141,312.177216 87.433510,312.177887 
	C86.267128,312.177917 85.097206,312.128754 83.934944,312.200195 
	C76.860268,312.635162 73.871231,315.056183 71.874741,321.896698 
	C68.291908,334.172455 64.702805,346.446350 60.970657,359.514282 
M536.009094,558.500000 
	C536.009094,573.585144 536.009094,588.670349 536.009094,603.777466 
	C568.291931,603.777466 600.021790,603.777466 631.939209,603.777466 
	C631.939209,572.854614 631.939209,542.145203 631.939209,511.307159 
	C599.901428,511.307159 568.054016,511.307159 536.253784,511.307159 
	C536.140320,511.917786 536.031189,512.232056 536.030884,512.546387 
	C536.017761,527.530945 536.013916,542.515442 536.009094,558.500000 
M990.584717,471.932312 
	C981.406677,459.684662 972.295288,447.386230 963.027161,435.207153 
	C956.802490,427.027527 951.519958,426.362854 943.130920,432.465668 
	C938.022339,436.182007 933.071472,440.117767 927.920044,443.772186 
	C919.768677,449.554749 918.674927,455.936340 924.633728,464.008331 
	C948.440918,496.258301 972.244934,528.510620 996.047729,560.763855 
	C1000.947327,567.402954 1006.847534,568.274475 1013.585999,563.198486 
	C1019.565369,558.694458 1025.454590,554.070557 1031.376831,549.490967 
	C1037.852051,544.483826 1038.837646,536.897461 1033.862793,530.195618 
	C1019.585327,510.961731 1005.296326,491.736420 990.584717,471.932312 
M588.499634,633.487366 
	C635.908081,633.487366 683.316589,633.487366 730.747681,633.487366 
	C730.747681,625.468933 730.747681,617.929626 730.747681,610.429321 
	C632.849609,610.429321 535.321960,610.429321 437.538513,610.429321 
	C437.538513,618.095581 437.538513,625.505005 437.538513,632.805115 
	C438.038727,633.074524 438.325104,633.363770 438.611786,633.364075 
	C488.241028,633.418701 537.870300,633.452637 588.499634,633.487366 
M921.867737,256.625031 
	C897.438110,233.086441 868.017761,223.626389 834.886597,228.764267 
	C786.598999,236.252533 753.573059,272.282867 748.411316,322.953339 
	C744.473572,361.608734 761.088806,392.428101 791.801270,414.571503 
	C824.855408,438.403168 860.874329,439.413147 897.518311,422.181000 
	C904.591187,418.854889 906.532959,419.293335 911.101379,425.873047 
	C914.303406,430.484894 917.716003,434.950531 921.130249,439.612091 
	C925.416016,436.387390 929.364807,433.416290 933.601929,430.228210 
	C929.711548,424.837494 926.053833,419.505859 922.112793,414.392639 
	C919.024048,410.385376 919.418091,407.152191 922.744324,403.368073 
	C928.006165,397.381927 933.476562,391.396118 937.639282,384.656921 
	C962.834229,343.867462 956.355530,290.992645 921.867737,256.625031 
M784.500000,22.004068 
	C773.346863,22.011976 762.188965,21.815311 751.041870,22.079338 
	C736.964355,22.412777 726.022705,33.326466 725.971680,46.652939 
	C725.916382,61.101238 736.166687,72.415695 750.582275,72.692154 
	C771.382874,73.091080 792.202148,73.110855 813.002625,72.718597 
	C827.839600,72.438805 839.182800,60.712437 838.856750,47.071796 
	C838.515625,32.795773 827.082825,22.110409 811.968079,22.014372 
	C803.145752,21.958315 794.322693,22.004105 784.500000,22.004068 
M744.951721,95.037254 
	C744.322815,95.250206 743.693542,95.462097 743.065063,95.676262 
	C730.689087,99.893372 723.869385,111.354744 726.069580,124.238876 
	C728.163513,136.500198 738.314575,144.972504 751.034241,144.988678 
	C772.011108,145.015335 792.997803,145.342743 813.957642,144.746048 
	C819.042908,144.601257 824.810913,142.380005 828.919128,139.311600 
	C837.923401,132.586273 840.512024,121.703300 836.961914,111.604904 
	C833.256409,101.064407 824.318359,94.474937 812.653809,94.240746 
	C800.838196,94.003517 789.013428,94.082954 777.194458,94.201561 
	C766.721069,94.306656 756.250244,94.656059 744.951721,95.037254 
M105.500000,304.988525 
	C147.586197,304.988525 189.672409,304.988525 231.659546,304.988525 
	C231.659546,300.895111 231.659546,297.479095 231.659546,294.125732 
	C174.255051,294.125732 117.180130,294.125732 60.047932,294.125732 
	C60.047932,308.083099 60.047932,321.709595 60.047932,335.336060 
	C62.323471,329.900208 63.831020,324.339294 65.507309,318.829742 
	C68.222931,309.904083 74.656769,305.102203 84.002983,305.003204 
	C90.834602,304.930847 97.667610,304.988708 105.500000,304.988525 
M990.874329,575.927917 
	C994.564392,575.966614 998.138123,575.759766 999.569458,572.874817 
	C996.004211,569.145020 992.551270,566.193359 989.893677,562.645752 
	C971.943848,538.685425 953.808777,514.850037 936.477600,490.445862 
	C927.980042,478.480469 916.532288,468.228973 912.954346,453.104156 
	C906.053528,458.089447 904.887268,465.110535 909.986633,472.057587 
	C933.913025,504.653931 957.837891,537.251953 981.958984,569.703918 
	C983.905029,572.322144 987.330566,573.840759 990.874329,575.927917 
z"/>
<path fill="#3B82F6" opacity="1.000000" stroke="none" 
	d="
M198.166321,287.002441 
	C198.166321,258.866577 198.166321,230.730682 198.166321,201.799011 
	C200.104782,201.799011 202.010147,201.799011 203.915497,201.799011 
	C241.066391,201.799011 278.217499,201.730103 315.368073,201.839081 
	C327.206390,201.873795 336.389954,197.710663 342.042389,186.871109 
	C342.532562,185.931076 343.914307,185.375229 344.985168,184.852631 
	C345.524445,184.589447 346.295715,184.799362 346.962097,184.799423 
	C441.255280,184.808289 535.548462,184.817520 630.305054,185.399734 
	C630.772583,276.998322 630.778320,368.023895 630.768494,459.049469 
	C630.768311,460.703918 630.583008,462.358368 630.054321,464.020508 
	C627.460510,464.042694 625.296509,464.069824 623.132446,464.069885 
	C481.455566,464.074280 339.778717,464.076538 198.101837,464.078949 
	C198.101837,450.459106 198.101837,436.839233 198.101837,422.580872 
	C203.961472,422.580872 209.554291,422.554810 215.146744,422.587799 
	C221.401550,422.624695 226.998276,421.092255 231.590744,416.335480 
	C233.603424,417.034943 235.217819,417.858459 236.833771,417.861572 
	C274.321228,417.934082 311.808838,417.920441 349.296448,417.906769 
	C350.753998,417.906219 352.211487,417.747040 353.757080,417.656616 
	C353.757080,415.458008 353.757080,413.583374 353.757080,411.288422 
	C351.413544,411.288422 349.440948,411.288391 347.468353,411.288391 
	C312.979767,411.288391 278.491180,411.295990 244.002579,411.275696 
	C240.844879,411.273834 237.687271,411.093597 234.529633,410.996185 
	C242.887711,381.501495 251.250259,352.008057 259.594940,322.509521 
	C260.225494,320.280548 260.831329,318.035431 261.272034,315.763580 
	C262.500519,309.430969 260.502167,306.884857 253.237610,305.552673 
	C249.561203,304.773102 246.374619,304.121887 243.195084,304.154572 
	C239.998657,304.187378 238.749908,303.205841 238.843765,299.889465 
	C238.945312,296.301025 238.461304,292.696045 238.232697,289.098267 
	C238.183411,288.928741 238.134109,288.759247 237.787964,287.983215 
	C224.382858,287.251953 211.274597,287.127197 198.166321,287.002441 
M607.603271,266.434448 
	C607.603271,246.705536 607.603271,226.976608 607.603271,207.341125 
	C563.374878,207.341125 519.989624,207.341125 476.525970,207.341125 
	C476.525970,230.583618 476.525970,253.476639 476.525970,276.562805 
	C520.221802,276.562805 563.593384,276.562805 607.602356,276.562805 
	C607.602356,273.318604 607.602356,270.364502 607.603271,266.434448 
M236.694550,234.082413 
	C235.242325,234.170029 233.790085,234.257660 232.338882,234.345215 
	C232.338882,236.581512 232.338882,238.459167 232.338882,240.277985 
	C297.055695,240.277985 361.387299,240.277985 425.707336,240.277985 
	C425.707336,238.083481 425.707336,236.326004 425.707336,234.082443 
	C362.823303,234.082443 300.238647,234.082443 236.694550,234.082413 
M390.500000,317.999481 
	C431.931122,317.999481 473.362213,317.999481 514.757568,317.999481 
	C514.757568,315.695312 514.757568,314.084290 514.757568,312.269043 
	C441.449097,312.269043 368.375885,312.269043 295.228760,312.269043 
	C295.228760,314.252289 295.228760,315.962494 295.228760,317.999481 
	C326.884827,317.999481 358.192413,317.999481 390.500000,317.999481 
M311.500000,439.000092 
	C349.408569,439.000092 387.317169,439.000092 425.359253,439.000092 
	C425.359253,436.738159 425.359253,435.029572 425.359253,433.264313 
	C360.801514,433.264313 296.606476,433.264313 232.332733,433.264313 
	C232.332733,435.247345 232.332733,436.961639 232.332733,439.000092 
	C258.605103,439.000092 284.552551,439.000092 311.500000,439.000092 
M344.500000,339.147186 
	C384.712036,339.147186 424.924042,339.147186 465.271790,339.147186 
	C465.271790,336.774506 465.271790,335.052216 465.271790,333.378723 
	C408.771118,333.378723 352.618042,333.378723 296.182526,333.378723 
	C296.269745,335.373779 296.339813,336.976654 296.434723,339.147278 
	C312.311676,339.147278 327.905823,339.147278 344.500000,339.147186 
M386.492493,287.938843 
	C384.912750,287.665894 383.333252,287.156494 381.753204,287.154602 
	C344.488464,287.109924 307.223724,287.116577 269.958954,287.132629 
	C268.518188,287.133240 267.077454,287.319977 265.679138,287.417053 
	C265.679138,289.508942 265.679138,291.204620 265.679138,292.862854 
	C266.605927,293.002289 267.096283,293.140503 267.586700,293.140717 
	C306.015869,293.157013 344.445221,293.117371 382.873993,293.242920 
	C386.473236,293.254669 387.182404,291.767059 386.492493,287.938843 
M348.369904,213.000641 
	C309.750885,213.000641 271.131866,213.000641 232.284821,213.000641 
	C232.284821,215.162979 232.284821,216.877625 232.284821,218.692200 
	C272.962585,218.692200 313.362213,218.692200 353.880249,218.692200 
	C353.880249,216.773514 353.880249,215.164230 353.880249,213.255463 
	C352.248810,213.164017 350.792114,213.082352 348.369904,213.000641 
M289.500000,387.919373 
	C310.924622,387.919373 332.349274,387.919373 353.911804,387.919373 
	C353.911804,385.468536 353.911804,383.685394 353.911804,381.642456 
	C324.324341,381.642456 294.959503,381.642456 265.624084,381.642456 
	C265.624084,383.880890 265.624084,385.756134 265.624084,387.919281 
	C273.541595,387.919281 281.020813,387.919281 289.500000,387.919373 
M326.500000,366.714020 
	C335.562347,366.714020 344.624664,366.714020 353.690552,366.714020 
	C353.690552,364.123962 353.690552,362.366211 353.690552,360.484283 
	C324.102539,360.484283 294.803528,360.484283 265.485382,360.484283 
	C265.485382,362.646515 265.485382,364.402527 265.485382,366.713562 
	C285.688873,366.713562 305.594421,366.713562 326.500000,366.714020 
M350.318115,265.853485 
	C322.073944,265.853485 293.829773,265.853485 265.230286,265.853485 
	C265.356018,268.396790 265.440552,270.107483 265.516052,271.634888 
	C295.383209,271.634888 324.628601,271.634888 353.874023,271.634888 
	C354.238129,271.213989 354.602203,270.793060 354.966309,270.372162 
	C353.736511,268.867340 352.506714,267.362518 350.318115,265.853485 
z"/>
<path fill="#3B82F6" opacity="1.000000" stroke="none" 
	d="
M959.184570,323.997162 
	C956.566895,294.720398 945.773132,269.144165 923.836609,249.156891 
	C888.703003,217.145218 840.794800,211.607422 796.957458,234.055023 
	C756.246277,234.075867 716.364563,234.075867 676.398682,234.075867 
	C676.398682,236.295944 676.398682,238.018433 676.398682,240.146637 
	C678.685974,240.146637 680.653137,240.143784 682.620300,240.147079 
	C717.559692,240.205582 752.499023,240.264801 787.438416,240.323883 
	C767.752930,255.032578 755.184265,275.156830 743.764404,296.979645 
	C720.944702,297.231140 698.877991,297.231140 676.628113,297.231140 
	C676.628113,299.678772 676.628113,301.523438 676.628113,303.748413 
	C696.310303,303.748413 715.572815,303.731476 734.835144,303.772339 
	C736.965881,303.776855 739.095947,304.111633 741.226318,304.293274 
	C739.989990,308.984772 738.753723,313.676270 736.796997,318.708099 
	C716.325623,319.048431 696.574707,319.048431 676.598877,319.048431 
	C676.598877,321.517975 676.598877,323.385498 676.598877,325.717377 
	C678.750000,325.717377 680.549988,325.717377 682.349976,325.717377 
	C698.490417,325.717560 714.631165,325.677307 730.770996,325.777008 
	C732.489136,325.787598 735.484680,324.493195 735.139526,328.355408 
	C734.907837,333.470795 734.747070,338.590546 734.430786,343.700684 
	C733.537720,358.128113 737.153320,371.639160 742.005127,385.354187 
	C719.774719,385.925323 698.180969,385.925323 676.337402,385.925323 
	C676.337402,388.479614 676.337402,390.352325 676.337402,392.823120 
	C699.759644,392.823120 722.861267,392.823120 745.962952,392.823120 
	C750.194336,398.896484 754.425720,404.969879 758.657349,411.696106 
	C756.858337,412.517120 755.059326,412.829132 753.259949,412.831604 
	C729.443176,412.864258 705.626343,412.853363 681.809570,412.853363 
	C680.034424,412.853363 678.259216,412.853394 676.402710,412.853394 
	C676.402710,415.205261 676.402710,416.924866 676.402710,418.992065 
	C706.348938,418.992065 735.968628,418.992065 765.588318,418.992065 
	C771.337830,424.094269 776.552612,430.048523 782.974854,434.078766 
	C790.669189,438.907288 799.382080,442.119141 807.675354,445.985199 
	C819.943298,451.704163 833.187073,451.833710 846.236450,451.854065 
	C861.525024,451.877930 876.078918,447.717865 889.883972,441.165344 
	C896.654236,437.951813 896.537415,437.881165 900.634338,444.062012 
	C902.244934,446.491760 904.209412,448.686981 905.319153,450.103699 
	C903.353455,454.921356 901.671509,459.043579 899.544556,463.729004 
	C896.348389,464.218811 893.597351,464.081116 890.846252,464.081329 
	C807.940247,464.087433 725.034302,464.107147 642.037781,463.655640 
	C641.955078,370.479004 641.962891,277.771484 641.970764,185.063950 
	C643.127014,184.975525 644.283203,184.809692 645.439453,184.809692 
	C749.960876,184.809250 854.482300,184.821503 959.488647,185.385010 
	C959.979004,206.207062 960.008606,226.477066 959.983582,246.746994 
	C959.951782,272.496735 959.875671,298.246399 959.660095,323.996521 
	C959.501587,323.996979 959.184570,323.997162 959.184570,323.997162 
M915.499390,212.999847 
	C835.917358,212.999847 756.335266,212.999847 676.738647,212.999847 
	C676.738647,215.350952 676.738647,217.062592 676.738647,218.700073 
	C762.733459,218.700073 848.321106,218.700073 934.264771,218.700073 
	C934.164917,216.671738 934.080750,214.962860 933.984009,212.999847 
	C927.796143,212.999847 922.147461,212.999847 915.499390,212.999847 
z"/>
<path fill="#3C82F5" opacity="1.000000" stroke="none" 
	d="
M103.160156,138.999969 
	C103.160118,103.172646 103.153984,67.845329 103.162842,32.518009 
	C103.166641,17.352457 111.051178,9.446174 126.270576,9.442159 
	C194.425644,9.424182 262.580719,9.429543 330.735779,9.437629 
	C344.942932,9.439314 352.714905,17.295797 352.753754,31.926229 
	C352.826294,59.254723 352.776581,86.583534 352.777649,113.912216 
	C352.778229,128.576385 352.807709,143.240631 352.770660,157.904709 
	C352.734253,172.322037 344.959229,179.987900 330.450226,179.988327 
	C261.961884,179.990341 193.473541,179.990616 124.985199,179.988052 
	C110.856087,179.987534 103.207184,172.279327 103.164131,157.996307 
	C103.145546,151.830917 103.160439,145.665405 103.160156,138.999969 
M241.452255,78.500557 
	C241.452255,98.245010 241.452255,117.989464 241.452255,137.768219 
	C244.016296,137.768219 245.786407,137.768219 248.036148,137.768219 
	C248.036148,130.078903 247.978592,122.620178 248.049042,115.162666 
	C248.168137,102.551964 256.877106,93.807747 269.379059,93.620407 
	C270.707458,93.600502 272.033783,93.438271 273.814087,93.309227 
	C266.575256,84.906715 266.123627,76.266357 272.099091,69.829338 
	C277.336792,64.187065 286.757690,63.088104 292.458191,68.216568 
	C295.115936,70.607597 297.004852,74.296303 298.213867,77.756172 
	C300.302338,83.732628 296.739197,88.471008 293.034668,93.095390 
	C293.937653,93.352631 294.380951,93.570618 294.834595,93.594887 
	C311.194427,94.470070 318.097809,101.734283 318.151184,118.181046 
	C318.172119,124.637512 318.154602,131.094086 318.154602,137.724014 
	C320.609406,137.724014 322.510437,137.724014 324.423889,137.724014 
	C324.423889,111.082726 324.423889,84.725517 324.423889,58.148739 
	C297.310394,58.148739 270.652710,58.146404 243.995056,58.162941 
	C243.363113,58.163334 242.731308,58.375252 241.452621,58.604446 
	C241.452621,64.920372 241.452621,71.210678 241.452255,78.500557 
M174.500000,83.878578 
	C190.913147,83.878578 207.326294,83.878578 224.036560,83.878578 
	C223.918137,81.465233 223.839783,79.868637 223.755432,78.149506 
	C191.841217,78.149506 160.275955,78.149506 128.641418,78.149506 
	C128.641418,80.172203 128.641418,81.870811 128.641418,83.878471 
	C143.871445,83.878471 158.685715,83.878471 174.500000,83.878578 
M174.500000,52.997677 
	C159.240875,52.997677 143.981735,52.997677 128.615402,52.997677 
	C128.615402,55.273941 128.615402,56.980652 128.615402,58.639633 
	C154.189285,58.639633 179.393753,58.639633 204.594330,58.639633 
	C204.594330,56.678493 204.594330,55.082245 204.594330,52.997677 
	C194.725189,52.997677 185.112595,52.997677 174.500000,52.997677 
M152.500000,105.880478 
	C169.874222,105.880478 187.248444,105.880478 204.952332,105.880478 
	C204.804504,103.421608 204.709198,101.836296 204.608887,100.167511 
	C179.041306,100.167511 153.855606,100.167511 128.251419,100.167511 
	C128.342194,102.224373 128.417160,103.922958 128.503555,105.880379 
	C136.556152,105.880379 144.028091,105.880379 152.500000,105.880478 
z"/>
<path fill="#FEFEFE" opacity="1.000000" stroke="none" 
	d="
M479.999908,504.823914 
	C385.884979,504.823914 292.270081,504.823914 198.320892,504.823914 
	C198.320892,493.520233 198.320892,482.461823 198.320892,470.844574 
	C199.857086,470.844574 201.453400,470.844574 203.049713,470.844574 
	C434.146667,470.844574 665.243591,470.854584 896.340515,470.752289 
	C899.936768,470.750671 901.863159,471.861237 903.875488,474.782043 
	C910.554504,484.475952 917.640686,493.889282 925.599792,504.823914 
	C776.407654,504.823914 628.453796,504.823914 479.999908,504.823914 
M277.446686,477.847961 
	C256.088531,477.847961 234.730362,477.847961 213.352371,477.847961 
	C213.352371,484.544434 213.352371,490.448303 213.352371,496.462708 
	C237.624588,496.462708 261.599762,496.462708 285.589355,496.462708 
	C285.589355,490.149689 285.589355,484.239746 285.589355,477.847839 
	C283.002869,477.847839 280.714355,477.847839 277.446686,477.847961 
z"/>
<path fill="#FEFEFE" opacity="1.000000" stroke="none" 
	d="
M61.043488,359.117676 
	C64.702805,346.446350 68.291908,334.172455 71.874741,321.896698 
	C73.871231,315.056183 76.860268,312.635162 83.934944,312.200195 
	C85.097206,312.128754 86.267128,312.177917 87.433510,312.177887 
	C141.423141,312.177216 195.412781,312.173431 249.402420,312.192780 
	C251.321198,312.193451 253.239868,312.423889 256.037750,312.603760 
	C254.050339,319.790100 252.298416,326.294098 250.452026,332.771210 
	C243.576828,356.889069 236.632843,380.987366 229.795761,405.115997 
	C227.290710,413.956543 224.137131,416.524719 214.903534,416.471130 
	C160.290695,416.154327 105.677963,415.815765 51.065342,415.463409 
	C49.440083,415.452942 47.816330,415.209442 45.185024,414.990967 
	C50.553932,396.122589 55.762295,377.818451 61.043488,359.117676 
z"/>
<path fill="#FAFAFA" opacity="1.000000" stroke="none" 
	d="
M359.043610,160.230118 
	C359.043610,155.748154 359.043610,151.266190 359.043610,146.166901 
	C360.730408,146.166901 362.333954,146.166901 363.937500,146.166901 
	C485.432007,146.166901 606.926514,146.177765 728.420959,146.107971 
	C731.653992,146.106110 733.851807,146.855576 736.014648,149.508911 
	C742.487366,157.449585 751.085144,161.207825 761.376587,161.181488 
	C781.042236,161.131180 800.708313,161.107193 820.373718,161.190186 
	C831.293396,161.236267 839.917847,156.770416 846.935730,148.605331 
	C847.950928,147.424118 849.800415,146.273117 851.267883,146.267990 
	C887.099060,146.142624 922.930908,146.173386 958.762573,146.190628 
	C959.234802,146.190857 959.706909,146.377426 960.474243,146.539261 
	C960.474243,157.110779 960.474243,167.676163 960.474243,178.538605 
	C757.840698,178.538605 555.317200,178.538605 353.467133,178.538605 
	C355.102478,173.923599 356.774109,169.206192 359.095276,164.199554 
	C373.189331,163.925079 386.633850,163.941193 400.078400,163.953766 
	C404.062012,163.957489 408.049713,164.045929 412.026093,163.875687 
	C412.901978,163.838196 413.737885,162.866821 414.592194,162.325470 
	C413.836090,161.639008 413.183655,160.645050 412.296875,160.345963 
	C411.250061,159.992905 410.000610,160.229721 408.838989,160.229599 
	C392.240540,160.227905 375.642059,160.229401 359.043610,160.230118 
M903.614746,171.851974 
	C909.201965,171.851974 914.789124,171.851974 920.501099,171.851974 
	C920.501099,165.210495 920.501099,159.188995 920.501099,153.158340 
	C912.563293,153.158340 905.005981,153.158340 897.376953,153.158340 
	C897.376953,159.481232 897.376953,165.499954 897.376953,171.851822 
	C899.383057,171.851822 901.018188,171.851822 903.614746,171.851974 
M883.309509,171.855301 
	C884.927368,171.855301 886.545227,171.855301 888.362122,171.855301 
	C888.362122,165.262253 888.362122,159.226929 888.362122,153.222595 
	C880.392212,153.222595 872.818054,153.222595 865.194763,153.222595 
	C865.194763,159.510056 865.194763,165.427048 865.194763,171.855164 
	C871.105530,171.855164 876.730835,171.855164 883.309509,171.855301 
M928.133240,155.766052 
	C928.133240,161.007477 928.133240,166.248901 928.133240,171.559158 
	C936.427002,171.559158 943.978516,171.559158 951.653931,171.559158 
	C951.653931,165.232147 951.653931,159.203415 951.653931,152.866165 
	C944.524170,152.866165 937.737915,152.790314 930.957336,152.953217 
	C930.009888,152.975967 929.090637,154.171387 928.133240,155.766052 
M459.500000,163.951477 
	C468.467468,163.950958 477.435852,164.011108 486.401306,163.877213 
	C487.593384,163.859406 488.770752,162.856308 489.954956,162.309540 
	C488.738403,161.617920 487.526123,160.332535 486.304688,160.323807 
	C468.204590,160.194412 450.103119,160.200363 432.002838,160.316299 
	C430.889038,160.323425 429.782837,161.514572 428.673126,162.154846 
	C429.814026,162.753448 430.946655,163.852158 432.097107,163.871124 
	C440.896118,164.016281 449.698608,163.951172 459.500000,163.951477 
z"/>
<path fill="#FFFFFF" opacity="1.000000" stroke="none" 
	d="
M536.009094,558.000000 
	C536.013916,542.515442 536.017761,527.530945 536.030884,512.546387 
	C536.031189,512.232056 536.140320,511.917786 536.253784,511.307159 
	C568.054016,511.307159 599.901428,511.307159 631.939209,511.307159 
	C631.939209,542.145203 631.939209,572.854614 631.939209,603.777466 
	C600.021790,603.777466 568.291931,603.777466 536.009094,603.777466 
	C536.009094,588.670349 536.009094,573.585144 536.009094,558.000000 
z"/>
<path fill="#FDFDFD" opacity="1.000000" stroke="none" 
	d="
M990.798340,472.220032 
	C1005.296326,491.736420 1019.585327,510.961731 1033.862793,530.195618 
	C1038.837646,536.897461 1037.852051,544.483826 1031.376831,549.490967 
	C1025.454590,554.070557 1019.565369,558.694458 1013.585999,563.198486 
	C1006.847534,568.274475 1000.947327,567.402954 996.047729,560.763855 
	C972.244934,528.510620 948.440918,496.258301 924.633728,464.008331 
	C918.674927,455.936340 919.768677,449.554749 927.920044,443.772186 
	C933.071472,440.117767 938.022339,436.182007 943.130920,432.465668 
	C951.519958,426.362854 956.802490,427.027527 963.027161,435.207153 
	C972.295288,447.386230 981.406677,459.684662 990.798340,472.220032 
z"/>
<path fill="#FCFCFC" opacity="1.000000" stroke="none" 
	d="
M587.999634,633.487366 
	C537.870300,633.452637 488.241028,633.418701 438.611786,633.364075 
	C438.325104,633.363770 438.038727,633.074524 437.538513,632.805115 
	C437.538513,625.505005 437.538513,618.095581 437.538513,610.429321 
	C535.321960,610.429321 632.849609,610.429321 730.747681,610.429321 
	C730.747681,617.929626 730.747681,625.468933 730.747681,633.487366 
	C683.316589,633.487366 635.908081,633.487366 587.999634,633.487366 
z"/>
<path fill="#F9F9F9" opacity="1.000000" stroke="none" 
	d="
M922.122437,256.873352 
	C956.355530,290.992645 962.834229,343.867462 937.639282,384.656921 
	C933.476562,391.396118 928.006165,397.381927 922.744324,403.368073 
	C919.418091,407.152191 919.024048,410.385376 922.112793,414.392639 
	C926.053833,419.505859 929.711548,424.837494 933.601929,430.228210 
	C929.364807,433.416290 925.416016,436.387390 921.130249,439.612091 
	C917.716003,434.950531 914.303406,430.484894 911.101379,425.873047 
	C906.532959,419.293335 904.591187,418.854889 897.518311,422.181000 
	C860.874329,439.413147 824.855408,438.403168 791.801270,414.571503 
	C761.088806,392.428101 744.473572,361.608734 748.411316,322.953339 
	C753.573059,272.282867 786.598999,236.252533 834.886597,228.764267 
	C868.017761,223.626389 897.438110,233.086441 922.122437,256.873352 
M806.791626,248.217072 
	C770.327393,269.683685 752.208252,306.973907 758.993896,346.587769 
	C770.130310,411.600830 845.376038,444.585602 900.349548,408.707855 
	C936.615662,385.039307 950.620850,340.986023 938.651550,302.890717 
	C920.932434,246.495010 860.377747,221.408859 806.791626,248.217072 
z"/>
<path fill="#FCFCFD" opacity="1.000000" stroke="none" 
	d="
M785.000000,22.004070 
	C794.322693,22.004105 803.145752,21.958315 811.968079,22.014372 
	C827.082825,22.110409 838.515625,32.795773 838.856750,47.071796 
	C839.182800,60.712437 827.839600,72.438805 813.002625,72.718597 
	C792.202148,73.110855 771.382874,73.091080 750.582275,72.692154 
	C736.166687,72.415695 725.916382,61.101238 725.971680,46.652939 
	C726.022705,33.326466 736.964355,22.412777 751.041870,22.079338 
	C762.188965,21.815311 773.346863,22.011976 785.000000,22.004070 
M759.253052,28.916971 
	C758.596130,28.822319 757.939636,28.724051 757.282166,28.633566 
	C748.126343,27.373524 739.852234,33.204895 738.192688,42.086288 
	C736.437561,51.479733 742.263672,60.484165 751.374817,62.459396 
	C759.917175,64.311333 768.436584,59.154411 771.125916,50.503708 
	C773.965881,41.368553 769.814575,33.358929 759.253052,28.916971 
z"/>
<path fill="#FCFCFC" opacity="1.000000" stroke="none" 
	d="
M745.364990,94.967430 
	C756.250244,94.656059 766.721069,94.306656 777.194458,94.201561 
	C789.013428,94.082954 800.838196,94.003517 812.653809,94.240746 
	C824.318359,94.474937 833.256409,101.064407 836.961914,111.604904 
	C840.512024,121.703300 837.923401,132.586273 828.919128,139.311600 
	C824.810913,142.380005 819.042908,144.601257 813.957642,144.746048 
	C792.997803,145.342743 772.011108,145.015335 751.034241,144.988678 
	C738.314575,144.972504 728.163513,136.500198 726.069580,124.238876 
	C723.869385,111.354744 730.689087,99.893372 743.065063,95.676262 
	C743.693542,95.462097 744.322815,95.250206 745.364990,94.967430 
M792.978333,128.212433 
	C797.556519,135.293228 803.799683,138.252151 811.023010,136.764709 
	C818.080383,135.311447 823.642090,129.335831 824.756287,122.009308 
	C825.764587,115.379166 822.195557,108.299980 816.081055,104.801605 
	C809.709778,101.156311 802.519165,101.976707 796.658569,107.017708 
	C790.869995,111.996658 789.538879,118.832146 792.978333,128.212433 
z"/>
<path fill="#FCFDFF" opacity="1.000000" stroke="none" 
	d="
M641.518555,184.974213 
	C641.962891,277.771484 641.955078,370.479004 641.942017,463.857056 
	C641.701416,464.791901 641.679871,465.072876 641.872131,465.370483 
	C638.510986,465.404114 635.149902,465.437744 631.290527,465.071655 
	C630.689575,464.452271 630.586853,464.232544 630.484070,464.012817 
	C630.583008,462.358368 630.768311,460.703918 630.768494,459.049469 
	C630.778320,368.023895 630.772583,276.998322 630.744690,185.509369 
	C634.169373,184.992172 637.617859,184.938324 641.518555,184.974213 
z"/>
<path fill="#3B82F5" opacity="1.000000" stroke="none" 
	d="
M105.000000,304.988525 
	C97.667610,304.988708 90.834602,304.930847 84.002983,305.003204 
	C74.656769,305.102203 68.222931,309.904083 65.507309,318.829742 
	C63.831020,324.339294 62.323471,329.900208 60.047932,335.336060 
	C60.047932,321.709595 60.047932,308.083099 60.047932,294.125732 
	C117.180130,294.125732 174.255051,294.125732 231.659546,294.125732 
	C231.659546,297.479095 231.659546,300.895111 231.659546,304.988525 
	C189.672409,304.988525 147.586197,304.988525 105.000000,304.988525 
z"/>
<path fill="#3F82EF" opacity="1.000000" stroke="none" 
	d="
M990.471436,575.899109 
	C987.330566,573.840759 983.905029,572.322144 981.958984,569.703918 
	C957.837891,537.251953 933.913025,504.653931 909.986633,472.057587 
	C904.887268,465.110535 906.053528,458.089447 912.954346,453.104156 
	C916.532288,468.228973 927.980042,478.480469 936.477600,490.445862 
	C953.808777,514.850037 971.943848,538.685425 989.893677,562.645752 
	C992.551270,566.193359 996.004211,569.145020 999.569458,572.874817 
	C998.138123,575.759766 994.564392,575.966614 990.471436,575.899109 
z"/>
<path fill="#3C81F3" opacity="1.000000" stroke="none" 
	d="
M959.124512,324.462280 
	C959.184570,323.997162 959.501587,323.996979 959.708374,324.463379 
	C959.942322,356.170013 959.988647,387.410278 959.948486,418.650452 
	C959.946106,420.500549 959.248657,422.349762 958.874634,424.199371 
	C951.565857,420.185669 944.813049,422.056519 938.103394,426.505066 
	C934.876465,421.870758 931.554138,417.516785 928.797058,412.830322 
	C928.152466,411.734650 928.965942,409.199463 929.883179,407.855103 
	C941.252869,391.191437 952.474976,374.365814 956.316467,354.144379 
	C958.134033,344.576630 958.203186,334.676758 959.124512,324.462280 
z"/>
<path fill="#7694C5" opacity="1.000000" stroke="none" 
	d="
M630.054321,464.020508 
	C630.586853,464.232544 630.689575,464.452271 630.845703,465.031494 
	C629.101379,465.544617 627.303467,465.832306 625.505615,465.832581 
	C484.880585,465.853394 344.255524,465.855347 203.630508,465.812469 
	C201.782944,465.811890 199.935577,465.220856 198.094971,464.492188 
	C339.778717,464.076538 481.455566,464.074280 623.132446,464.069885 
	C625.296509,464.069824 627.460510,464.042694 630.054321,464.020508 
z"/>
<path fill="#EAF2FE" opacity="1.000000" stroke="none" 
	d="
M234.369232,411.244446 
	C237.687271,411.093597 240.844879,411.273834 244.002579,411.275696 
	C278.491180,411.295990 312.979767,411.288391 347.468353,411.288391 
	C349.440948,411.288391 351.413544,411.288422 353.757080,411.288422 
	C353.757080,413.583374 353.757080,415.458008 353.757080,417.656616 
	C352.211487,417.747040 350.753998,417.906219 349.296448,417.906769 
	C311.808838,417.920441 274.321228,417.934082 236.833771,417.861572 
	C235.217819,417.858459 233.603424,417.034943 231.883331,416.164856 
	C232.588531,414.321655 233.398697,412.907196 234.369232,411.244446 
z"/>
<path fill="#FEFEFF" opacity="1.000000" stroke="none" 
	d="
M787.739807,240.192627 
	C752.499023,240.264801 717.559692,240.205582 682.620300,240.147079 
	C680.653137,240.143784 678.685974,240.146637 676.398682,240.146637 
	C676.398682,238.018433 676.398682,236.295944 676.398682,234.075867 
	C716.364563,234.075867 756.246277,234.075867 796.600220,234.111023 
	C794.062012,236.117905 791.051636,238.089630 787.739807,240.192627 
z"/>
<path fill="#FEFEFF" opacity="1.000000" stroke="none" 
	d="
M765.455200,418.656799 
	C735.968628,418.992065 706.348938,418.992065 676.402710,418.992065 
	C676.402710,416.924866 676.402710,415.205261 676.402710,412.853394 
	C678.259216,412.853394 680.034424,412.853363 681.809570,412.853363 
	C705.626343,412.853363 729.443176,412.864258 753.259949,412.831604 
	C755.059326,412.829132 756.858337,412.517120 758.846558,411.950745 
	C761.131104,413.808868 763.226624,416.065216 765.455200,418.656799 
z"/>
<path fill="#7694C5" opacity="1.000000" stroke="none" 
	d="
M642.306885,465.567932 
	C641.679871,465.072876 641.701416,464.791901 642.032532,464.326141 
	C725.034302,464.107147 807.940247,464.087433 890.846252,464.081329 
	C893.597351,464.081116 896.348389,464.218811 899.429932,464.106934 
	C899.432556,464.545349 899.232666,465.547546 898.749268,465.710907 
	C897.848328,466.015411 896.782471,465.849213 895.785217,465.849213 
	C811.935547,465.849304 728.085938,465.846649 644.236267,465.840729 
	C643.738098,465.840668 643.239868,465.791565 642.306885,465.567932 
z"/>
<path fill="#E9F1FE" opacity="1.000000" stroke="none" 
	d="
M745.955322,392.475220 
	C722.861267,392.823120 699.759644,392.823120 676.337402,392.823120 
	C676.337402,390.352325 676.337402,388.479614 676.337402,385.925323 
	C698.180969,385.925323 719.774719,385.925323 741.799561,385.684967 
	C743.469666,387.672180 744.708679,389.899750 745.955322,392.475220 
z"/>
<path fill="#E2ECFD" opacity="1.000000" stroke="none" 
	d="
M741.471619,304.032410 
	C739.095947,304.111633 736.965881,303.776855 734.835144,303.772339 
	C715.572815,303.731476 696.310303,303.748413 676.628113,303.748413 
	C676.628113,301.523438 676.628113,299.678772 676.628113,297.231140 
	C698.877991,297.231140 720.944702,297.231140 743.474731,297.199005 
	C743.197632,299.368439 742.457275,301.570007 741.471619,304.032410 
z"/>
<path fill="#E9F1FD" opacity="1.000000" stroke="none" 
	d="
M735.358032,328.017883 
	C735.484680,324.493195 732.489136,325.787598 730.770996,325.777008 
	C714.631165,325.677307 698.490417,325.717560 682.349976,325.717377 
	C680.549988,325.717377 678.750000,325.717377 676.598877,325.717377 
	C676.598877,323.385498 676.598877,321.517975 676.598877,319.048431 
	C696.574707,319.048431 716.325623,319.048431 736.542480,318.988953 
	C736.531189,321.846466 736.053894,324.763397 735.358032,328.017883 
z"/>
<path fill="#455167" opacity="1.000000" stroke="none" 
	d="
M959.131592,424.482178 
	C959.248657,422.349762 959.946106,420.500549 959.948486,418.650452 
	C959.988647,387.410278 959.942322,356.170013 959.866821,324.462921 
	C959.875671,298.246399 959.951782,272.496735 959.983582,246.746994 
	C960.008606,226.477066 959.979004,206.207062 959.946045,185.467697 
	C960.270081,186.522354 960.928345,188.046204 960.929382,189.570496 
	C960.979553,266.502808 960.982300,343.435150 960.907532,420.367432 
	C960.906128,421.833771 959.916931,423.299133 959.131592,424.482178 
z"/>
<path fill="#619AF5" opacity="1.000000" stroke="none" 
	d="
M358.922974,160.569702 
	C375.642059,160.229401 392.240540,160.227905 408.838989,160.229599 
	C410.000610,160.229721 411.250061,159.992905 412.296875,160.345963 
	C413.183655,160.645050 413.836090,161.639008 414.592194,162.325470 
	C413.737885,162.866821 412.901978,163.838196 412.026093,163.875687 
	C408.049713,164.045929 404.062012,163.957489 400.078400,163.953766 
	C386.633850,163.941193 373.189331,163.925079 359.266968,163.841980 
	C358.793549,162.818863 358.797943,161.864075 358.922974,160.569702 
z"/>
<path fill="#7694C5" opacity="1.000000" stroke="none" 
	d="
M238.158844,289.552002 
	C238.461304,292.696045 238.945312,296.301025 238.843765,299.889465 
	C238.749908,303.205841 239.998657,304.187378 243.195084,304.154572 
	C246.374619,304.121887 249.561203,304.773102 252.837997,305.504517 
	C248.143143,305.884583 243.354980,305.884583 238.084976,305.884583 
	C238.084976,300.232727 238.084976,295.119232 238.158844,289.552002 
z"/>
<path fill="#9AA8BE" opacity="1.000000" stroke="none" 
	d="
M198.316254,287.404877 
	C211.274597,287.127197 224.382858,287.251953 237.733185,287.724121 
	C224.805542,287.983459 211.635849,287.895386 198.316254,287.404877 
z"/>
<path fill="#FCFDFF" opacity="1.000000" stroke="none" 
	d="
M607.602783,266.922424 
	C607.602356,270.364502 607.602356,273.318604 607.602356,276.562805 
	C563.593384,276.562805 520.221802,276.562805 476.525970,276.562805 
	C476.525970,253.476639 476.525970,230.583618 476.525970,207.341125 
	C519.989624,207.341125 563.374878,207.341125 607.603271,207.341125 
	C607.603271,226.976608 607.603271,246.705536 607.602783,266.922424 
M572.262390,236.972549 
	C585.041199,233.076004 595.946899,226.939301 601.163147,213.363586 
	C561.365601,213.363586 522.153564,213.363586 483.225647,213.363586 
	C483.225647,231.016434 483.225647,248.305084 483.225647,265.777618 
	C484.118073,265.477295 484.494019,265.452820 484.721069,265.256348 
	C485.600677,264.494995 486.447754,263.694092 487.280548,262.880890 
	C505.044617,245.534622 526.533569,238.021240 551.137085,238.303177 
	C557.898499,238.380661 564.670471,237.529510 572.262390,236.972549 
z"/>
<path fill="#EAF2FE" opacity="1.000000" stroke="none" 
	d="
M237.174255,234.082428 
	C300.238647,234.082443 362.823303,234.082443 425.707336,234.082443 
	C425.707336,236.326004 425.707336,238.083481 425.707336,240.277985 
	C361.387299,240.277985 297.055695,240.277985 232.338882,240.277985 
	C232.338882,238.459167 232.338882,236.581512 232.338882,234.345215 
	C233.790085,234.257660 235.242325,234.170029 237.174255,234.082428 
z"/>
<path fill="#FFFFFF" opacity="1.000000" stroke="none" 
	d="
M390.000000,317.999481 
	C358.192413,317.999481 326.884827,317.999481 295.228760,317.999481 
	C295.228760,315.962494 295.228760,314.252289 295.228760,312.269043 
	C368.375885,312.269043 441.449097,312.269043 514.757568,312.269043 
	C514.757568,314.084290 514.757568,315.695312 514.757568,317.999481 
	C473.362213,317.999481 431.931122,317.999481 390.000000,317.999481 
z"/>
<path fill="#FFFFFF" opacity="1.000000" stroke="none" 
	d="
M311.000000,439.000092 
	C284.552551,439.000092 258.605103,439.000092 232.332733,439.000092 
	C232.332733,436.961639 232.332733,435.247345 232.332733,433.264313 
	C296.606476,433.264313 360.801514,433.264313 425.359253,433.264313 
	C425.359253,435.029572 425.359253,436.738159 425.359253,439.000092 
	C387.317169,439.000092 349.408569,439.000092 311.000000,439.000092 
z"/>
<path fill="#FEFEFF" opacity="1.000000" stroke="none" 
	d="
M344.000000,339.147217 
	C327.905823,339.147278 312.311676,339.147278 296.434723,339.147278 
	C296.339813,336.976654 296.269745,335.373779 296.182526,333.378723 
	C352.618042,333.378723 408.771118,333.378723 465.271790,333.378723 
	C465.271790,335.052216 465.271790,336.774506 465.271790,339.147186 
	C424.924042,339.147186 384.712036,339.147186 344.000000,339.147217 
z"/>
<path fill="#F6F9FF" opacity="1.000000" stroke="none" 
	d="
M386.612732,288.358459 
	C387.182404,291.767059 386.473236,293.254669 382.873993,293.242920 
	C344.445221,293.117371 306.015869,293.157013 267.586700,293.140717 
	C267.096283,293.140503 266.605927,293.002289 265.679138,292.862854 
	C265.679138,291.204620 265.679138,289.508942 265.679138,287.417053 
	C267.077454,287.319977 268.518188,287.133240 269.958954,287.132629 
	C307.223724,287.116577 344.488464,287.109924 381.753204,287.154602 
	C383.333252,287.156494 384.912750,287.665894 386.612732,288.358459 
z"/>
<path fill="#FFFFFF" opacity="1.000000" stroke="none" 
	d="
M348.852661,213.000671 
	C350.792114,213.082352 352.248810,213.164017 353.880249,213.255463 
	C353.880249,215.164230 353.880249,216.773514 353.880249,218.692200 
	C313.362213,218.692200 272.962585,218.692200 232.284821,218.692200 
	C232.284821,216.877625 232.284821,215.162979 232.284821,213.000641 
	C271.131866,213.000641 309.750885,213.000641 348.852661,213.000671 
z"/>
<path fill="#E9F1FE" opacity="1.000000" stroke="none" 
	d="
M289.000000,387.919312 
	C281.020813,387.919281 273.541595,387.919281 265.624084,387.919281 
	C265.624084,385.756134 265.624084,383.880890 265.624084,381.642456 
	C294.959503,381.642456 324.324341,381.642456 353.911804,381.642456 
	C353.911804,383.685394 353.911804,385.468536 353.911804,387.919373 
	C332.349274,387.919373 310.924622,387.919373 289.000000,387.919312 
z"/>
<path fill="#E9F1FE" opacity="1.000000" stroke="none" 
	d="
M326.000000,366.713806 
	C305.594421,366.713562 285.688873,366.713562 265.485382,366.713562 
	C265.485382,364.402527 265.485382,362.646515 265.485382,360.484283 
	C294.803528,360.484283 324.102539,360.484283 353.690552,360.484283 
	C353.690552,362.366211 353.690552,364.123962 353.690552,366.714020 
	C344.624664,366.714020 335.562347,366.714020 326.000000,366.713806 
z"/>
<path fill="#FEFEFF" opacity="1.000000" stroke="none" 
	d="
M350.797485,265.855591 
	C352.506714,267.362518 353.736511,268.867340 354.966309,270.372162 
	C354.602203,270.793060 354.238129,271.213989 353.874023,271.634888 
	C324.628601,271.634888 295.383209,271.634888 265.516052,271.634888 
	C265.440552,270.107483 265.356018,268.396790 265.230286,265.853485 
	C293.829773,265.853485 322.073944,265.853485 350.797485,265.855591 
z"/>
<path fill="#FFFFFF" opacity="1.000000" stroke="none" 
	d="
M915.999084,212.999847 
	C922.147461,212.999847 927.796143,212.999847 933.984009,212.999847 
	C934.080750,214.962860 934.164917,216.671738 934.264771,218.700073 
	C848.321106,218.700073 762.733459,218.700073 676.738647,218.700073 
	C676.738647,217.062592 676.738647,215.350952 676.738647,212.999847 
	C756.335266,212.999847 835.917358,212.999847 915.999084,212.999847 
z"/>
<path fill="#FBFDFF" opacity="1.000000" stroke="none" 
	d="
M241.452438,78.000771 
	C241.452621,71.210678 241.452621,64.920372 241.452621,58.604446 
	C242.731308,58.375252 243.363113,58.163334 243.995056,58.162941 
	C270.652710,58.146404 297.310394,58.148739 324.423889,58.148739 
	C324.423889,84.725517 324.423889,111.082726 324.423889,137.724014 
	C322.510437,137.724014 320.609406,137.724014 318.154602,137.724014 
	C318.154602,131.094086 318.172119,124.637512 318.151184,118.181046 
	C318.097809,101.734283 311.194427,94.470070 294.834595,93.594887 
	C294.380951,93.570618 293.937653,93.352631 293.034668,93.095390 
	C296.739197,88.471008 300.302338,83.732628 298.213867,77.756172 
	C297.004852,74.296303 295.115936,70.607597 292.458191,68.216568 
	C286.757690,63.088104 277.336792,64.187065 272.099091,69.829338 
	C266.123627,76.266357 266.575256,84.906715 273.814087,93.309227 
	C272.033783,93.438271 270.707458,93.600502 269.379059,93.620407 
	C256.877106,93.807747 248.168137,102.551964 248.049042,115.162666 
	C247.978592,122.620178 248.036148,130.078903 248.036148,137.768219 
	C245.786407,137.768219 244.016296,137.768219 241.452255,137.768219 
	C241.452255,117.989464 241.452255,98.245010 241.452438,78.000771 
z"/>
<path fill="#F6F9FF" opacity="1.000000" stroke="none" 
	d="
M174.000000,83.878525 
	C158.685715,83.878471 143.871445,83.878471 128.641418,83.878471 
	C128.641418,81.870811 128.641418,80.172203 128.641418,78.149506 
	C160.275955,78.149506 191.841217,78.149506 223.755432,78.149506 
	C223.839783,79.868637 223.918137,81.465233 224.036560,83.878578 
	C207.326294,83.878578 190.913147,83.878578 174.000000,83.878525 
z"/>
<path fill="#FDFEFF" opacity="1.000000" stroke="none" 
	d="
M175.000000,52.997677 
	C185.112595,52.997677 194.725189,52.997677 204.594330,52.997677 
	C204.594330,55.082245 204.594330,56.678493 204.594330,58.639633 
	C179.393753,58.639633 154.189285,58.639633 128.615402,58.639633 
	C128.615402,56.980652 128.615402,55.273941 128.615402,52.997677 
	C143.981735,52.997677 159.240875,52.997677 175.000000,52.997677 
z"/>
<path fill="#F6F9FF" opacity="1.000000" stroke="none" 
	d="
M152.000015,105.880432 
	C144.028091,105.880379 136.556152,105.880379 128.503555,105.880379 
	C128.417160,103.922958 128.342194,102.224373 128.251419,100.167511 
	C153.855606,100.167511 179.041306,100.167511 204.608887,100.167511 
	C204.709198,101.836296 204.804504,103.421608 204.952332,105.880478 
	C187.248444,105.880478 169.874222,105.880478 152.000015,105.880432 
z"/>
<path fill="#3E84F6" opacity="1.000000" stroke="none" 
	d="
M277.936249,477.847900 
	C280.714355,477.847839 283.002869,477.847839 285.589355,477.847839 
	C285.589355,484.239746 285.589355,490.149689 285.589355,496.462708 
	C261.599762,496.462708 237.624588,496.462708 213.352371,496.462708 
	C213.352371,490.448303 213.352371,484.544434 213.352371,477.847961 
	C234.730362,477.847961 256.088531,477.847961 277.936249,477.847900 
z"/>
<path fill="#3F85F6" opacity="1.000000" stroke="none" 
	d="
M903.134033,171.851898 
	C901.018188,171.851822 899.383057,171.851822 897.376953,171.851822 
	C897.376953,165.499954 897.376953,159.481232 897.376953,153.158340 
	C905.005981,153.158340 912.563293,153.158340 920.501099,153.158340 
	C920.501099,159.188995 920.501099,165.210495 920.501099,171.851974 
	C914.789124,171.851974 909.201965,171.851974 903.134033,171.851898 
z"/>
<path fill="#4085F6" opacity="1.000000" stroke="none" 
	d="
M882.832886,171.855225 
	C876.730835,171.855164 871.105530,171.855164 865.194763,171.855164 
	C865.194763,165.427048 865.194763,159.510056 865.194763,153.222595 
	C872.818054,153.222595 880.392212,153.222595 888.362122,153.222595 
	C888.362122,159.226929 888.362122,165.262253 888.362122,171.855301 
	C886.545227,171.855301 884.927368,171.855301 882.832886,171.855225 
z"/>
<path fill="#3F85F6" opacity="1.000000" stroke="none" 
	d="
M928.145752,155.295013 
	C929.090637,154.171387 930.009888,152.975967 930.957336,152.953217 
	C937.737915,152.790314 944.524170,152.866165 951.653931,152.866165 
	C951.653931,159.203415 951.653931,165.232147 951.653931,171.559158 
	C943.978516,171.559158 936.427002,171.559158 928.133240,171.559158 
	C928.133240,166.248901 928.133240,161.007477 928.145752,155.295013 
z"/>
<path fill="#6099F8" opacity="1.000000" stroke="none" 
	d="
M459.000000,163.951447 
	C449.698608,163.951172 440.896118,164.016281 432.097107,163.871124 
	C430.946655,163.852158 429.814026,162.753448 428.673126,162.154846 
	C429.782837,161.514572 430.889038,160.323425 432.002838,160.316299 
	C450.103119,160.200363 468.204590,160.194412 486.304688,160.323807 
	C487.526123,160.332535 488.738403,161.617920 489.954956,162.309540 
	C488.770752,162.856308 487.593384,163.859406 486.401306,163.877213 
	C477.435852,164.011108 468.467468,163.950958 459.000000,163.951447 
z"/>
<path fill="#050505" opacity="1.000000" stroke="none" 
	d="
M807.129211,248.062073 
	C860.377747,221.408859 920.932434,246.495010 938.651550,302.890717 
	C950.620850,340.986023 936.615662,385.039307 900.349548,408.707855 
	C845.376038,444.585602 770.130310,411.600830 758.993896,346.587769 
	C752.208252,306.973907 770.327393,269.683685 807.129211,248.062073 
M763.930359,325.023590 
	C762.642151,347.649017 768.832153,367.820129 783.897522,385.788513 
	C785.632202,387.633575 787.366882,389.478638 789.339294,391.910583 
	C798.386292,401.019440 808.991272,407.638458 821.808899,412.101379 
	C829.916016,413.682495 838.023193,415.263611 847.035950,416.982086 
	C865.714417,417.862640 882.547913,412.224701 898.196106,402.454590 
	C917.135071,390.629761 927.334961,373.160156 929.876404,351.364075 
	C932.615906,327.869659 926.057373,306.534637 912.120850,287.666473 
	C882.604980,247.705826 822.630676,242.710464 785.415894,277.252869 
	C779.729858,282.530518 775.848755,289.752686 770.722656,296.660492 
	C770.030212,298.450928 769.337769,300.241333 768.174316,302.570068 
	C767.103455,307.686737 766.032654,312.803406 764.537720,318.587372 
	C764.408325,320.433136 764.278931,322.278931 763.930359,325.023590 
z"/>
<path fill="#3E84F6" opacity="1.000000" stroke="none" 
	d="
M759.638916,29.000889 
	C769.814575,33.358929 773.965881,41.368553 771.125916,50.503708 
	C768.436584,59.154411 759.917175,64.311333 751.374817,62.459396 
	C742.263672,60.484165 736.437561,51.479733 738.192688,42.086288 
	C739.852234,33.204895 748.126343,27.373524 757.282166,28.633566 
	C757.939636,28.724051 758.596130,28.822319 759.638916,29.000889 
z"/>
<path fill="#040404" opacity="1.000000" stroke="none" 
	d="
M792.824097,127.856606 
	C789.538879,118.832146 790.869995,111.996658 796.658569,107.017708 
	C802.519165,101.976707 809.709778,101.156311 816.081055,104.801605 
	C822.195557,108.299980 825.764587,115.379166 824.756287,122.009308 
	C823.642090,129.335831 818.080383,135.311447 811.023010,136.764709 
	C803.799683,138.252151 797.556519,135.293228 792.824097,127.856606 
z"/>
<path fill="#3C83F6" opacity="1.000000" stroke="none" 
	d="
M571.849976,237.038513 
	C564.670471,237.529510 557.898499,238.380661 551.137085,238.303177 
	C526.533569,238.021240 505.044617,245.534622 487.280548,262.880890 
	C486.447754,263.694092 485.600677,264.494995 484.721069,265.256348 
	C484.494019,265.452820 484.118073,265.477295 483.225647,265.777618 
	C483.225647,248.305084 483.225647,231.016434 483.225647,213.363586 
	C522.153564,213.363586 561.365601,213.363586 601.163147,213.363586 
	C595.946899,226.939301 585.041199,233.076004 571.849976,237.038513 
z"/>
<path fill="#3C83F5" opacity="1.000000" stroke="none" 
	d="
M783.665039,385.154663 
	C768.832153,367.820129 762.642151,347.649017 764.497742,324.580017 
	C808.993042,324.136475 852.921021,324.136475 897.188660,324.136475 
	C897.073792,321.701172 896.992676,319.981079 896.895447,317.920105 
	C852.576538,317.920105 808.769165,317.920105 764.961853,317.920105 
	C766.032654,312.803406 767.103455,307.686737 768.899536,302.352753 
	C803.021362,302.135437 836.418030,302.135437 870.237854,302.135437 
	C870.132019,299.836151 870.054138,298.143951 869.958923,296.075500 
	C836.648743,296.075500 803.890808,296.075500 771.132874,296.075500 
	C775.848755,289.752686 779.729858,282.530518 785.415894,277.252869 
	C822.630676,242.710464 882.604980,247.705826 912.120850,287.666473 
	C926.057373,306.534637 932.615906,327.869659 929.876404,351.364075 
	C927.334961,373.160156 917.135071,390.629761 898.196106,402.454590 
	C882.547913,412.224701 865.714417,417.862640 846.597290,416.476074 
	C846.051270,414.723267 845.943909,413.476440 845.799866,411.804077 
	C837.342773,411.804077 829.237122,411.804077 821.131409,411.804077 
	C808.991272,407.638458 798.386292,401.019440 789.671875,391.545471 
	C825.543396,391.180359 861.082275,391.180359 896.676147,391.180359 
	C896.676147,388.792969 896.676147,387.069183 896.676147,385.435089 
	C896.056580,385.246429 895.749207,385.070801 895.442017,385.070984 
	C858.183044,385.090454 820.924011,385.122894 783.665039,385.154663 
z"/>
<path fill="#FFFFFF" opacity="1.000000" stroke="none" 
	d="
M764.749756,318.253723 
	C808.769165,317.920105 852.576538,317.920105 896.895447,317.920105 
	C896.992676,319.981079 897.073792,321.701172 897.188660,324.136475 
	C852.921021,324.136475 808.993042,324.136475 764.607300,324.130585 
	C764.278931,322.278931 764.408325,320.433136 764.749756,318.253723 
z"/>
<path fill="#FFFFFF" opacity="1.000000" stroke="none" 
	d="
M783.781250,385.471588 
	C820.924011,385.122894 858.183044,385.090454 895.442017,385.070984 
	C895.749207,385.070801 896.056580,385.246429 896.676147,385.435089 
	C896.676147,387.069183 896.676147,388.792969 896.676147,391.180359 
	C861.082275,391.180359 825.543396,391.180359 789.552979,391.252045 
	C787.366882,389.478638 785.632202,387.633575 783.781250,385.471588 
z"/>
<path fill="#F7FAFE" opacity="1.000000" stroke="none" 
	d="
M770.927734,296.367981 
	C803.890808,296.075500 836.648743,296.075500 869.958923,296.075500 
	C870.054138,298.143951 870.132019,299.836151 870.237854,302.135437 
	C836.418030,302.135437 803.021362,302.135437 769.135010,302.083618 
	C769.337769,300.241333 770.030212,298.450928 770.927734,296.367981 
z"/>
<path fill="#F9F9F9" opacity="1.000000" stroke="none" 
	d="
M821.470154,411.952728 
	C829.237122,411.804077 837.342773,411.804077 845.799866,411.804077 
	C845.943909,413.476440 846.051270,414.723267 846.144470,416.407410 
	C838.023193,415.263611 829.916016,413.682495 821.470154,411.952728 
z"/>
</svg>