<svg version="1.1" id="Layer_1" xmlns="http://www.w3.org/2000/svg" xmlns:xlink="http://www.w3.org/1999/xlink" x="0px" y="0px"
	 width="100%" viewBox="0 0 1080 669" enable-background="new 0 0 1080 669" xml:space="preserve">
<path fill="#111827" opacity="1.000000" stroke="none" 
	d="
M429.000000,670.000000 
	C286.352173,670.000000 143.704315,670.000000 1.028240,670.000000 
	C1.028240,447.048248 1.028240,224.096512 1.028240,1.072383 
	C360.904236,1.072383 720.808533,1.072383 1080.856445,1.072383 
	C1080.856445,223.999939 1080.856445,446.999969 1080.856445,670.000000 
	C967.890198,670.000000 854.904846,670.000000 741.549438,669.538696 
	C741.179382,651.005737 741.179382,632.933960 741.179382,614.336914 
	C707.332520,614.336914 674.251526,614.336914 640.909241,614.336914 
	C640.909241,589.718323 640.909241,565.636292 640.909241,541.000854 
	C642.706970,541.000854 644.331360,541.000854 645.955688,541.000854 
	C746.788635,541.000854 847.621521,541.020386 948.454407,540.917114 
	C951.871582,540.913574 953.915955,542.046692 955.851929,544.694153 
	C965.574402,557.988892 975.420898,571.193420 985.279968,584.387573 
	C991.976990,593.350037 1002.573364,595.196838 1011.625122,588.645264 
	C1022.675354,580.647400 1033.594238,572.456604 1044.353394,564.071533 
	C1054.045898,556.517700 1055.200439,546.352478 1047.891846,536.551025 
	C1025.016113,505.872925 1002.166504,475.175171 979.195618,444.568481 
	C976.674377,441.209229 975.550293,437.868256 975.554932,433.627441 
	C975.658081,338.627930 975.633728,243.628296 975.633301,148.628677 
	C975.633301,146.516312 975.633301,144.403961 975.633301,142.016174 
	C936.144348,142.016174 897.333801,142.016174 858.158264,142.016174 
	C861.767151,129.879105 860.171692,118.565620 851.663879,109.752495 
	C844.287720,102.111557 838.555054,92.083420 826.851562,89.391418 
	C827.928833,89.001335 828.756409,89.016533 829.583313,88.999092 
	C846.767456,88.636841 862.173279,72.240608 859.572449,54.366676 
	C856.813049,35.403450 843.692993,23.863173 827.045959,16.063190 
	C825.043640,15.125010 822.508972,15.047984 820.219482,15.040524 
	C798.219788,14.968845 776.218201,14.841133 754.220459,15.059957 
	C742.070923,15.180814 732.966431,21.134722 727.028687,31.570210 
	C721.136597,41.925415 720.706116,53.158928 727.391907,62.747490 
	C734.765869,73.322929 742.718140,84.089226 757.121704,88.830986 
	C742.470764,89.048508 732.294434,95.045166 726.246887,106.996353 
	C720.154663,119.035706 722.542419,130.705124 729.765625,141.597855 
	C604.932251,141.597855 480.541534,141.597855 355.999786,141.597855 
	C355.999786,139.200333 355.999817,137.203766 355.999786,135.207214 
	C355.999298,100.207352 356.057190,65.207344 355.972229,30.207693 
	C355.933289,14.166188 344.558960,2.999129 328.591461,2.998959 
	C257.425079,2.998199 186.258682,2.976587 115.092316,3.010680 
	C91.582153,3.021944 74.083801,20.427086 74.040985,43.947392 
	C73.959686,88.613731 73.982422,133.280334 74.027031,177.946777 
	C74.042770,193.711136 85.385651,204.991348 101.040993,204.998230 
	C127.207558,205.009720 153.374115,205.001083 179.540680,205.000931 
	C181.292297,205.000931 183.043915,205.000931 184.594757,205.000931 
	C184.594757,234.472244 184.594757,263.200653 184.594757,292.098236 
	C176.194962,292.098236 168.178055,291.750732 160.209351,292.220642 
	C154.913956,292.532928 151.560120,291.132965 149.188156,286.159851 
	C145.183212,277.762939 138.259491,274.717194 128.868774,274.858398 
	C102.208237,275.259155 75.529213,275.402191 48.874638,274.837128 
	C34.482128,274.532043 28.763062,282.874237 28.920010,294.916046 
	C29.454290,335.908600 29.673132,376.905334 29.988251,417.900635 
	C30.052008,426.195129 32.754539,428.998230 40.939320,428.998962 
	C86.939133,429.003082 132.938950,429.000946 178.938766,429.000916 
	C180.867294,429.000916 182.795807,429.000885 185.248718,429.000885 
	C185.248718,466.724640 185.248718,503.781738 185.248718,541.264893 
	C300.211700,541.264893 414.640198,541.264893 528.989624,541.264893 
	C528.989624,565.794983 528.989624,589.889893 528.989624,614.530518 
	C495.559296,614.530518 462.468872,614.530518 429.000000,614.530518 
	C429.000000,633.384888 429.000000,651.692444 429.000000,670.000000 
z"/>
<path fill="#A6B0C4" opacity="1.000000" stroke="none" 
	d="
M429.468658,670.000000 
	C429.000000,651.692444 429.000000,633.384888 429.000000,614.530518 
	C462.468872,614.530518 495.559296,614.530518 528.989624,614.530518 
	C528.989624,589.889893 528.989624,565.794983 528.989624,541.264893 
	C414.640198,541.264893 300.211700,541.264893 185.248718,541.264893 
	C185.248718,503.781738 185.248718,466.724640 185.248718,429.000885 
	C182.795807,429.000885 180.867294,429.000916 178.938766,429.000916 
	C132.938950,429.000946 86.939133,429.003082 40.939320,428.998962 
	C32.754539,428.998230 30.052008,426.195129 29.988251,417.900635 
	C29.673132,376.905334 29.454290,335.908600 28.920010,294.916046 
	C28.763062,282.874237 34.482128,274.532043 48.874638,274.837128 
	C75.529213,275.402191 102.208237,275.259155 128.868774,274.858398 
	C138.259491,274.717194 145.183212,277.762939 149.188156,286.159851 
	C151.560120,291.132965 154.913956,292.532928 160.209351,292.220642 
	C168.178055,291.750732 176.194962,292.098236 184.594757,292.098236 
	C184.594757,263.200653 184.594757,234.472244 184.594757,205.000931 
	C183.043915,205.000931 181.292297,205.000931 179.540680,205.000931 
	C153.374115,205.001083 127.207558,205.009720 101.040993,204.998230 
	C85.385651,204.991348 74.042770,193.711136 74.027031,177.946777 
	C73.982422,133.280334 73.959686,88.613731 74.040985,43.947392 
	C74.083801,20.427086 91.582153,3.021944 115.092316,3.010680 
	C186.258682,2.976587 257.425079,2.998199 328.591461,2.998959 
	C344.558960,2.999129 355.933289,14.166188 355.972229,30.207693 
	C356.057190,65.207344 355.999298,100.207352 355.999786,135.207214 
	C355.999817,137.203766 355.999786,139.200333 355.999786,141.597855 
	C480.541534,141.597855 604.932251,141.597855 729.765625,141.597855 
	C722.542419,130.705124 720.154663,119.035706 726.246887,106.996353 
	C732.294434,95.045166 742.470764,89.048508 757.121704,88.830986 
	C742.718140,84.089226 734.765869,73.322929 727.391907,62.747490 
	C720.706116,53.158928 721.136597,41.925415 727.028687,31.570210 
	C732.966431,21.134722 742.070923,15.180814 754.220459,15.059957 
	C776.218201,14.841133 798.219788,14.968845 820.219482,15.040524 
	C822.508972,15.047984 825.043640,15.125010 827.045959,16.063190 
	C843.692993,23.863173 856.813049,35.403450 859.572449,54.366676 
	C862.173279,72.240608 846.767456,88.636841 829.583313,88.999092 
	C828.756409,89.016533 827.928833,89.001335 826.851562,89.391418 
	C838.555054,92.083420 844.287720,102.111557 851.663879,109.752495 
	C860.171692,118.565620 861.767151,129.879105 858.158264,142.016174 
	C897.333801,142.016174 936.144348,142.016174 975.633301,142.016174 
	C975.633301,144.403961 975.633301,146.516312 975.633301,148.628677 
	C975.633728,243.628296 975.658081,338.627930 975.554932,433.627441 
	C975.550293,437.868256 976.674377,441.209229 979.195618,444.568481 
	C1002.166504,475.175171 1025.016113,505.872925 1047.891846,536.551025 
	C1055.200439,546.352478 1054.045898,556.517700 1044.353394,564.071533 
	C1033.594238,572.456604 1022.675354,580.647400 1011.625122,588.645264 
	C1002.573364,595.196838 991.976990,593.350037 985.279968,584.387573 
	C975.420898,571.193420 965.574402,557.988892 955.851929,544.694153 
	C953.915955,542.046692 951.871582,540.913574 948.454407,540.917114 
	C847.621521,541.020386 746.788635,541.000854 645.955688,541.000854 
	C644.331360,541.000854 642.706970,541.000854 640.909241,541.000854 
	C640.909241,565.636292 640.909241,589.718323 640.909241,614.336914 
	C674.251526,614.336914 707.332520,614.336914 741.179382,614.336914 
	C741.179382,632.933960 741.179382,651.005737 741.089722,669.538696 
	C637.312439,670.000000 533.624878,670.000000 429.468658,670.000000 
M51.442429,341.207855 
	C52.918091,336.308075 54.448326,331.423950 55.858646,326.505432 
	C59.349792,314.329865 65.080139,309.999298 77.852776,309.998810 
	C125.168884,309.996979 172.484985,309.998016 219.801102,309.997986 
	C221.740097,309.997986 223.679092,309.997986 225.629761,309.997986 
	C225.629761,305.982849 225.629761,302.596039 225.629761,299.112091 
	C224.456131,299.030518 223.639084,298.924133 222.822021,298.923981 
	C166.842407,298.914581 110.862785,298.905731 54.883224,298.959686 
	C53.538960,298.960999 52.195377,299.671631 50.445000,300.757263 
	C50.307117,312.223114 50.125351,323.688751 50.074100,335.154968 
	C50.065453,337.089935 50.619686,339.027435 51.442429,341.207855 
M631.997864,472.999756 
	C631.997864,472.999756 631.835205,472.947205 632.734985,472.969971 
	C636.427856,473.225372 640.120728,473.480774 644.776428,473.890289 
	C730.877686,473.926788 816.978943,473.966766 903.080200,473.952026 
	C903.989319,473.951874 904.898254,473.233215 906.043396,472.113586 
	C907.705200,467.378021 909.367004,462.642456 911.255615,457.260651 
	C908.929688,454.342346 905.869812,450.503113 902.774536,446.619354 
	C901.963745,446.957550 901.345947,447.162231 900.777039,447.460205 
	C875.205627,460.852936 848.214661,463.153107 820.473267,456.813110 
	C800.178650,452.174988 783.281616,441.244141 769.031067,425.385223 
	C766.974670,423.545410 764.918274,421.705597 762.664062,419.245239 
	C758.444397,412.696167 754.224670,406.147125 749.726990,398.882690 
	C748.419250,396.851929 747.111572,394.821167 745.789551,392.069733 
	C740.863464,379.649628 737.555664,366.860168 737.754333,353.410583 
	C737.864380,345.958954 738.523926,338.515472 739.480835,330.564880 
	C739.970337,328.620026 740.459839,326.675171 740.918274,323.948090 
	C742.278809,318.965729 743.639282,313.983368 745.342590,308.337036 
	C746.009705,306.377869 746.676819,304.418701 747.651489,301.943237 
	C748.446045,300.505432 749.235291,299.064697 750.035950,297.630341 
	C758.209900,282.987091 766.390930,268.329102 778.418640,256.360840 
	C782.735962,252.064926 787.426208,248.143692 792.622559,243.852600 
	C795.743958,241.911728 798.865356,239.970856 802.615356,237.710373 
	C803.821899,237.152969 805.040833,236.620850 806.233093,236.034470 
	C825.175903,226.718582 845.185608,222.359406 866.218872,224.430573 
	C949.288513,232.610519 994.400085,325.337402 949.770447,395.909760 
	C944.984436,403.477753 940.129211,411.001984 935.228882,418.667267 
	C938.561523,423.439240 941.979553,428.333527 945.208496,432.956940 
	C949.120361,431.577087 952.612122,429.618805 956.261230,429.259705 
	C960.021729,428.889679 963.935608,430.077179 967.650940,430.565918 
	C967.650940,350.021637 967.650940,269.154602 967.650940,188.003708 
	C859.515442,188.003708 751.751099,188.003708 643.071777,188.010239 
	C639.436523,188.002228 635.801331,187.994202 631.208069,187.998062 
	C535.782715,187.999100 440.357361,188.010559 344.932037,187.959457 
	C341.456177,187.957596 339.162781,188.375580 337.120514,192.051941 
	C332.360413,200.620819 324.646606,205.025131 314.591980,205.015503 
	C275.789032,204.978333 236.986008,204.999969 198.183029,204.999680 
	C196.242233,204.999664 194.301422,204.999680 192.012054,204.999680 
	C192.012054,234.374405 192.012054,263.147522 192.659866,292.440033 
	C202.013153,292.627106 211.365967,292.907379 220.719955,292.955292 
	C224.455017,292.974426 228.192673,292.480682 232.643661,292.640015 
	C232.643661,298.702179 232.643661,304.764374 232.643661,311.488190 
	C237.906830,310.934174 242.007675,310.697113 246.038879,310.035675 
	C253.328995,308.839661 258.166748,313.661072 256.178955,320.935272 
	C249.730072,344.534454 242.995529,368.055420 236.436142,391.624634 
	C233.917465,400.674744 231.574265,409.773682 228.591309,419.228363 
	C227.720093,420.486206 226.848862,421.744019 225.350784,423.252838 
	C221.076035,428.089874 215.532852,429.833893 209.278946,429.837738 
	C203.669418,429.841187 198.059891,429.838470 192.048477,429.838470 
	C192.048477,444.504303 192.048477,458.604797 192.653137,473.281525 
	C194.603699,473.521332 196.554214,473.970703 198.504822,473.971130 
	C340.952484,474.003845 483.400116,474.005829 625.847778,473.952515 
	C627.915344,473.951752 629.982727,473.224945 631.997864,472.999756 
M355.807343,163.782715 
	C355.726257,164.557159 355.645172,165.331604 355.346375,166.797150 
	C353.630432,171.674423 351.914490,176.551697 350.021973,181.930832 
	C352.167664,181.930832 354.449951,181.930832 356.732239,181.930832 
	C557.834229,181.930832 758.936218,181.930832 960.038208,181.930618 
	C961.371094,181.930603 962.712646,181.828979 964.035278,181.944611 
	C967.759338,182.270233 969.033020,180.535339 968.953369,176.931076 
	C968.791443,169.603714 968.643250,162.257309 969.001282,154.943802 
	C969.237915,150.110748 967.599365,148.704514 962.789001,148.730576 
	C928.800964,148.914658 894.811157,148.889816 860.822632,148.751160 
	C856.522583,148.733627 853.287537,149.659546 850.389404,153.091721 
	C844.092529,160.549072 835.527954,163.743774 826.016235,163.847595 
	C805.691895,164.069473 785.362366,164.032959 765.036987,163.864105 
	C755.440430,163.784363 746.964478,160.233353 740.733643,152.911285 
	C737.845154,149.516861 734.885254,148.771301 730.845215,148.773514 
	C608.051392,148.840561 485.257538,148.828079 362.463684,148.829422 
	C361.130951,148.829437 359.645050,148.481262 358.506287,148.956299 
	C357.235046,149.486633 355.376984,150.744461 355.346161,151.734558 
	C355.229309,155.489029 355.748535,159.263275 355.807343,163.782715 
M95.157051,150.492096 
	C95.159912,154.324936 95.061127,158.161133 95.187721,161.989883 
	C95.419655,169.004410 97.617569,175.535980 103.886269,178.974533 
	C108.192627,181.336700 113.567818,182.773056 118.485909,182.829712 
	C148.312714,183.173096 178.145462,183.000900 207.976227,183.000900 
	C246.472916,183.000916 284.970642,182.835052 323.465790,183.077408 
	C340.342316,183.183655 349.401093,174.835236 349.176666,157.789597 
	C348.623871,115.800491 349.002533,73.799217 348.992035,31.802834 
	C348.988464,17.421055 341.162384,9.550168 326.815674,9.547365 
	C257.488312,9.533819 188.160950,9.529766 118.833580,9.549835 
	C102.572983,9.554543 95.159973,17.092714 95.156998,33.504715 
	C95.149979,72.168053 95.156395,110.831383 95.157051,150.492096 
M876.500000,513.078491 
	C894.708496,513.078491 912.917053,513.078491 932.088074,513.078491 
	C930.707764,510.905518 930.074829,509.783478 929.323914,508.746918 
	C923.559326,500.789581 917.403320,493.083679 912.133667,484.812408 
	C909.111572,480.069000 905.646240,478.812622 900.294495,478.815460 
	C666.983215,478.938446 433.671844,478.921539 200.360504,478.921997 
	C198.860657,478.921997 197.355087,479.014404 195.862183,478.914337 
	C192.778687,478.707733 191.792236,480.233276 191.821960,483.129517 
	C191.910904,491.794434 191.918030,500.461517 191.822617,509.126282 
	C191.788864,512.192322 193.167282,513.329346 196.066071,513.174683 
	C197.727646,513.086060 199.398178,513.168152 201.064667,513.167969 
	C425.876434,513.138611 650.688232,513.108704 876.500000,513.078491 
M45.995983,386.491791 
	C43.210163,396.432007 40.367355,406.356750 37.660862,416.318512 
	C36.143311,421.904144 36.912373,422.877380 42.618183,422.913544 
	C97.739319,423.262543 152.860474,423.611298 207.981918,423.904480 
	C218.011780,423.957825 221.069717,421.693909 223.814682,412.183258 
	C232.218277,383.066711 240.544800,353.927917 248.860947,324.786224 
	C250.783569,318.048950 250.572357,317.834961 243.433517,317.834351 
	C188.279144,317.829620 133.124756,317.827911 77.970375,317.836090 
	C67.696327,317.837616 65.125168,319.783783 62.328804,329.534790 
	C56.958996,348.259521 51.589180,366.984283 45.995983,386.491791 
M572.500000,519.921631 
	C562.002930,519.922302 551.502380,520.078979 541.010559,519.844360 
	C536.978210,519.754150 535.914673,521.228638 535.931763,525.067566 
	C536.057251,553.225830 536.067932,581.385193 535.922424,609.543274 
	C535.901367,613.618835 537.057190,615.026245 541.265991,615.004089 
	C570.423706,614.850708 599.583008,614.850220 628.740723,615.004395 
	C632.958313,615.026672 634.098267,613.603760 634.077209,609.536560 
	C633.932373,581.545105 633.918884,553.552124 634.087952,525.560974 
	C634.114075,521.245789 632.964661,519.770691 628.483398,519.826721 
	C610.158081,520.055664 591.828186,519.921692 572.500000,519.921631 
M1041.970215,537.602539 
	C1028.646484,519.728577 1015.331726,501.847900 1001.996216,483.982758 
	C991.944763,470.517212 981.906982,457.041199 971.786499,443.627655 
	C964.899170,434.499237 959.992615,433.647247 950.769897,440.108582 
	C944.778015,444.306396 938.856689,448.634521 933.179504,453.243927 
	C927.102112,458.178314 926.351868,464.347748 930.779602,470.359528 
	C955.540894,503.979187 980.326904,537.580688 1005.137268,571.164124 
	C1009.310425,576.812927 1015.448792,577.912903 1021.365784,573.737305 
	C1027.748657,569.232971 1034.016235,564.522522 1039.994141,559.497498 
	C1047.853394,552.890991 1048.373413,546.747559 1041.970215,537.602539 
M499.500000,644.168640 
	C575.142517,644.168518 650.785034,644.168396 726.427551,644.167725 
	C727.927063,644.167725 729.432068,644.076294 730.924866,644.174683 
	C733.978882,644.375977 735.075073,642.925659 734.981873,639.987793 
	C734.855225,635.993164 734.960083,631.991394 734.956848,627.992676 
	C734.951111,621.005310 734.948242,620.999268 727.815125,620.999207 
	C632.845459,620.997925 537.875793,620.998291 442.906158,620.999268 
	C441.739929,620.999268 440.322540,620.596191 439.464447,621.114014 
	C438.062408,621.960022 436.115662,623.326660 435.997040,624.620300 
	C435.572784,629.247070 436.069489,633.953003 435.742767,638.595581 
	C435.426971,643.083191 437.223328,644.290405 441.518982,644.248230 
	C460.511078,644.061890 479.506073,644.168640 499.500000,644.168640 
M797.731689,249.204636 
	C770.179260,268.333588 755.673035,295.482697 752.382202,328.054565 
	C748.486511,366.612946 765.078735,397.029510 794.692749,420.597870 
	C810.010437,432.788422 827.801697,439.093048 847.637390,440.344391 
	C867.551758,441.600677 886.431030,439.252777 904.131714,429.595795 
	C910.948425,425.876770 913.382324,426.590302 917.951782,432.895416 
	C921.323547,437.547760 924.739014,442.168365 928.329468,447.068420 
	C932.870056,443.726166 936.828491,440.812439 941.089111,437.676239 
	C937.128540,432.101593 933.570740,427.099487 930.018860,422.093231 
	C925.745239,416.069733 925.787354,414.902435 930.685181,409.694366 
	C952.891663,386.081451 963.385071,358.300476 960.058350,325.822906 
	C957.087097,296.816528 944.502197,272.841614 921.831848,254.218613 
	C887.276001,225.831970 835.223816,223.482269 797.731689,249.204636 
M733.557678,107.191856 
	C727.595337,116.164879 727.689148,125.437294 732.872925,134.543030 
	C737.935120,143.435364 746.005127,147.186005 756.188538,147.119339 
	C776.992432,146.983139 797.797974,147.107208 818.602478,147.038574 
	C821.064209,147.030457 823.629822,146.838455 825.967285,146.134201 
	C837.953552,142.522858 845.638977,130.464569 843.870422,118.364777 
	C842.045715,105.880730 831.337830,96.085663 818.905396,95.989578 
	C798.434692,95.831360 777.959045,96.132210 757.491394,95.835091 
	C747.736694,95.693489 740.005798,99.042656 733.557678,107.191856 
M787.500000,21.994452 
	C776.506531,22.001740 765.509338,21.832655 754.520447,22.060318 
	C740.323425,22.354445 729.717346,33.711887 729.838623,48.120995 
	C729.961365,62.704094 740.075134,73.042046 754.639587,73.123253 
	C776.292847,73.243996 797.947571,73.208763 819.600952,73.105835 
	C822.378540,73.092628 825.309509,72.706642 827.900757,71.758896 
	C839.487488,67.521133 846.007751,55.497791 843.893372,42.784317 
	C842.034546,31.607988 831.017212,22.285515 818.981262,22.047899 
	C808.824402,21.847382 798.660706,21.998795 787.500000,21.994452 
M1007.664124,581.568726 
	C1004.539062,578.912415 1000.846436,576.695679 998.388855,573.522461 
	C988.613403,560.900635 978.922180,548.191650 969.755493,535.125061 
	C952.791626,510.944275 933.371460,488.443909 918.756714,462.682587 
	C912.734497,467.092224 912.122803,473.329773 917.755310,480.993500 
	C941.590393,513.424011 965.430237,545.851013 989.312256,578.246887 
	C990.780945,580.239075 992.403809,582.242371 994.342163,583.738953 
	C999.174438,587.470093 1005.219849,586.584290 1007.664124,581.568726 
M50.484295,344.136017 
	C50.484295,344.136017 50.571079,343.866211 50.571079,343.866211 
	C50.571079,343.866211 50.379635,344.034973 50.484295,344.136017 
z"/>
<path fill="#202D3E" opacity="1.000000" stroke="none" 
	d="
M192.048477,472.705322 
	C192.048477,458.604797 192.048477,444.504303 192.048477,429.838470 
	C198.059891,429.838470 203.669418,429.841187 209.278946,429.837738 
	C215.532852,429.833893 221.076035,428.089874 225.741211,423.549469 
	C227.756210,424.230621 229.380249,424.948242 231.005447,424.950897 
	C269.284210,425.013855 307.563141,424.999664 345.842010,424.999664 
	C347.429901,424.999664 349.017761,424.999664 350.545166,424.999664 
	C350.545166,422.629089 350.545166,421.015259 350.545166,418.850372 
	C309.933258,418.850372 269.542175,418.850372 229.151123,418.850372 
	C231.574265,409.773682 233.917465,400.674744 236.436142,391.624634 
	C242.995529,368.055420 249.730072,344.534454 256.178955,320.935272 
	C258.166748,313.661072 253.328995,308.839661 246.038879,310.035675 
	C242.007675,310.697113 237.906830,310.934174 232.643661,311.488190 
	C232.643661,304.764374 232.643661,298.702179 231.830292,292.337463 
	C218.015305,291.996796 205.013672,291.958710 192.012054,291.920624 
	C192.012054,263.147522 192.012054,234.374405 192.012054,204.999680 
	C194.301422,204.999680 196.242233,204.999664 198.183029,204.999680 
	C236.986008,204.999969 275.789032,204.978333 314.591980,205.015503 
	C324.646606,205.025131 332.360413,200.620819 337.120514,192.051941 
	C339.162781,188.375580 341.456177,187.957596 344.932037,187.959457 
	C440.357361,188.010559 535.782715,187.999100 631.770325,188.455109 
	C632.344727,282.118134 632.359314,375.324127 632.346863,468.530121 
	C632.346619,470.002502 632.013184,471.474854 631.835205,472.947205 
	C631.835205,472.947205 631.997864,472.999756 631.546875,472.902435 
	C486.910065,472.803467 342.724335,472.802277 198.538574,472.796326 
	C196.375214,472.796234 194.211838,472.736938 192.048477,472.705322 
M523.499939,281.171112 
	C551.878967,281.171112 580.257996,281.171112 608.578613,281.171112 
	C608.578613,257.106293 608.578613,233.869843 608.578613,210.577972 
	C563.953491,210.577972 519.627441,210.577972 475.369812,210.577972 
	C475.369812,234.248322 475.369812,257.500153 475.369812,281.171112 
	C491.263947,281.171112 506.881927,281.171112 523.499939,281.171112 
M470.499756,323.607056 
	C485.095886,323.607056 499.692047,323.607056 514.720032,323.607056 
	C514.592102,321.013062 514.499756,319.140381 514.411194,317.344879 
	C439.367279,317.344879 364.973450,317.344879 290.382690,317.344879 
	C290.382690,319.459808 290.382690,321.323120 290.382690,323.606964 
	C350.313263,323.606964 409.906494,323.606964 470.499756,323.607056 
M336.500000,237.965027 
	C299.766785,237.965027 263.033569,237.965027 226.283112,237.965027 
	C226.283112,240.408264 226.283112,242.197815 226.283112,244.278046 
	C292.159332,244.278046 357.839081,244.278046 423.622314,244.278046 
	C423.622314,242.100601 423.622314,240.207520 423.622314,237.965027 
	C394.716248,237.965027 366.108124,237.965027 336.500000,237.965027 
M357.500000,446.903778 
	C379.406616,446.903778 401.313232,446.903778 423.246216,446.903778 
	C423.246216,444.382050 423.246216,442.636658 423.246216,440.784302 
	C357.395996,440.784302 291.878235,440.784302 226.360733,440.784302 
	C226.360733,442.940491 226.360733,444.692352 226.360733,446.903778 
	C269.937286,446.903778 313.218658,446.903778 357.500000,446.903778 
M348.500244,338.430176 
	C329.740021,338.430176 310.979767,338.430176 292.044312,338.430176 
	C292.044312,340.905945 292.044312,342.832153 292.044312,344.739380 
	C349.508942,344.739380 406.725861,344.739380 464.163788,344.739380 
	C464.061371,342.525238 463.973633,340.628479 463.871948,338.430267 
	C425.405640,338.430267 387.452972,338.430267 348.500244,338.430176 
M250.500031,216.118576 
	C242.541397,216.118576 234.582764,216.118576 226.358704,216.118576 
	C226.358704,218.518372 226.358704,220.418396 226.358704,222.600555 
	C267.782867,222.600555 309.010590,222.600555 350.531372,222.600555 
	C350.531372,220.480698 350.531372,218.586044 350.531372,216.118576 
	C317.378082,216.118576 284.439056,216.118576 250.500031,216.118576 
M289.499939,298.165680 
	C320.869904,298.165680 352.239868,298.165680 383.903168,298.165680 
	C383.792633,295.699799 383.715210,293.973083 383.637970,292.250732 
	C342.304688,292.250732 301.444275,292.250732 260.416870,292.250732 
	C260.416870,294.233948 260.416870,295.959229 260.416870,298.165680 
	C269.944519,298.165680 279.222229,298.165680 289.499939,298.165680 
M338.479218,270.096222 
	C312.538239,270.096222 286.597260,270.096222 260.435211,270.096222 
	C260.435211,272.461212 260.435211,274.319763 260.435211,276.272644 
	C290.680450,276.272644 320.579498,276.272644 350.582001,276.272644 
	C350.582001,274.173737 350.582001,272.410797 350.582001,270.096222 
	C346.713654,270.096222 343.090851,270.096222 338.479218,270.096222 
M344.281860,372.881439 
	C346.188995,372.881439 348.096130,372.881439 350.022522,372.881439 
	C350.022522,370.237518 350.022522,368.319000 350.022522,366.398041 
	C319.996246,366.398041 290.300385,366.398041 260.384949,366.398041 
	C260.384949,368.574036 260.384949,370.469666 260.384949,372.881439 
	C288.213684,372.881439 315.772888,372.881439 344.281860,372.881439 
M315.500000,387.963409 
	C297.092102,387.963409 278.684235,387.963409 260.346283,387.963409 
	C260.346283,390.454193 260.346283,392.236755 260.346283,394.144165 
	C290.569580,394.144165 320.556152,394.144165 350.576538,394.144165 
	C350.576538,391.951172 350.576538,390.189484 350.576538,387.963409 
	C339.056488,387.963409 327.778259,387.963409 315.500000,387.963409 
z"/>
<path fill="#212E3F" opacity="1.000000" stroke="none" 
	d="
M744.999756,309.001007 
	C743.639282,313.983368 742.278809,318.965729 740.470215,324.378418 
	C719.783875,324.808746 699.545532,324.808746 679.323914,324.808746 
	C679.323914,327.209747 679.323914,328.944244 679.323914,331.068298 
	C699.384033,331.068298 719.159912,331.068298 738.935791,331.068298 
	C738.523926,338.515472 737.864380,345.958954 737.754333,353.410583 
	C737.555664,366.860168 740.863464,379.649628 745.339844,392.450775 
	C722.987488,392.831818 701.084778,392.831818 679.095825,392.831818 
	C679.095825,395.146149 679.095825,396.879883 679.095825,398.997711 
	C680.965759,398.997711 682.602112,398.997711 684.238403,398.997711 
	C704.365417,398.997711 724.492493,398.982544 744.619385,399.023834 
	C746.414978,399.027496 748.209778,399.397949 750.004944,399.598083 
	C754.224670,406.147125 758.444397,412.696167 762.305054,419.612183 
	C734.362732,419.979156 706.779419,419.979156 679.086792,419.979156 
	C679.086792,422.241547 679.086792,423.981323 679.086792,426.098969 
	C709.246948,426.098969 739.164734,426.098969 769.082458,426.098969 
	C783.281616,441.244141 800.178650,452.174988 820.473267,456.813110 
	C848.214661,463.153107 875.205627,460.852936 900.777039,447.460205 
	C901.345947,447.162231 901.963745,446.957550 902.774536,446.619354 
	C905.869812,450.503113 908.929688,454.342346 911.255615,457.260651 
	C909.367004,462.642456 907.705200,467.378021 905.469116,472.462830 
	C817.955627,472.822845 731.016357,472.833618 644.010742,472.389496 
	C643.914062,471.102539 643.857239,470.270508 643.857178,469.438477 
	C643.852783,376.624268 643.852112,283.810028 643.857727,190.995819 
	C643.857788,189.998444 643.941956,189.001083 643.986816,188.003708 
	C751.751099,188.003708 859.515442,188.003708 967.650940,188.003708 
	C967.650940,269.154602 967.650940,350.021637 967.650940,430.565918 
	C963.935608,430.077179 960.021729,428.889679 956.261230,429.259705 
	C952.612122,429.618805 949.120361,431.577087 945.208496,432.956940 
	C941.979553,428.333527 938.561523,423.439240 935.228882,418.667267 
	C940.129211,411.001984 944.984436,403.477753 949.770447,395.909760 
	C994.400085,325.337402 949.288513,232.610519 866.218872,224.430573 
	C845.185608,222.359406 825.175903,226.718582 806.233093,236.034470 
	C805.040833,236.620850 803.821899,237.152969 801.838257,237.795044 
	C760.481384,237.879700 719.901611,237.879700 679.083191,237.879700 
	C679.083191,240.026245 679.083191,241.766083 679.083191,244.051468 
	C716.786682,244.051468 754.366455,244.051468 791.946228,244.051468 
	C787.426208,248.143692 782.735962,252.064926 778.418640,256.360840 
	C766.390930,268.329102 758.209900,282.987091 750.035950,297.630341 
	C749.235291,299.064697 748.446045,300.505432 747.094360,302.078979 
	C724.129028,302.214752 701.720825,302.214752 679.368652,302.214752 
	C679.368652,304.691986 679.368652,306.594299 679.368652,309.001007 
	C701.465393,309.001007 723.232605,309.001007 744.999756,309.001007 
M885.500000,222.877655 
	C904.248840,222.877655 922.997681,222.877655 941.613647,222.877655 
	C941.613647,220.242523 941.613647,218.340225 941.613647,216.485046 
	C853.908508,216.485046 766.570129,216.485046 679.358032,216.485046 
	C679.358032,218.757523 679.358032,220.661896 679.358032,222.877670 
	C747.977356,222.877670 816.238708,222.877670 885.500000,222.877655 
z"/>
<path fill="#212E3F" opacity="1.000000" stroke="none" 
	d="
M95.157211,149.993408 
	C95.156395,110.831383 95.149979,72.168053 95.156998,33.504715 
	C95.159973,17.092714 102.572983,9.554543 118.833580,9.549835 
	C188.160950,9.529766 257.488312,9.533819 326.815674,9.547365 
	C341.162384,9.550168 348.988464,17.421055 348.992035,31.802834 
	C349.002533,73.799217 348.623871,115.800491 349.176666,157.789597 
	C349.401093,174.835236 340.342316,183.183655 323.465790,183.077408 
	C284.970642,182.835052 246.472916,183.000916 207.976227,183.000900 
	C178.145462,183.000900 148.312714,183.173096 118.485909,182.829712 
	C113.567818,182.773056 108.192627,181.336700 103.886269,178.974533 
	C97.617569,175.535980 95.419655,169.004410 95.187721,161.989883 
	C95.061127,158.161133 95.159912,154.324936 95.157211,149.993408 
M235.993027,99.500000 
	C235.993027,112.936340 235.993027,126.372681 235.993027,139.695587 
	C238.478851,139.695587 240.389389,139.695587 242.673157,139.695587 
	C242.673157,132.090179 242.941422,124.777550 242.611343,117.492035 
	C242.094849,106.092262 251.507339,93.447174 265.473053,94.829353 
	C266.375580,94.918678 267.294617,94.840981 268.542145,94.840981 
	C261.291809,84.224091 261.168732,75.787811 267.838623,69.859367 
	C273.645264,64.698212 282.572784,64.200378 288.362640,69.480995 
	C290.891541,71.787460 292.856445,75.321770 293.770111,78.656677 
	C295.423492,84.691544 292.523987,89.848183 288.578949,94.101349 
	C293.071686,94.926987 297.575256,94.943283 301.347870,96.612022 
	C309.952423,100.418083 313.740448,107.855019 314.000549,117.026817 
	C314.215973,124.623192 314.044617,132.230530 314.044617,139.703201 
	C316.637115,139.703201 318.560364,139.703201 320.545654,139.703201 
	C320.545654,112.678429 320.545654,85.957100 320.545654,59.202576 
	C292.229004,59.202576 264.213470,59.202576 235.993027,59.202576 
	C235.993027,72.551704 235.993027,85.525848 235.993027,99.500000 
M214.327682,78.838280 
	C183.227264,78.838280 152.126831,78.838280 121.007629,78.838280 
	C121.007629,81.178062 121.007629,82.914406 121.007629,84.790451 
	C153.383301,84.790451 185.470398,84.790451 218.134262,84.790451 
	C217.091125,82.554153 220.346542,79.056557 214.327682,78.838280 
M176.500061,53.393780 
	C158.071350,53.393780 139.642654,53.393780 120.937370,53.393780 
	C120.937370,55.753811 120.937370,57.644897 120.937370,59.684376 
	C146.801788,59.684376 172.354874,59.684376 198.205933,59.684376 
	C198.205933,57.593082 198.205933,55.721649 198.205933,53.393864 
	C191.075516,53.393864 184.287735,53.393864 176.500061,53.393780 
M195.400238,101.002670 
	C170.657486,101.002670 145.914719,101.002670 120.946457,101.002670 
	C120.946457,103.172340 120.946457,104.908188 120.946457,106.846283 
	C146.811279,106.846283 172.484207,106.846283 199.665344,106.846283 
	C198.256638,104.342384 197.319366,102.676453 195.400238,101.002670 
z"/>
<path fill="#E7E7E7" opacity="1.000000" stroke="none" 
	d="
M876.000000,513.078613 
	C650.688232,513.108704 425.876434,513.138611 201.064667,513.167969 
	C199.398178,513.168152 197.727646,513.086060 196.066071,513.174683 
	C193.167282,513.329346 191.788864,512.192322 191.822617,509.126282 
	C191.918030,500.461517 191.910904,491.794434 191.821960,483.129517 
	C191.792236,480.233276 192.778687,478.707733 195.862183,478.914337 
	C197.355087,479.014404 198.860657,478.921997 200.360504,478.921997 
	C433.671844,478.921539 666.983215,478.938446 900.294495,478.815460 
	C905.646240,478.812622 909.111572,480.069000 912.133667,484.812408 
	C917.403320,493.083679 923.559326,500.789581 929.323914,508.746918 
	C930.074829,509.783478 930.707764,510.905518 932.088074,513.078491 
	C912.917053,513.078491 894.708496,513.078491 876.000000,513.078613 
M264.498596,505.166901 
	C269.918518,505.166901 275.338470,505.166901 280.717102,505.166901 
	C280.717102,498.419342 280.717102,492.348755 280.717102,486.000397 
	C268.280579,486.000397 256.144257,486.000366 244.007935,486.000366 
	C231.750595,486.000366 219.493256,486.000397 207.298141,486.000397 
	C207.298141,492.721130 207.298141,498.804535 207.298141,505.166901 
	C226.229279,505.166901 244.864075,505.166901 264.498596,505.166901 
z"/>
<path fill="#E7E7E7" opacity="1.000000" stroke="none" 
	d="
M46.107677,386.100403 
	C51.589180,366.984283 56.958996,348.259521 62.328804,329.534790 
	C65.125168,319.783783 67.696327,317.837616 77.970375,317.836090 
	C133.124756,317.827911 188.279144,317.829620 243.433517,317.834351 
	C250.572357,317.834961 250.783569,318.048950 248.860947,324.786224 
	C240.544800,353.927917 232.218277,383.066711 223.814682,412.183258 
	C221.069717,421.693909 218.011780,423.957825 207.981918,423.904480 
	C152.860474,423.611298 97.739319,423.262543 42.618183,422.913544 
	C36.912373,422.877380 36.143311,421.904144 37.660862,416.318512 
	C40.367355,406.356750 43.210163,396.432007 46.107677,386.100403 
z"/>
<path fill="#E6E6E6" opacity="1.000000" stroke="none" 
	d="
M356.029907,163.030136 
	C355.748535,159.263275 355.229309,155.489029 355.346161,151.734558 
	C355.376984,150.744461 357.235046,149.486633 358.506287,148.956299 
	C359.645050,148.481262 361.130951,148.829437 362.463684,148.829422 
	C485.257538,148.828079 608.051392,148.840561 730.845215,148.773514 
	C734.885254,148.771301 737.845154,149.516861 740.733643,152.911285 
	C746.964478,160.233353 755.440430,163.784363 765.036987,163.864105 
	C785.362366,164.032959 805.691895,164.069473 826.016235,163.847595 
	C835.527954,163.743774 844.092529,160.549072 850.389404,153.091721 
	C853.287537,149.659546 856.522583,148.733627 860.822632,148.751160 
	C894.811157,148.889816 928.800964,148.914658 962.789001,148.730576 
	C967.599365,148.704514 969.237915,150.110748 969.001282,154.943802 
	C968.643250,162.257309 968.791443,169.603714 968.953369,176.931076 
	C969.033020,180.535339 967.759338,182.270233 964.035278,181.944611 
	C962.712646,181.828979 961.371094,181.930603 960.038208,181.930618 
	C758.936218,181.930832 557.834229,181.930832 356.732239,181.930832 
	C354.449951,181.930832 352.167664,181.930832 350.021973,181.930832 
	C351.914490,176.551697 353.630432,171.674423 355.958282,166.476135 
	C373.499420,166.158951 390.428680,166.164276 407.357910,166.163406 
	C408.518738,166.163345 409.726532,166.297272 410.819733,166.012634 
	C411.331360,165.879425 411.819458,164.930435 411.930969,164.284302 
	C411.988861,163.948914 411.258392,163.206528 410.787537,163.107635 
	C409.830750,162.906723 408.808411,163.002579 407.813110,163.002960 
	C390.552032,163.009598 373.290955,163.020309 356.029907,163.030136 
M937.116028,155.182907 
	C936.669556,155.591110 935.840149,155.993866 935.834229,156.408340 
	C935.749878,162.340912 935.776672,168.275055 935.776672,174.226135 
	C944.078186,174.226135 951.841431,174.226135 959.657288,174.226135 
	C959.657288,167.815933 959.657288,161.725677 959.657288,155.146378 
	C952.263184,155.146378 945.140625,155.146378 937.116028,155.182907 
M903.824768,160.624756 
	C903.824768,165.085464 903.824768,169.546173 903.824768,174.135925 
	C912.107910,174.135925 919.953613,174.135925 927.701416,174.135925 
	C927.701416,167.654388 927.701416,161.579437 927.701416,155.450256 
	C919.661560,155.450256 911.939392,155.450256 904.044128,155.450256 
	C903.960876,157.048920 903.892883,158.354034 903.824768,160.624756 
M883.492859,155.143311 
	C879.406006,155.143311 875.319153,155.143311 871.242065,155.143311 
	C871.242065,161.923935 871.242065,168.005478 871.242065,174.274231 
	C879.246094,174.274231 886.991089,174.274231 894.788452,174.274231 
	C894.788452,167.810226 894.788452,161.617493 894.788452,155.143311 
	C891.090393,155.143311 887.785278,155.143311 883.492859,155.143311 
M450.500000,163.002914 
	C443.670258,163.003174 436.839508,162.945587 430.011810,163.063675 
	C428.939697,163.082230 427.881409,163.897736 426.816711,164.344742 
	C427.899689,164.950516 428.979614,166.078003 430.066101,166.084396 
	C448.555725,166.192963 467.046326,166.191452 485.536072,166.093246 
	C486.685883,166.087128 487.830353,165.080826 488.977295,164.539856 
	C487.812225,164.027664 486.651489,163.082077 485.481445,163.070496 
	C474.155212,162.958359 462.827362,163.003021 450.500000,163.002914 
z"/>
<path fill="#E7E7E7" opacity="1.000000" stroke="none" 
	d="
M573.000000,519.921509 
	C591.828186,519.921692 610.158081,520.055664 628.483398,519.826721 
	C632.964661,519.770691 634.114075,521.245789 634.087952,525.560974 
	C633.918884,553.552124 633.932373,581.545105 634.077209,609.536560 
	C634.098267,613.603760 632.958313,615.026672 628.740723,615.004395 
	C599.583008,614.850220 570.423706,614.850708 541.265991,615.004089 
	C537.057190,615.026245 535.901367,613.618835 535.922424,609.543274 
	C536.067932,581.385193 536.057251,553.225830 535.931763,525.067566 
	C535.914673,521.228638 536.978210,519.754150 541.010559,519.844360 
	C551.502380,520.078979 562.002930,519.922302 573.000000,519.921509 
z"/>
<path fill="#E7E7E7" opacity="1.000000" stroke="none" 
	d="
M1042.190674,537.894409 
	C1048.373413,546.747559 1047.853394,552.890991 1039.994141,559.497498 
	C1034.016235,564.522522 1027.748657,569.232971 1021.365784,573.737305 
	C1015.448792,577.912903 1009.310425,576.812927 1005.137268,571.164124 
	C980.326904,537.580688 955.540894,503.979187 930.779602,470.359528 
	C926.351868,464.347748 927.102112,458.178314 933.179504,453.243927 
	C938.856689,448.634521 944.778015,444.306396 950.769897,440.108582 
	C959.992615,433.647247 964.899170,434.499237 971.786499,443.627655 
	C981.906982,457.041199 991.944763,470.517212 1001.996216,483.982758 
	C1015.331726,501.847900 1028.646484,519.728577 1042.190674,537.894409 
z"/>
<path fill="#E7E7E7" opacity="1.000000" stroke="none" 
	d="
M499.000000,644.168945 
	C479.506073,644.168640 460.511078,644.061890 441.518982,644.248230 
	C437.223328,644.290405 435.426971,643.083191 435.742767,638.595581 
	C436.069489,633.953003 435.572784,629.247070 435.997040,624.620300 
	C436.115662,623.326660 438.062408,621.960022 439.464447,621.114014 
	C440.322540,620.596191 441.739929,620.999268 442.906158,620.999268 
	C537.875793,620.998291 632.845459,620.997925 727.815125,620.999207 
	C734.948242,620.999268 734.951111,621.005310 734.956848,627.992676 
	C734.960083,631.991394 734.855225,635.993164 734.981873,639.987793 
	C735.075073,642.925659 733.978882,644.375977 730.924866,644.174683 
	C729.432068,644.076294 727.927063,644.167725 726.427551,644.167725 
	C650.785034,644.168396 575.142517,644.168518 499.000000,644.168945 
z"/>
<path fill="#E5E6E6" opacity="1.000000" stroke="none" 
	d="
M798.031311,249.008911 
	C835.223816,223.482269 887.276001,225.831970 921.831848,254.218613 
	C944.502197,272.841614 957.087097,296.816528 960.058350,325.822906 
	C963.385071,358.300476 952.891663,386.081451 930.685181,409.694366 
	C925.787354,414.902435 925.745239,416.069733 930.018860,422.093231 
	C933.570740,427.099487 937.128540,432.101593 941.089111,437.676239 
	C936.828491,440.812439 932.870056,443.726166 928.329468,447.068420 
	C924.739014,442.168365 921.323547,437.547760 917.951782,432.895416 
	C913.382324,426.590302 910.948425,425.876770 904.131714,429.595795 
	C886.431030,439.252777 867.551758,441.600677 847.637390,440.344391 
	C827.801697,439.093048 810.010437,432.788422 794.692749,420.597870 
	C765.078735,397.029510 748.486511,366.612946 752.382202,328.054565 
	C755.673035,295.482697 770.179260,268.333588 798.031311,249.008911 
M904.229309,254.226547 
	C882.807922,241.918365 859.869995,238.044815 835.851929,243.477432 
	C786.071411,254.737274 753.871460,303.285522 763.298950,353.270111 
	C772.050232,399.669373 811.266785,431.917389 859.792786,430.631012 
	C878.063171,430.146637 895.186279,424.494629 910.143921,413.520996 
	C940.858032,390.987579 953.737915,360.208008 949.365967,322.916107 
	C945.893311,293.295563 930.273254,270.484955 904.229309,254.226547 
z"/>
<path fill="#E7E7E7" opacity="1.000000" stroke="none" 
	d="
M733.775696,106.899277 
	C740.005798,99.042656 747.736694,95.693489 757.491394,95.835091 
	C777.959045,96.132210 798.434692,95.831360 818.905396,95.989578 
	C831.337830,96.085663 842.045715,105.880730 843.870422,118.364777 
	C845.638977,130.464569 837.953552,142.522858 825.967285,146.134201 
	C823.629822,146.838455 821.064209,147.030457 818.602478,147.038574 
	C797.797974,147.107208 776.992432,146.983139 756.188538,147.119339 
	C746.005127,147.186005 737.935120,143.435364 732.872925,134.543030 
	C727.689148,125.437294 727.595337,116.164879 733.775696,106.899277 
M813.413147,103.935547 
	C804.710815,104.516266 797.062500,110.871109 796.039368,118.371246 
	C794.832520,127.216843 799.083618,135.233749 806.414001,137.936340 
	C816.068359,141.495743 826.767517,136.202545 829.571533,126.479683 
	C832.592590,116.004211 825.973267,106.273476 813.413147,103.935547 
z"/>
<path fill="#E6E6E6" opacity="1.000000" stroke="none" 
	d="
M788.000000,21.994442 
	C798.660706,21.998795 808.824402,21.847382 818.981262,22.047899 
	C831.017212,22.285515 842.034546,31.607988 843.893372,42.784317 
	C846.007751,55.497791 839.487488,67.521133 827.900757,71.758896 
	C825.309509,72.706642 822.378540,73.092628 819.600952,73.105835 
	C797.947571,73.208763 776.292847,73.243996 754.639587,73.123253 
	C740.075134,73.042046 729.961365,62.704094 729.838623,48.120995 
	C729.717346,33.711887 740.323425,22.354445 754.520447,22.060318 
	C765.509338,21.832655 776.506531,22.001740 788.000000,21.994442 
M745.359497,34.985062 
	C738.965393,45.253300 741.740295,57.311546 751.512512,61.723007 
	C759.539490,65.346611 769.280762,62.454563 773.803467,55.105072 
	C778.305542,47.789051 776.574951,37.327728 769.998535,32.104206 
	C762.616516,26.240780 753.152344,27.148476 745.359497,34.985062 
z"/>
<path fill="#E7E7E7" opacity="1.000000" stroke="none" 
	d="
M643.529297,188.006973 
	C643.941956,189.001083 643.857788,189.998444 643.857727,190.995819 
	C643.852112,283.810028 643.852783,376.624268 643.857178,469.438477 
	C643.857239,470.270508 643.914062,471.102539 643.930908,472.608307 
	C643.917419,473.282043 643.813599,473.736176 643.813599,473.736176 
	C640.120728,473.480774 636.427856,473.225372 632.285156,472.958588 
	C632.013184,471.474854 632.346619,470.002502 632.346863,468.530121 
	C632.359314,375.324127 632.344727,282.118134 632.249329,188.449158 
	C635.801331,187.994202 639.436523,188.002228 643.529297,188.006973 
z"/>
<path fill="#202D3E" opacity="1.000000" stroke="none" 
	d="
M50.851471,300.051453 
	C52.195377,299.671631 53.538960,298.960999 54.883224,298.959686 
	C110.862785,298.905731 166.842407,298.914581 222.822021,298.923981 
	C223.639084,298.924133 224.456131,299.030518 225.629761,299.112091 
	C225.629761,302.596039 225.629761,305.982849 225.629761,309.997986 
	C223.679092,309.997986 221.740097,309.997986 219.801102,309.997986 
	C172.484985,309.998016 125.168884,309.996979 77.852776,309.998810 
	C65.080139,309.999298 59.349792,314.329865 55.858646,326.505432 
	C54.448326,331.423950 52.918091,336.308075 51.205105,340.620239 
	C50.929008,326.705536 50.890240,313.378479 50.851471,300.051453 
z"/>
<path fill="#233040" opacity="1.000000" stroke="none" 
	d="
M1007.934326,581.783813 
	C1005.219849,586.584290 999.174438,587.470093 994.342163,583.738953 
	C992.403809,582.242371 990.780945,580.239075 989.312256,578.246887 
	C965.430237,545.851013 941.590393,513.424011 917.755310,480.993500 
	C912.122803,473.329773 912.734497,467.092224 918.756714,462.682587 
	C933.371460,488.443909 952.791626,510.944275 969.755493,535.125061 
	C978.922180,548.191650 988.613403,560.900635 998.388855,573.522461 
	C1000.846436,576.695679 1004.539062,578.912415 1007.934326,581.783813 
z"/>
<path fill="#E7E7E7" opacity="1.000000" stroke="none" 
	d="
M228.871216,419.039368 
	C269.542175,418.850372 309.933258,418.850372 350.545166,418.850372 
	C350.545166,421.015259 350.545166,422.629089 350.545166,424.999664 
	C349.017761,424.999664 347.429901,424.999664 345.842010,424.999664 
	C307.563141,424.999664 269.284210,425.013855 231.005447,424.950897 
	C229.380249,424.948242 227.756210,424.230621 226.054626,423.423981 
	C226.848862,421.744019 227.720093,420.486206 228.871216,419.039368 
z"/>
<path fill="#E7E7E7" opacity="1.000000" stroke="none" 
	d="
M792.284424,243.952026 
	C754.366455,244.051468 716.786682,244.051468 679.083191,244.051468 
	C679.083191,241.766083 679.083191,240.026245 679.083191,237.879700 
	C719.901611,237.879700 760.481384,237.879700 801.523926,237.954849 
	C798.865356,239.970856 795.743958,241.911728 792.284424,243.952026 
z"/>
<path fill="#E7E7E7" opacity="1.000000" stroke="none" 
	d="
M769.056763,425.742096 
	C739.164734,426.098969 709.246948,426.098969 679.086792,426.098969 
	C679.086792,423.981323 679.086792,422.241547 679.086792,419.979156 
	C706.779419,419.979156 734.362732,419.979156 762.403931,419.922485 
	C764.918274,421.705597 766.974670,423.545410 769.056763,425.742096 
z"/>
<path fill="#E7E7E7" opacity="1.000000" stroke="none" 
	d="
M745.171204,308.669006 
	C723.232605,309.001007 701.465393,309.001007 679.368652,309.001007 
	C679.368652,306.594299 679.368652,304.691986 679.368652,302.214752 
	C701.720825,302.214752 724.129028,302.214752 746.940613,302.337158 
	C746.676819,304.418701 746.009705,306.377869 745.171204,308.669006 
z"/>
<path fill="#C6CBD6" opacity="1.000000" stroke="none" 
	d="
M192.350800,472.993408 
	C194.211838,472.736938 196.375214,472.796234 198.538574,472.796326 
	C342.724335,472.802277 486.910065,472.803467 631.572998,472.821045 
	C629.982727,473.224945 627.915344,473.951752 625.847778,473.952515 
	C483.400116,474.005829 340.952484,474.003845 198.504822,473.971130 
	C196.554214,473.970703 194.603699,473.521332 192.350800,472.993408 
z"/>
<path fill="#E7E7E7" opacity="1.000000" stroke="none" 
	d="
M749.865967,399.240387 
	C748.209778,399.397949 746.414978,399.027496 744.619385,399.023834 
	C724.492493,398.982544 704.365417,398.997711 684.238403,398.997711 
	C682.602112,398.997711 680.965759,398.997711 679.095825,398.997711 
	C679.095825,396.879883 679.095825,395.146149 679.095825,392.831818 
	C701.084778,392.831818 722.987488,392.831818 745.347046,392.811096 
	C747.111572,394.821167 748.419250,396.851929 749.865967,399.240387 
z"/>
<path fill="#E7E7E7" opacity="1.000000" stroke="none" 
	d="
M739.208313,330.816589 
	C719.159912,331.068298 699.384033,331.068298 679.323914,331.068298 
	C679.323914,328.944244 679.323914,327.209747 679.323914,324.808746 
	C699.545532,324.808746 719.783875,324.808746 740.485779,324.769531 
	C740.459839,326.675171 739.970337,328.620026 739.208313,330.816589 
z"/>
<path fill="#C6CBD6" opacity="1.000000" stroke="none" 
	d="
M644.295044,473.813232 
	C643.813599,473.736176 643.917419,473.282043 643.997253,473.063232 
	C731.016357,472.833618 817.955627,472.822845 905.351074,472.830994 
	C904.898254,473.233215 903.989319,473.951874 903.080200,473.952026 
	C816.978943,473.966766 730.877686,473.926788 644.295044,473.813232 
z"/>
<path fill="#212E3F" opacity="1.000000" stroke="none" 
	d="
M355.918610,163.406433 
	C373.290955,163.020309 390.552032,163.009598 407.813110,163.002960 
	C408.808411,163.002579 409.830750,162.906723 410.787537,163.107635 
	C411.258392,163.206528 411.988861,163.948914 411.930969,164.284302 
	C411.819458,164.930435 411.331360,165.879425 410.819733,166.012634 
	C409.726532,166.297272 408.518738,166.163345 407.357910,166.163406 
	C390.428680,166.164276 373.499420,166.158951 356.067139,166.130585 
	C355.645172,165.331604 355.726257,164.557159 355.918610,163.406433 
z"/>
<path fill="#C6CBD6" opacity="1.000000" stroke="none" 
	d="
M50.648235,300.404358 
	C50.890240,313.378479 50.929008,326.705536 50.940819,340.498169 
	C50.619686,339.027435 50.065453,337.089935 50.074100,335.154968 
	C50.125351,323.688751 50.307117,312.223114 50.648235,300.404358 
z"/>
<path fill="#C6CBD6" opacity="1.000000" stroke="none" 
	d="
M192.335968,292.180328 
	C205.013672,291.958710 218.015305,291.996796 231.473038,292.127625 
	C228.192673,292.480682 224.455017,292.974426 220.719955,292.955292 
	C211.365967,292.907379 202.013153,292.627106 192.335968,292.180328 
z"/>
<path fill="#C6CBD6" opacity="1.000000" stroke="none" 
	d="
M50.431965,344.085510 
	C50.379635,344.034973 50.571079,343.866211 50.571079,343.866211 
	C50.571079,343.866211 50.484295,344.136017 50.431965,344.085510 
z"/>
<path fill="#E4E5E5" opacity="1.000000" stroke="none" 
	d="
M522.999878,281.171112 
	C506.881927,281.171112 491.263947,281.171112 475.369812,281.171112 
	C475.369812,257.500153 475.369812,234.248322 475.369812,210.577972 
	C519.627441,210.577972 563.953491,210.577972 608.578613,210.577972 
	C608.578613,233.869843 608.578613,257.106293 608.578613,281.171112 
	C580.257996,281.171112 551.878967,281.171112 522.999878,281.171112 
M580.499878,216.158417 
	C547.620605,216.158417 514.741272,216.158417 481.838013,216.158417 
	C481.838013,234.580582 481.838013,252.268036 481.838013,269.959229 
	C482.560699,269.959229 482.997620,270.095764 483.193390,269.936310 
	C484.212494,269.106079 485.086670,268.078705 486.162598,267.340485 
	C494.620422,261.537506 502.707062,255.031891 511.688965,250.192032 
	C525.387695,242.810486 540.635010,242.134308 555.911865,242.488403 
	C568.362671,242.776993 580.047058,239.997543 590.337280,232.700516 
	C595.962463,228.711609 600.207764,223.585052 602.477966,216.158417 
	C595.037659,216.158417 588.268677,216.158417 580.499878,216.158417 
z"/>
<path fill="#D1D3D5" opacity="1.000000" stroke="none" 
	d="
M469.999756,323.606995 
	C409.906494,323.606964 350.313263,323.606964 290.382690,323.606964 
	C290.382690,321.323120 290.382690,319.459808 290.382690,317.344879 
	C364.973450,317.344879 439.367279,317.344879 514.411194,317.344879 
	C514.499756,319.140381 514.592102,321.013062 514.720032,323.607056 
	C499.692047,323.607056 485.095886,323.607056 469.999756,323.606995 
z"/>
<path fill="#D9D9DB" opacity="1.000000" stroke="none" 
	d="
M337.000000,237.965027 
	C366.108124,237.965027 394.716248,237.965027 423.622314,237.965027 
	C423.622314,240.207520 423.622314,242.100601 423.622314,244.278046 
	C357.839081,244.278046 292.159332,244.278046 226.283112,244.278046 
	C226.283112,242.197815 226.283112,240.408264 226.283112,237.965027 
	C263.033569,237.965027 299.766785,237.965027 337.000000,237.965027 
z"/>
<path fill="#D1D3D5" opacity="1.000000" stroke="none" 
	d="
M357.000000,446.903778 
	C313.218658,446.903778 269.937286,446.903778 226.360733,446.903778 
	C226.360733,444.692352 226.360733,442.940491 226.360733,440.784302 
	C291.878235,440.784302 357.395996,440.784302 423.246216,440.784302 
	C423.246216,442.636658 423.246216,444.382050 423.246216,446.903778 
	C401.313232,446.903778 379.406616,446.903778 357.000000,446.903778 
z"/>
<path fill="#D9D9DB" opacity="1.000000" stroke="none" 
	d="
M349.000275,338.430237 
	C387.452972,338.430267 425.405640,338.430267 463.871948,338.430267 
	C463.973633,340.628479 464.061371,342.525238 464.163788,344.739380 
	C406.725861,344.739380 349.508942,344.739380 292.044312,344.739380 
	C292.044312,342.832153 292.044312,340.905945 292.044312,338.430176 
	C310.979767,338.430176 329.740021,338.430176 349.000275,338.430237 
z"/>
<path fill="#D8D9DA" opacity="1.000000" stroke="none" 
	d="
M251.000031,216.118576 
	C284.439056,216.118576 317.378082,216.118576 350.531372,216.118576 
	C350.531372,218.586044 350.531372,220.480698 350.531372,222.600555 
	C309.010590,222.600555 267.782867,222.600555 226.358704,222.600555 
	C226.358704,220.418396 226.358704,218.518372 226.358704,216.118576 
	C234.582764,216.118576 242.541397,216.118576 251.000031,216.118576 
z"/>
<path fill="#E6E6E6" opacity="1.000000" stroke="none" 
	d="
M288.999939,298.165680 
	C279.222229,298.165680 269.944519,298.165680 260.416870,298.165680 
	C260.416870,295.959229 260.416870,294.233948 260.416870,292.250732 
	C301.444275,292.250732 342.304688,292.250732 383.637970,292.250732 
	C383.715210,293.973083 383.792633,295.699799 383.903168,298.165680 
	C352.239868,298.165680 320.869904,298.165680 288.999939,298.165680 
z"/>
<path fill="#D1D3D5" opacity="1.000000" stroke="none" 
	d="
M338.973633,270.096222 
	C343.090851,270.096222 346.713654,270.096222 350.582001,270.096222 
	C350.582001,272.410797 350.582001,274.173737 350.582001,276.272644 
	C320.579498,276.272644 290.680450,276.272644 260.435211,276.272644 
	C260.435211,274.319763 260.435211,272.461212 260.435211,270.096222 
	C286.597260,270.096222 312.538239,270.096222 338.973633,270.096222 
z"/>
<path fill="#D8D9DA" opacity="1.000000" stroke="none" 
	d="
M343.806976,372.881439 
	C315.772888,372.881439 288.213684,372.881439 260.384949,372.881439 
	C260.384949,370.469666 260.384949,368.574036 260.384949,366.398041 
	C290.300385,366.398041 319.996246,366.398041 350.022522,366.398041 
	C350.022522,368.319000 350.022522,370.237518 350.022522,372.881439 
	C348.096130,372.881439 346.188995,372.881439 343.806976,372.881439 
z"/>
<path fill="#D8D9DA" opacity="1.000000" stroke="none" 
	d="
M316.000000,387.963409 
	C327.778259,387.963409 339.056488,387.963409 350.576538,387.963409 
	C350.576538,390.189484 350.576538,391.951172 350.576538,394.144165 
	C320.556152,394.144165 290.569580,394.144165 260.346283,394.144165 
	C260.346283,392.236755 260.346283,390.454193 260.346283,387.963409 
	C278.684235,387.963409 297.092102,387.963409 316.000000,387.963409 
z"/>
<path fill="#D9D9DB" opacity="1.000000" stroke="none" 
	d="
M885.000000,222.877655 
	C816.238708,222.877670 747.977356,222.877670 679.358032,222.877670 
	C679.358032,220.661896 679.358032,218.757523 679.358032,216.485046 
	C766.570129,216.485046 853.908508,216.485046 941.613647,216.485046 
	C941.613647,218.340225 941.613647,220.242523 941.613647,222.877655 
	C922.997681,222.877655 904.248840,222.877655 885.000000,222.877655 
z"/>
<path fill="#E4E4E4" opacity="1.000000" stroke="none" 
	d="
M235.993027,99.000000 
	C235.993027,85.525848 235.993027,72.551704 235.993027,59.202576 
	C264.213470,59.202576 292.229004,59.202576 320.545654,59.202576 
	C320.545654,85.957100 320.545654,112.678429 320.545654,139.703201 
	C318.560364,139.703201 316.637115,139.703201 314.044617,139.703201 
	C314.044617,132.230530 314.215973,124.623192 314.000549,117.026817 
	C313.740448,107.855019 309.952423,100.418083 301.347870,96.612022 
	C297.575256,94.943283 293.071686,94.926987 288.578949,94.101349 
	C292.523987,89.848183 295.423492,84.691544 293.770111,78.656677 
	C292.856445,75.321770 290.891541,71.787460 288.362640,69.480995 
	C282.572784,64.200378 273.645264,64.698212 267.838623,69.859367 
	C261.168732,75.787811 261.291809,84.224091 268.542145,94.840981 
	C267.294617,94.840981 266.375580,94.918678 265.473053,94.829353 
	C251.507339,93.447174 242.094849,106.092262 242.611343,117.492035 
	C242.941422,124.777550 242.673157,132.090179 242.673157,139.695587 
	C240.389389,139.695587 238.478851,139.695587 235.993027,139.695587 
	C235.993027,126.372681 235.993027,112.936340 235.993027,99.000000 
z"/>
<path fill="#E7E7E7" opacity="1.000000" stroke="none" 
	d="
M214.808960,78.839417 
	C220.346542,79.056557 217.091125,82.554153 218.134262,84.790451 
	C185.470398,84.790451 153.383301,84.790451 121.007629,84.790451 
	C121.007629,82.914406 121.007629,81.178062 121.007629,78.838280 
	C152.126831,78.838280 183.227264,78.838280 214.808960,78.839417 
z"/>
<path fill="#D1D3D5" opacity="1.000000" stroke="none" 
	d="
M177.000000,53.393822 
	C184.287735,53.393864 191.075516,53.393864 198.205933,53.393864 
	C198.205933,55.721649 198.205933,57.593082 198.205933,59.684376 
	C172.354874,59.684376 146.801788,59.684376 120.937370,59.684376 
	C120.937370,57.644897 120.937370,55.753811 120.937370,53.393780 
	C139.642654,53.393780 158.071350,53.393780 177.000000,53.393822 
z"/>
<path fill="#E7E7E7" opacity="1.000000" stroke="none" 
	d="
M195.891174,101.006592 
	C197.319366,102.676453 198.256638,104.342384 199.665344,106.846283 
	C172.484207,106.846283 146.811279,106.846283 120.946457,106.846283 
	C120.946457,104.908188 120.946457,103.172340 120.946457,101.002670 
	C145.914719,101.002670 170.657486,101.002670 195.891174,101.006592 
z"/>
<path fill="#202D3E" opacity="1.000000" stroke="none" 
	d="
M263.998718,505.166901 
	C244.864075,505.166901 226.229279,505.166901 207.298141,505.166901 
	C207.298141,498.804535 207.298141,492.721130 207.298141,486.000397 
	C219.493256,486.000397 231.750595,486.000366 244.007935,486.000366 
	C256.144257,486.000366 268.280579,486.000397 280.717102,486.000397 
	C280.717102,492.348755 280.717102,498.419342 280.717102,505.166901 
	C275.338470,505.166901 269.918518,505.166901 263.998718,505.166901 
z"/>
<path fill="#283545" opacity="1.000000" stroke="none" 
	d="
M937.567017,155.164642 
	C945.140625,155.146378 952.263184,155.146378 959.657288,155.146378 
	C959.657288,161.725677 959.657288,167.815933 959.657288,174.226135 
	C951.841431,174.226135 944.078186,174.226135 935.776672,174.226135 
	C935.776672,168.275055 935.749878,162.340912 935.834229,156.408340 
	C935.840149,155.993866 936.669556,155.591110 937.567017,155.164642 
z"/>
<path fill="#273444" opacity="1.000000" stroke="none" 
	d="
M903.824829,160.141937 
	C903.892883,158.354034 903.960876,157.048920 904.044128,155.450256 
	C911.939392,155.450256 919.661560,155.450256 927.701416,155.450256 
	C927.701416,161.579437 927.701416,167.654388 927.701416,174.135925 
	C919.953613,174.135925 912.107910,174.135925 903.824768,174.135925 
	C903.824768,169.546173 903.824768,165.085464 903.824829,160.141937 
z"/>
<path fill="#273444" opacity="1.000000" stroke="none" 
	d="
M883.986572,155.143311 
	C887.785278,155.143311 891.090393,155.143311 894.788452,155.143311 
	C894.788452,161.617493 894.788452,167.810226 894.788452,174.274231 
	C886.991089,174.274231 879.246094,174.274231 871.242065,174.274231 
	C871.242065,168.005478 871.242065,161.923935 871.242065,155.143311 
	C875.319153,155.143311 879.406006,155.143311 883.986572,155.143311 
z"/>
<path fill="#202D3E" opacity="1.000000" stroke="none" 
	d="
M451.000000,163.002914 
	C462.827362,163.003021 474.155212,162.958359 485.481445,163.070496 
	C486.651489,163.082077 487.812225,164.027664 488.977295,164.539856 
	C487.830353,165.080826 486.685883,166.087128 485.536072,166.093246 
	C467.046326,166.191452 448.555725,166.192963 430.066101,166.084396 
	C428.979614,166.078003 427.899689,164.950516 426.816711,164.344757 
	C427.881409,163.897736 428.939697,163.082230 430.011810,163.063675 
	C436.839508,162.945587 443.670258,163.003174 451.000000,163.002914 
z"/>
<path fill="#A5AFC2" opacity="1.000000" stroke="none" 
	d="
M904.538757,254.420410 
	C930.273254,270.484955 945.893311,293.295563 949.365967,322.916107 
	C953.737915,360.208008 940.858032,390.987579 910.143921,413.520996 
	C895.186279,424.494629 878.063171,430.146637 859.792786,430.631012 
	C811.266785,431.917389 772.050232,399.669373 763.298950,353.270111 
	C753.871460,303.285522 786.071411,254.737274 835.851929,243.477432 
	C859.869995,238.044815 882.807922,241.918365 904.538757,254.420410 
M768.091431,331.049042 
	C767.448730,344.483154 769.370911,357.626312 775.098511,369.723328 
	C778.778748,377.496399 784.324036,384.386414 789.201538,392.365326 
	C791.120056,394.188690 793.038635,396.012085 794.914551,398.551331 
	C804.427551,407.829681 815.015442,415.370422 828.528809,419.533295 
	C833.749878,420.794434 838.929504,422.293182 844.209961,423.213959 
	C846.755249,423.657776 849.490356,423.012970 852.988586,422.931976 
	C858.303772,422.646362 863.639404,422.564941 868.929932,422.033813 
	C881.042725,420.817749 892.188782,416.614777 902.404480,410.116943 
	C912.721619,403.554535 922.497864,396.045044 928.073364,384.913757 
	C936.324585,368.440521 938.894714,350.824432 935.740845,332.556793 
	C927.848145,286.840942 888.852783,257.301178 847.560730,258.909088 
	C819.656006,259.995636 797.004395,271.272980 779.692749,293.127075 
	C777.939941,295.339844 777.199036,298.354248 775.432007,301.438385 
	C774.636719,303.472046 773.841492,305.505737 772.719482,308.164001 
	C771.498291,313.245697 770.277039,318.327423 768.930298,324.259644 
	C768.632690,326.218719 768.335022,328.177765 768.091431,331.049042 
z"/>
<path fill="#A7B1C5" opacity="1.000000" stroke="none" 
	d="
M813.832642,103.947403 
	C825.973267,106.273476 832.592590,116.004211 829.571533,126.479683 
	C826.767517,136.202545 816.068359,141.495743 806.414001,137.936340 
	C799.083618,135.233749 794.832520,127.216843 796.039368,118.371246 
	C797.062500,110.871109 804.710815,104.516266 813.832642,103.947403 
z"/>
<path fill="#222F40" opacity="1.000000" stroke="none" 
	d="
M745.599243,34.703217 
	C753.152344,27.148476 762.616516,26.240780 769.998535,32.104206 
	C776.574951,37.327728 778.305542,47.789051 773.803467,55.105072 
	C769.280762,62.454563 759.539490,65.346611 751.512512,61.723007 
	C741.740295,57.311546 738.965393,45.253300 745.599243,34.703217 
z"/>
<path fill="#243142" opacity="1.000000" stroke="none" 
	d="
M580.999817,216.158417 
	C588.268677,216.158417 595.037659,216.158417 602.477966,216.158417 
	C600.207764,223.585052 595.962463,228.711609 590.337280,232.700516 
	C580.047058,239.997543 568.362671,242.776993 555.911865,242.488403 
	C540.635010,242.134308 525.387695,242.810486 511.688965,250.192032 
	C502.707062,255.031891 494.620422,261.537506 486.162598,267.340485 
	C485.086670,268.078705 484.212494,269.106079 483.193390,269.936310 
	C482.997620,270.095764 482.560699,269.959229 481.838013,269.959229 
	C481.838013,252.268036 481.838013,234.580582 481.838013,216.158417 
	C514.741272,216.158417 547.620605,216.158417 580.999817,216.158417 
z"/>
<path fill="#202D3E" opacity="1.000000" stroke="none" 
	d="
M828.008484,419.023071 
	C815.015442,415.370422 804.427551,407.829681 795.407898,398.191895 
	C831.764648,397.832489 867.628052,397.832489 903.518921,397.832489 
	C903.518921,395.425476 903.518921,393.688019 903.518921,391.978851 
	C902.737671,391.784851 902.263367,391.563751 901.789185,391.564056 
	C864.203918,391.588989 826.618652,391.631256 789.033386,391.672241 
	C784.324036,384.386414 778.778748,377.496399 775.098511,369.723328 
	C769.370911,357.626312 767.448730,344.483154 768.521484,330.497803 
	C813.826294,329.946564 858.700989,329.946564 903.670410,329.946564 
	C903.670410,327.454681 903.670410,325.582214 903.670410,323.409119 
	C858.554688,323.409119 813.805237,323.409119 769.055786,323.409119 
	C770.277039,318.327423 771.498291,313.245697 773.348328,307.833191 
	C807.900391,307.502350 841.823669,307.502350 875.704224,307.502350 
	C875.704224,305.017914 875.704224,303.133545 875.704224,300.996643 
	C842.243652,300.996643 809.116089,300.996643 775.988525,300.996643 
	C777.199036,298.354248 777.939941,295.339844 779.692749,293.127075 
	C797.004395,271.272980 819.656006,259.995636 847.560730,258.909088 
	C888.852783,257.301178 927.848145,286.840942 935.740845,332.556793 
	C938.894714,350.824432 936.324585,368.440521 928.073364,384.913757 
	C922.497864,396.045044 912.721619,403.554535 902.404480,410.116943 
	C892.188782,416.614777 881.042725,420.817749 868.929932,422.033813 
	C863.639404,422.564941 858.303772,422.646362 852.523743,422.461060 
	C852.395935,419.694885 851.514954,418.886047 849.112244,418.940552 
	C842.080688,419.100189 835.043457,419.013336 828.008484,419.023071 
z"/>
<path fill="#E7E7E7" opacity="1.000000" stroke="none" 
	d="
M768.993042,323.834381 
	C813.805237,323.409119 858.554688,323.409119 903.670410,323.409119 
	C903.670410,325.582214 903.670410,327.454681 903.670410,329.946564 
	C858.700989,329.946564 813.826294,329.946564 768.494507,330.041687 
	C768.335022,328.177765 768.632690,326.218719 768.993042,323.834381 
z"/>
<path fill="#E7E7E7" opacity="1.000000" stroke="none" 
	d="
M789.117432,392.018768 
	C826.618652,391.631256 864.203918,391.588989 901.789185,391.564056 
	C902.263367,391.563751 902.737671,391.784851 903.518921,391.978851 
	C903.518921,393.688019 903.518921,395.425476 903.518921,397.832489 
	C867.628052,397.832489 831.764648,397.832489 795.429199,397.833984 
	C793.038635,396.012085 791.120056,394.188690 789.117432,392.018768 
z"/>
<path fill="#E7E7E7" opacity="1.000000" stroke="none" 
	d="
M775.710266,301.217529 
	C809.116089,300.996643 842.243652,300.996643 875.704224,300.996643 
	C875.704224,303.133545 875.704224,305.017914 875.704224,307.502350 
	C841.823669,307.502350 807.900391,307.502350 773.511719,307.520874 
	C773.841492,305.505737 774.636719,303.472046 775.710266,301.217529 
z"/>
<path fill="#E4E5E5" opacity="1.000000" stroke="none" 
	d="
M828.268677,419.278198 
	C835.043457,419.013336 842.080688,419.100189 849.112244,418.940552 
	C851.514954,418.886047 852.395935,419.694885 852.099243,422.425598 
	C849.490356,423.012970 846.755249,423.657776 844.209961,423.213959 
	C838.929504,422.293182 833.749878,420.794434 828.268677,419.278198 
z"/>
</svg>